<?xml version="1.0" encoding="utf-8"?>
<!-- Generator: Adobe Illustrator 15.0.0, SVG Export Plug-In . SVG Version: 6.00 Build 0)  -->
<!DOCTYPE svg PUBLIC "-//W3C//DTD SVG 1.1//EN" "http://www.w3.org/Graphics/SVG/1.1/DTD/svg11.dtd">
<svg version="1.1" id="Layer_1" xmlns="http://www.w3.org/2000/svg" xmlns:xlink="http://www.w3.org/1999/xlink" x="0px" y="0px"
	 width="65px" height="42px" viewBox="0 0 65 42" enable-background="new 0 0 65 42" xml:space="preserve">
<g>
	<path fill-rule="evenodd" clip-rule="evenodd" fill="#DE2C2C" d="M25.063,15.643c1.269,0.009,3.467-0.69,3.893,0.371
		c0.519,1.294-1.161,1.985-1.73,2.596c-1.33,1.425-2.058,3.385-4.635,3.585c-2.208,5.716-4.311,11.553-6.366,17.675
		c-0.285,0.849-0.484,2.058-1.297,2.101c-0.721,0.038-1.061-0.813-1.483-1.235c-0.746-0.747-1.982-1.324-2.163-2.225
		c-0.119-0.591,0.191-1.459,0.371-2.102c1.194-4.27,2.854-8.692,4.264-12.67c-2.434,0.408-5.11,1.111-7.664,1.607
		c-1.51,3.87-2.989,7.926-4.449,12.051c-0.394,1.113-1.008,3.278-2.534,2.781c-1.344-0.438-0.145-2.99,0.062-3.585
		c1.285-3.706,2.499-7.273,3.894-10.753c-0.442-0.193-0.969-0.258-1.36-0.494c-0.708-0.43-1.188-1.555-2.039-2.102
		c-0.703-0.451-2.052-0.669-1.792-1.854c0.111-0.508,1.138-0.767,1.668-0.927c2.049-0.62,4.067-1.107,6.118-1.607
		c1.968-4.895,4.053-10.243,6.118-15.265c0.298-0.725,0.535-1.571,0.927-2.102c0.338-0.456,1.437-1.339,2.225-0.803
		c0.589,0.401,0.171,1.778-0.062,2.349c-2.044,5.017-4.067,9.991-5.995,15.018c2.506-0.501,4.999-1.017,7.54-1.483
		c1.386-3.543,3.23-7.852,4.821-11.619c0.461-1.094,0.957-3.13,1.854-3.584c0.481-0.244,1.483-0.43,2.163-0.68
		c0.654-0.24,1.43-0.624,2.102-0.68c2.303-0.191,0.298,3.442,0,4.202C27.986,8.104,26.583,11.867,25.063,15.643z"/>
	<path fill-rule="evenodd" clip-rule="evenodd" fill="#DE2C2C" d="M26.73,29.301c0.094,0.565,0.359,0.959,0.432,1.545
		c0.407-0.249,1.909-1.359,2.163-0.124c0.226,1.095-0.839,1.864-1.298,2.596c0.196,0.656,0.78,1.536,0.309,2.287
		c-0.787,0.4-1.412-0.222-1.544-0.865c-0.626,0.381-1.088,0.873-1.854,0.988c-1.949,0.294-2.998-0.955-3.028-2.596
		c-0.042-2.319,1.833-3.383,2.781-4.696c-0.315-1.021-0.595-1.686-0.494-2.534c0.323-2.724,4.858-2.802,4.449,0.31
		C28.467,27.571,27.312,28.202,26.73,29.301z M25.989,27.015c0.36-0.082,0.836-0.56,0.804-1.236
		C26.121,25.051,25.615,26.289,25.989,27.015z M24.629,32.762c0.048,0.014,0.122,0.002,0.124,0.062
		c0.519-0.078,0.851-0.343,1.112-0.68c-0.172-0.405-0.194-0.96-0.495-1.236C25.088,31.439,24.312,32.029,24.629,32.762z"/>
	<path fill-rule="evenodd" clip-rule="evenodd" fill="#DE2C2C" d="M55.592,10.884c-3.672,7.464-7.146,15.753-10.383,24.102
		c-0.392,1.012-0.758,3.145-1.73,3.214c-0.783,0.056-1.09-0.933-1.545-1.483c-0.715-0.864-1.61-1.453-1.978-2.472
		c-0.542-1.504-0.398-3.571-0.309-5.501c0.253-5.45,0.98-11.209,1.298-16.376c-2.79,8.308-5.39,16.683-7.911,25.338
		c-0.316,1.085-0.771,2.866-2.225,2.472c-1.45-0.394-0.017-3.977,0.185-4.697c2.961-10.563,5.958-20.636,9.641-30.591
		c0.291-0.788,0.573-1.724,0.927-2.163c0.596-0.739,1.828-0.922,2.967-1.421C45.225,1,47.161-0.002,47.929,0.687
		c0.475,0.428,0.221,2.312,0.123,3.461c-0.705,8.322-2.438,15.142-2.596,24.102c3-8.083,6.885-15.999,10.568-23.854
		c0.53-1.131,1.12-2.442,1.978-2.905C58.31,1.325,58.87,1.267,59.3,1.12c1.008-0.344,2.126-1.019,3.09-1.05
		c1.696-0.056,1.146,1.85,0.865,3.028c-2.834,11.889-5.129,24.188-7.539,36.585c-0.18,0.922-0.234,2.146-0.865,2.287
		c-1.081,0.242-1.598-1.044-2.226-1.606c-0.673-0.604-1.879-1.074-2.039-1.916c-0.168-0.882,0.35-2.705,0.494-3.585
		C52.413,26.74,54.01,18.76,55.592,10.884z"/>
</g>
</svg>
