<?xml version="1.0" encoding="utf-8"?>
<!-- Generator: Adobe Illustrator 15.0.0, SVG Export Plug-In . SVG Version: 6.00 Build 0)  -->
<!DOCTYPE svg PUBLIC "-//W3C//DTD SVG 1.1//EN" "http://www.w3.org/Graphics/SVG/1.1/DTD/svg11.dtd">
<svg version="1.1" id="Layer_1" xmlns="http://www.w3.org/2000/svg" xmlns:xlink="http://www.w3.org/1999/xlink" x="0px" y="0px"
	 width="116px" height="24px" viewBox="0 0 116 24" enable-background="new 0 0 116 24" xml:space="preserve">
<g>
	<path fill="#C41230" d="M99.998,0h0.993c0.096,0.175,0.043,0.385,0.045,0.576c-0.177,2.657-0.335,5.315-0.497,7.974
		c-0.033,0.339,0.018,0.71-0.168,1.013c-1.435,2.457-2.843,4.93-4.274,7.39c-0.272,0.351-0.711,0.517-1.056,0.782
		c-1.925,1.302-3.856,2.593-5.781,3.894c-0.354,0.226-0.681,0.497-1.068,0.663c-0.16-0.31-0.391-0.588-0.493-0.923
		C91.774,14.233,95.929,7.14,99.998,0z"/>
	<path fill="#C41230" d="M101.968,0h1.132c0.684,1.31,1.469,2.566,2.192,3.855c2.253,3.904,4.504,7.809,6.756,11.713
		c1.119,1.908,2.185,3.849,3.337,5.736v0.208c-0.227,0.257-0.37,0.57-0.558,0.854c-2.466-1.649-4.927-3.312-7.393-4.963
		c-0.2-0.139-0.438-0.249-0.559-0.469c-1.432-2.492-2.867-4.98-4.3-7.469c-0.098-0.178-0.078-0.389-0.097-0.584
		C102.323,5.921,102.118,2.962,101.968,0z"/>
	<path fill="#C41230" d="M97.043,18.885c1.148-0.06,2.304,0.021,3.452-0.045c1.737-0.008,3.475-0.001,5.21-0.004
		c0.246-0.016,0.461,0.117,0.674,0.223c2.653,1.353,5.315,2.688,7.967,4.045c-0.009,0.317-0.315,0.589-0.424,0.896H89.194
		c-0.167-0.3-0.434-0.583-0.48-0.923c1.314-0.703,2.657-1.357,3.988-2.028C94.157,20.345,95.573,19.557,97.043,18.885z"/>
</g>
<g>
	<g>
		<path d="M0,6.092c2.307-0.014,4.613-0.001,6.919-0.005C7.924,6.08,8.938,6.119,9.922,6.335c1.262,0.269,2.519,0.856,3.315,1.905
			c0.887,1.156,1.083,2.701,0.895,4.112c-0.169,1.27-0.875,2.47-1.955,3.173c-1.125,0.779-2.535,0.959-3.871,0.868
			c1.951,2.163,3.888,4.339,5.838,6.503c0.196,0.212,0.385,0.43,0.557,0.662c-1.439,0.02-2.877,0.005-4.316,0.008
			c-2.054-2.264-4.092-4.546-6.14-6.814c-0.27-0.294-0.512-0.615-0.82-0.869c-0.046,2.55-0.021,5.102-0.013,7.653
			C2.278,23.608,1.138,23.547,0,23.565V6.092z M3.411,9.113c-0.015,1.594-0.008,3.19-0.005,4.785c1.48,0.016,2.96,0.001,4.44,0.007
			c0.761-0.019,1.56-0.094,2.239-0.471c0.488-0.267,0.798-0.782,0.887-1.322c0.135-0.713,0.042-1.526-0.479-2.069
			C9.84,9.376,8.866,9.179,7.969,9.12C6.45,9.107,4.93,9.121,3.411,9.113z"/>
	</g>
	<g>
		<path d="M43.522,6.108c1.136-0.04,2.276-0.026,3.415-0.007c-0.002,1.432-0.013,2.865,0.006,4.297
			c0.566-0.376,1.205-0.641,1.879-0.752c1.739-0.288,3.648-0.026,5.082,1.059c1.336,0.99,2.104,2.644,2.118,4.295
			c-0.001,1.155-0.004,2.311,0.001,3.465c0.008,1.413-0.515,2.846-1.518,3.854c-1.072,1.091-2.604,1.594-4.103,1.682H49.07
			c-1.224-0.09-2.399-0.548-3.386-1.271c-0.735,0.244-1.323,1-2.16,0.823C43.53,17.738,43.535,11.923,43.522,6.108z M48.867,12.638
			c-1.023,0.201-1.84,1.097-1.916,2.141c-0.044,1.228-0.004,2.457-0.02,3.685c-0.011,0.921,0.509,1.845,1.363,2.226
			c0.948,0.445,2.111,0.432,3.053-0.022c0.784-0.387,1.271-1.231,1.294-2.095c0.008-1.152,0-2.306,0.004-3.458
			c0.004-0.813-0.36-1.658-1.067-2.097C50.782,12.514,49.77,12.407,48.867,12.638z"/>
	</g>
	<path d="M71.977,6.088c1.131-0.001,2.262-0.003,3.392,0.001c0.012,3.127,0.011,6.256,0.002,9.381
		c0.895-0.905,1.689-1.913,2.549-2.857c0.905-1.029,1.809-2.063,2.718-3.09c1.383-0.017,2.768,0.022,4.149-0.021
		c0.02,0.175-0.133,0.283-0.23,0.404c-1.923,2.166-3.815,4.362-5.749,6.517c1.591,1.814,3.23,3.588,4.84,5.387
		c0.503,0.589,1.074,1.124,1.534,1.747c-1.358,0.023-2.716,0.002-4.073,0.012c-0.263,0.033-0.378-0.25-0.539-0.398
		c-1.734-1.914-3.446-3.85-5.198-5.747c0.009,2.046,0.006,4.094,0.002,6.139c-1.131,0.01-2.263,0.007-3.394,0.002
		C71.967,17.738,71.968,11.913,71.977,6.088z"/>
	<g>
		<path d="M16.681,11.138c1.199-1.162,2.921-1.631,4.558-1.621c1.519-0.036,3.098,0.321,4.326,1.247c1,0.74,1.668,1.878,1.908,3.092
			c0.201,0.946,0.114,1.917,0.132,2.877c-0.012,0.33,0.043,0.668-0.046,0.99c-3.031-0.02-6.063-0.027-9.094,0.005
			c-0.046,0.914,0.101,1.936,0.789,2.603c0.621,0.58,1.517,0.683,2.326,0.756c0.811-0.011,1.705-0.078,2.353-0.619
			c0.304-0.24,0.392-0.627,0.513-0.975c1.034-0.037,2.077-0.037,3.113,0.002c-0.096,1.095-0.487,2.199-1.288,2.976
			c-0.902,0.909-2.188,1.333-3.441,1.438c-0.874-0.021-1.747,0-2.621-0.005c-1.339-0.179-2.656-0.751-3.604-1.732
			c-0.988-1.005-1.52-2.424-1.491-3.829c0.004-1.154,0.001-2.31,0.002-3.463C15.151,13.499,15.666,12.098,16.681,11.138z
			 M19.085,13.197c-0.521,0.536-0.63,1.317-0.628,2.031c1.934,0.005,3.868,0.002,5.803,0.001c0.024-0.588-0.055-1.207-0.389-1.706
			c-0.428-0.706-1.261-1.046-2.052-1.121C20.864,12.31,19.771,12.465,19.085,13.197z"/>
	</g>
	<g>
		<path d="M30.963,11.007c1.239-1.098,2.946-1.523,4.573-1.491c1.667-0.017,3.423,0.465,4.641,1.652
			c1.123,1.062,1.633,2.653,1.565,4.175c-0.03,0.794,0.056,1.598-0.042,2.385c-3.008-0.043-6.02,0.012-9.028-0.027
			c-0.146,0.847,0.022,1.798,0.583,2.471c0.613,0.721,1.626,0.85,2.514,0.917c0.895-0.025,1.975-0.1,2.551-0.89
			c0.185-0.203,0.142-0.539,0.328-0.722c1.013-0.009,2.026-0.008,3.039,0.001c-0.069,1.166-0.532,2.346-1.415,3.136
			c-0.915,0.825-2.148,1.2-3.354,1.311c-0.839-0.038-1.679-0.03-2.518-0.023c-1.644-0.176-3.256-1.019-4.201-2.398
			c-0.623-0.883-0.929-1.967-0.95-3.042c0.002-1.153,0-2.309,0.001-3.464C29.269,13.514,29.833,11.999,30.963,11.007z M33.25,13.177
			c-0.523,0.539-0.675,1.327-0.621,2.053c1.926-0.004,3.852,0.014,5.776-0.009c0.014-0.655-0.083-1.356-0.516-1.875
			c-0.496-0.645-1.329-0.923-2.118-0.962C34.881,12.337,33.889,12.502,33.25,13.177z"/>
	</g>
	<g>
		<path d="M62.662,9.594c1.758-0.218,3.657-0.057,5.185,0.916c1.107,0.69,1.891,1.843,2.187,3.109
			c0.262,1.017,0.16,2.073,0.18,3.111c-0.021,1.005,0.078,2.025-0.15,3.015c-0.267,1.285-1.03,2.47-2.137,3.186
			c-0.815,0.545-1.775,0.866-2.747,0.973c-0.762-0.008-1.522-0.019-2.283,0.007c-1.574-0.146-3.158-0.86-4.115-2.152
			c-0.553-0.722-0.864-1.604-0.99-2.498c-0.114-0.764-0.055-1.538-0.068-2.307c0.021-1.215-0.106-2.461,0.262-3.641
			c0.348-1.177,1.128-2.227,2.189-2.856C60.924,9.986,61.79,9.722,62.662,9.594z M62.929,12.643
			c-0.536,0.152-1.053,0.447-1.367,0.917c-0.342,0.483-0.464,1.087-0.466,1.671c0.001,0.998,0.001,1.998-0.001,2.997
			c-0.003,0.635,0.145,1.3,0.558,1.799c0.414,0.521,1.059,0.802,1.701,0.908c0.938,0.135,1.986-0.011,2.709-0.674
			c0.566-0.506,0.776-1.291,0.774-2.028c-0.005-1.037,0.007-2.075-0.006-3.114c-0.017-0.748-0.286-1.532-0.897-2.002
			C65.093,12.474,63.929,12.376,62.929,12.643z"/>
	</g>
</g>
</svg>
