<svg version="1.1" id="HyK2SeH3k7" xmlns="http://www.w3.org/2000/svg" xmlns:xlink="http://www.w3.org/1999/xlink" x="0px" y="0px" viewBox="0 0 375 465" style="enable-background:new 0 0 375 465;">
    <style>
     @-webkit-keyframes BkVGnrlB2JX_Syy34H31m_Animation{
    0%{
        -webkit-transform: scale(1, 0);
        transform: scale(1, 0);
    }
    33.33%{
        -webkit-transform: scale(1, 0);
        transform: scale(1, 0);
    }
    66.67%{
        -webkit-transform: scale(1, 1);
        transform: scale(1, 1);
    }
    100%{
        -webkit-transform: scale(1, 1);
        transform: scale(1, 1);
    }
}
@keyframes BkVGnrlB2JX_Syy34H31m_Animation{
    0%{
        -webkit-transform: scale(1, 0);
        transform: scale(1, 0);
    }
    33.33%{
        -webkit-transform: scale(1, 0);
        transform: scale(1, 0);
    }
    66.67%{
        -webkit-transform: scale(1, 1);
        transform: scale(1, 1);
    }
    100%{
        -webkit-transform: scale(1, 1);
        transform: scale(1, 1);
    }
}
@-webkit-keyframes H1bM2Slr21m_HJ6j4Sn1m_Animation{
    0%{
        -webkit-transform: scale(1, 0);
        transform: scale(1, 0);
    }
    33.33%{
        -webkit-transform: scale(1, 0);
        transform: scale(1, 0);
    }
    66.67%{
        -webkit-transform: scale(1, 1);
        transform: scale(1, 1);
    }
    100%{
        -webkit-transform: scale(1, 1);
        transform: scale(1, 1);
    }
}
@keyframes H1bM2Slr21m_HJ6j4Sn1m_Animation{
    0%{
        -webkit-transform: scale(1, 0);
        transform: scale(1, 0);
    }
    33.33%{
        -webkit-transform: scale(1, 0);
        transform: scale(1, 0);
    }
    66.67%{
        -webkit-transform: scale(1, 1);
        transform: scale(1, 1);
    }
    100%{
        -webkit-transform: scale(1, 1);
        transform: scale(1, 1);
    }
}
@-webkit-keyframes Sk0WnHlHhkX_Byqi4rh17_Animation{
    0%{
        -webkit-transform: scale(1, 0);
        transform: scale(1, 0);
    }
    33.33%{
        -webkit-transform: scale(1, 0);
        transform: scale(1, 0);
    }
    66.67%{
        -webkit-transform: scale(1, 1);
        transform: scale(1, 1);
    }
    100%{
        -webkit-transform: scale(1, 1);
        transform: scale(1, 1);
    }
}
@keyframes Sk0WnHlHhkX_Byqi4rh17_Animation{
    0%{
        -webkit-transform: scale(1, 0);
        transform: scale(1, 0);
    }
    33.33%{
        -webkit-transform: scale(1, 0);
        transform: scale(1, 0);
    }
    66.67%{
        -webkit-transform: scale(1, 1);
        transform: scale(1, 1);
    }
    100%{
        -webkit-transform: scale(1, 1);
        transform: scale(1, 1);
    }
}
@-webkit-keyframes Hkjb2HerhJQ_rygoESnkX_Animation{
    0%{
        -webkit-transform: scale(1, 0);
        transform: scale(1, 0);
    }
    33.33%{
        -webkit-transform: scale(1, 0);
        transform: scale(1, 0);
    }
    66.67%{
        -webkit-transform: scale(1, 1);
        transform: scale(1, 1);
    }
    100%{
        -webkit-transform: scale(1, 1);
        transform: scale(1, 1);
    }
}
@keyframes Hkjb2HerhJQ_rygoESnkX_Animation{
    0%{
        -webkit-transform: scale(1, 0);
        transform: scale(1, 0);
    }
    33.33%{
        -webkit-transform: scale(1, 0);
        transform: scale(1, 0);
    }
    66.67%{
        -webkit-transform: scale(1, 1);
        transform: scale(1, 1);
    }
    100%{
        -webkit-transform: scale(1, 1);
        transform: scale(1, 1);
    }
}
@-webkit-keyframes Bkvx2Blr2kX_rJMP4H31m_Animation{
    0%{
        -webkit-transform: scale(1, 0);
        transform: scale(1, 0);
    }
    33.33%{
        -webkit-transform: scale(1, 1);
        transform: scale(1, 1);
    }
    100%{
        -webkit-transform: scale(1, 1);
        transform: scale(1, 1);
    }
}
@keyframes Bkvx2Blr2kX_rJMP4H31m_Animation{
    0%{
        -webkit-transform: scale(1, 0);
        transform: scale(1, 0);
    }
    33.33%{
        -webkit-transform: scale(1, 1);
        transform: scale(1, 1);
    }
    100%{
        -webkit-transform: scale(1, 1);
        transform: scale(1, 1);
    }
}
@-webkit-keyframes BJc3rlH3k7_SkwcfrnyQ_Animation{
    0%{
        -webkit-transform: scale(1, 0);
        transform: scale(1, 0);
    }
    33.33%{
        -webkit-transform: scale(1, 1);
        transform: scale(1, 1);
    }
    100%{
        -webkit-transform: scale(1, 1);
        transform: scale(1, 1);
    }
}
@keyframes BJc3rlH3k7_SkwcfrnyQ_Animation{
    0%{
        -webkit-transform: scale(1, 0);
        transform: scale(1, 0);
    }
    33.33%{
        -webkit-transform: scale(1, 1);
        transform: scale(1, 1);
    }
    100%{
        -webkit-transform: scale(1, 1);
        transform: scale(1, 1);
    }
}
#HyK2SeH3k7 *{
    -webkit-animation-duration: 3s;
    animation-duration: 3s;
    -webkit-animation-timing-function: cubic-bezier(0, 0, 1, 1);
    animation-timing-function: cubic-bezier(0, 0, 1, 1);
    animation-fill-mode: forwards;
}
#Hys2Hxr2y7{
    fill: #0A090A;
}
#HknhSlr21X{
    fill: #F3D500;
}
#H16hHer3yQ{
    fill: #080708;
}
#Sk0hBeB2kX{
    fill: #070707;
}
#Hkkxnrerhym{
    fill: #B59E00;
}
#S1gxnHeB2kX{
    fill: #C7AE00;
}
#SJbx3BerhkX{
    fill: #CAB100;
}
#r1MenHxrhkm{
    fill: #C4AB00;
}
#SJQl3SgBnyQ{
    fill: #C1A800;
}
#H1VxnrgSnym{
    fill: #BEA600;
}
#H1Sl2SxS2JX{
    fill: #BBA300;
}
#SJUx2rgH2kX{
    fill: #B8A000;
}
#Syug3HlBhkm{
    fill: #BBBBBB;
}
#BytenBgr3y7{
    fill: #5D5D5D;
}
#S1cxnBeB21Q{
    fill: #5F5F5F;
}
#HJjl3BlH3kQ{
    fill: #5C5C5C;
}
#BJ2g3SeH21X{
    fill: #5A5A5A;
}
#BJpg3SeS3k7{
    fill: #595959;
}
#ryAe3rxHnJQ{
    fill: #585858;
}
#BykZ2reBhJm{
    fill: #565656;
}
#rJg-nrgS2JX{
    fill: #555555;
}
#SkZW2HlB31X{
    fill: #656565;
}
#HJGb2BxHhyQ{
    fill: #727272;
}
#HkXbhSlS3JX{
    fill: #999999;
}
#HJ4W2reBh1Q{
    fill: #969696;
}
#B1rb2BgS21Q{
    fill: #949494;
}
#SJLbnrxrn1Q{
    fill: #929292;
}
#rkvZ2HlShJQ{
    fill: #8F8F8F;
}
#rJdb3SlrnJ7{
    fill: #8B8B8B;
}
#rJt-hrxH21X{
    fill: #8D8D8D;
}
#ryc-hHerhkQ{
    fill: #9B9B9B;
}
#Skn-2rgH3km{
    fill: #DBDBDB;
}
#HkpZhHlB3kX{
    fill: #FFDD00;
}
#BJyfnreS317{
    fill: #DBDBDB;
}
#BkeG2SgSnJQ{
    fill: #FFDD00;
}
#BkzznrgHhyQ{
    fill: #DBDBDB;
}
#By7MnSlB2kX{
    fill: #FFDD00;
}
#B1rfnrlH31Q{
    fill: #DBDBDB;
}
#BJLG3Her3y7{
    fill: #FFDD00;
}
#BJc3rlH3k7_SkwcfrnyQ{
    -webkit-animation-name: BJc3rlH3k7_SkwcfrnyQ_Animation;
    animation-name: BJc3rlH3k7_SkwcfrnyQ_Animation;
    -webkit-transform-origin: 50% 50%;
    transform-origin: 50% 50%;
    transform-box: fill-box;
    -webkit-transform: scale(1, 0);
    transform: scale(1, 0);
}
#Bkvx2Blr2kX_rJMP4H31m{
    -webkit-animation-name: Bkvx2Blr2kX_rJMP4H31m_Animation;
    animation-name: Bkvx2Blr2kX_rJMP4H31m_Animation;
    -webkit-transform-origin: 50% 50%;
    transform-origin: 50% 50%;
    transform-box: fill-box;
    -webkit-transform: scale(1, 0);
    transform: scale(1, 0);
}
#Hkjb2HerhJQ_rygoESnkX{
    -webkit-animation-name: Hkjb2HerhJQ_rygoESnkX_Animation;
    animation-name: Hkjb2HerhJQ_rygoESnkX_Animation;
    -webkit-transform-origin: 50% 50%;
    transform-origin: 50% 50%;
    transform-box: fill-box;
    -webkit-transform: scale(1, 0);
    transform: scale(1, 0);
}
#Sk0WnHlHhkX_Byqi4rh17{
    -webkit-animation-name: Sk0WnHlHhkX_Byqi4rh17_Animation;
    animation-name: Sk0WnHlHhkX_Byqi4rh17_Animation;
    -webkit-transform-origin: 50% 0%;
    transform-origin: 50% 0%;
    transform-box: fill-box;
    -webkit-transform: scale(1, 0);
    transform: scale(1, 0);
}
#H1bM2Slr21m_HJ6j4Sn1m{
    -webkit-animation-name: H1bM2Slr21m_HJ6j4Sn1m_Animation;
    animation-name: H1bM2Slr21m_HJ6j4Sn1m_Animation;
    -webkit-transform-origin: 50% 0%;
    transform-origin: 50% 0%;
    transform-box: fill-box;
    -webkit-transform: scale(1, 0);
    transform: scale(1, 0);
}
#BkVGnrlB2JX_Syy34H31m{
    -webkit-animation-name: BkVGnrlB2JX_Syy34H31m_Animation;
    animation-name: BkVGnrlB2JX_Syy34H31m_Animation;
    -webkit-transform-origin: 50% 100%;
    transform-origin: 50% 100%;
    transform-box: fill-box;
    -webkit-transform: scale(1, 0);
    transform: scale(1, 0);
}

    </style>
    <g id="BJc3rlH3k7_SkwcfrnyQ" data-animator-group="true" data-animator-type="2">
        <g id="BJc3rlH3k7">
            <path d="M323.4,282.8c0,2.2,0.1,4.3,0.1,6.5c0,3.1,0,6.2,0,9.3c0,0.4,0.1,0.7-0.1,1.1c-0.3-0.3-0.3-0.6-0.3-1&#10;&#9;&#9;c0.1-3.9-0.1-7.7,0.2-11.6c-0.4,4.4-2,8.4-4.1,12.2c-2.2,4-5,7.5-8.2,10.7c-4.3,4.2-9,7.8-14.1,10.9c-6.4,4-13.2,7.2-20.2,9.9&#10;&#9;&#9;c-13.6,5.3-27.6,8.5-42,10.5c-6,0.8-12,1.4-18.1,1.7c-3.7,0.2-7.5,0.4-11.2,0.4c-0.5,0-1.1,0.1-1.5-0.2c-0.1-0.1-0.2-0.2-0.2-0.3&#10;&#9;&#9;c-0.1-0.3-0.1-0.6-0.1-0.9c0-6.5,0-13,0-19.5c0-0.3,0-0.6,0.1-0.9c0.2-0.6,0.8-0.5,1.2-0.5c4-0.1,8.1-0.3,12.2-0.6&#10;&#9;&#9;c6-0.6,12-1.5,17.9-2.9c8.2-1.9,16.1-4.6,23.5-8.5c4.6-2.4,8.9-5.3,12.7-8.9c2.9-2.9,5.5-6.1,6.9-10c0.8-2,1.2-4.1,1.4-6.2&#10;&#9;&#9;c0.1-0.5,0-0.9,0.5-1.2c0.5-0.2,1-0.2,1.5-0.2c13.5,0,26.9,0,40.4,0C322.3,282.4,322.9,282.4,323.4,282.8z" id="Hys2Hxr2y7"/>
            <path d="M323.4,282.8c-14.6,0-29.2,0-43.8,0c-0.2-0.2-0.2-0.5-0.3-0.8c-0.2-3.8-1.3-7.4-3.4-10.5&#10;&#9;&#9;c-1.5-2.5-3.3-4.7-5.5-6.6c-1.8-1.8-3.8-3.2-5.9-4.7c-2.3-1.5-4.7-3-7.3-4.2c-2.8-1.5-5.7-2.7-8.6-3.7c-3.5-1.3-7.1-2.4-10.7-3.3&#10;&#9;&#9;c-6.7-1.7-13.5-2.8-20.4-3.6c-2.9-0.2-5.8-0.5-8.8-0.5c-1.4,0-2.8-0.1-4.2-0.2c-0.3-0.1-0.6-0.1-0.9-0.3c-0.2-0.3-0.2-0.6-0.2-1&#10;&#9;&#9;c0-6.7,0-13.3,0-19.9c0-0.2,0-0.4,0.1-0.5s0.1-0.2,0.2-0.4c6.8,0.1,13.7,0.3,20.6,0.9c8,0.8,16,1.8,23.9,3.4&#10;&#9;&#9;c16.6,3.4,32.7,8.6,47.4,17.4c7.5,4.4,14.3,9.8,19.7,16.6c4.3,5.4,7.2,11.4,8,18.3C323.5,280.4,323.5,281.6,323.4,282.8z" id="HknhSlr21X"/>
            <path d="M203.8,343.1c0.9,0,1.8-0.1,2.7,0c2.9,0.1,5.7-0.2,8.6-0.3c4.3-0.2,8.6-0.5,13-1.1c8.1-0.9,16.1-2.2,24-4&#10;&#9;&#9;c6-1.3,11.8-3,17.6-4.8c2.3-0.8,4.7-1.6,7-2.5c0.4,0.4,0.4,0.9,0.4,1.4c0,4.1,0,8.2,0,12.3c0,0.5,0,1-0.4,1.4&#10;&#9;&#9;c-4.2,1.8-8.5,3.2-12.9,4.4c-11.8,3.4-23.8,5.7-36,7c-7.6,0.8-15.2,1.2-22.8,1.2c-0.4,0-0.8-0.1-1.2-0.1c-0.4-0.4-0.3-0.8-0.3-1.3&#10;&#9;&#9;c0-4.2,0-8.4,0-12.6C203.5,343.9,203.4,343.5,203.8,343.1z" id="H16hHer3yQ"/>
            <path d="M276.7,345.6c0-5,0-10.1,0-15.1c4.3-1.8,8.6-3.6,12.7-5.7c5.8-3,11.3-6.4,16.4-10.6c4.7-3.9,8.9-8.3,12.3-13.5&#10;&#9;&#9;c2.5-4,4.7-9.8,5.3-14.3c0,4.4,0,8.8,0,13.2c-0.1,4.4-1.3,8.6-3.3,12.6c-3.6,7.4-9.1,13.1-15.4,18.1c-8.4,6.6-17.9,11.4-27.8,15.3&#10;&#9;&#9;C276.9,345.6,276.8,345.6,276.7,345.6z" id="Sk0hBeB2kX"/>
            <path d="M278.1,290.2c-0.8-1.5-1.7-3.1-2.5-4.6c-0.2-0.5-0.3-1.1-0.3-1.6c0-3.7,0-7.5,0-11.3c0-0.4,0-0.7,0.1-1.1&#10;&#9;&#9;c0.1-0.3,0.2-0.6,0.6-0.4c2,2.8,3,6,3.5,9.4c0.1,0.7,0.1,1.5,0.1,2.2C279.7,285.3,279.2,287.9,278.1,290.2z" id="Hkkxnrerhym"/>
            <path d="M237.6,263.7c-2.7-0.6-5.4-1.2-8.2-1.7c-4-0.8-8.1-1.3-12.2-1.8c-0.5-0.3-0.5-0.8-0.5-1.3&#10;&#9;&#9;c0-4.2-0.1-8.5,0-12.7c0-0.5-0.2-1.5,0.9-1.1c3,0.1,6,0.6,8.9,1.1c3.7,0.6,7.4,1.3,11,2.3c0.2,0.1,0.3,0.1,0.5,0.2&#10;&#9;&#9;c-0.2,4.4-0.1,8.8-0.1,13.3C237.9,262.6,238.1,263.1,237.6,263.7z" id="S1gxnHeB2kX"/>
            <path d="M217.6,245.2c-0.4,0-0.6,0.1-0.6,0.6c0,4.7,0,9.3,0,14c0,0.2,0.1,0.4,0.2,0.5c-4.5-0.4-9-0.6-13.5-0.6&#10;&#9;&#9;c-0.5-0.3-0.5-0.8-0.5-1.3c0-4.3,0-8.5,0-12.8c0-0.4,0-0.8,0.4-1.2l0,0c0.1-0.1,0.1-0.1,0.1,0c4.5,0.2,9,0.4,13.4,0.6&#10;&#9;&#9;C217.3,244.9,217.5,245,217.6,245.2z" id="SJbx3BerhkX"/>
            <path d="M237.6,263.7c0-4.7,0-9.3,0-14c0-0.4-0.2-0.9,0.4-1c1.7,0.2,3.2,0.8,4.8,1.3c2,0.6,4,1.2,5.9,2.1&#10;&#9;&#9;c0.4,0.4,0.4,0.9,0.4,1.4c0,4.1,0,8.2,0,12.3c0,0.5,0.1,1-0.4,1.4C245.1,265.8,241.3,264.8,237.6,263.7z" id="r1MenHxrhkm"/>
            <path d="M248.8,267.2c0-5,0-10,0-15.1c3,1,5.9,2.2,8.6,3.8c0.4,0.4,0.4,0.9,0.4,1.4c0,4.1,0,8.2,0,12.3&#10;&#9;&#9;c0,0.5,0.1,1-0.4,1.4C254.5,269.6,251.7,268.3,248.8,267.2z" id="SJQl3SgBnyQ"/>
            <path d="M257.4,270.9c0-5,0-10,0-15.1c2.6,1.1,5,2.6,7.4,4.2c0.1,0.4,0.1,0.8,0.1,1.2c0,4,0,8.1,0,12.2&#10;&#9;&#9;c0,0.5,0.1,1.1-0.4,1.6C262.2,273.6,259.8,272.2,257.4,270.9z" id="H1VxnrgSnym"/>
            <path d="M264.5,275.1c0-4.6,0-9.2,0-13.8c0-0.4-0.2-0.8,0.2-1.2c2.1,1.3,4.1,2.9,5.8,4.6c0.1,0.5,0.2,1.1,0.2,1.6&#10;&#9;&#9;c0,3.9,0,7.9,0,11.8c0,0.5,0.1,1.1-0.4,1.6C268.5,278,266.5,276.5,264.5,275.1z" id="H1Sl2SxS2JX"/>
            <path d="M270.4,279.6c0-4.6,0-9.2,0-13.8c0-0.4-0.1-0.8,0.2-1.1c2.2,1.9,4,4,5.5,6.5c-0.6,0.2-0.4,0.6-0.4,1.1&#10;&#9;&#9;c0,4.4-0.1,8.9-0.1,13.4C274,283.5,272.3,281.5,270.4,279.6z" id="SJUx2rgH2kX"/>
        </g>
    </g>
    <g id="Bkvx2Blr2kX_rJMP4H31m" data-animator-group="true" data-animator-type="2">
        <g id="Bkvx2Blr2kX">
            <path d="M203.8,123.8c-0.1,0.1-0.1,0.2-0.1,0.2c0.1,7.1,0,14.2,0,21.3c0,0.1,0,0.2-0.1,0.4c-1.5,0.5-3,0.2-4.5,0.2&#10;&#9;&#9;c-0.5,0-0.9-0.1-1.4,0.1c-2.6,0.1-5.3,0.2-7.9,0.5c-4.2,0.4-8.3,1-12.4,1.6c-4,0.7-7.9,1.6-11.9,2.7c-3.2,0.8-6.4,1.9-9.5,3.1&#10;&#9;&#9;c-2.9,1.1-5.7,2.4-8.4,3.8c-2.6,1.2-5,2.7-7.3,4.4c-2.6,1.8-4.9,3.7-7,6c-1.9,2.2-3.7,4.4-4.9,7.1c-1.2,2.5-1.9,5.1-2,7.8&#10;&#9;&#9;c0,0.5,0.1,1-0.6,1.2c-0.5,0.2-1.1,0.1-1.7,0.1c-13,0-26,0-39,0c-0.5,0-1.1,0.1-1.6-0.1c-0.1-0.1-0.2-0.1-0.4-0.2&#10;&#9;&#9;c0-5.9,1.6-11.4,4.6-16.5c4.1-7.2,9.9-12.8,16.5-17.6c9.2-6.7,19.3-11.4,29.9-15.2c8.6-3,17.4-5.3,26.3-7.1&#10;&#9;&#9;c5.3-1,10.6-1.8,15.9-2.4c4.1-0.5,8.2-0.8,12.3-1.1c4-0.2,7.9-0.4,11.9-0.4C201.8,124,202.8,123.7,203.8,123.8z" id="Syug3HlBhkm"/>
            <path d="M181.8,258.6c-3.4-0.1-6.8-0.6-10.2-1.1c-7.3-1-14.5-2.4-21.7-4.1c-0.2-0.1-0.3-0.1-0.5-0.2&#10;&#9;&#9;c-0.1-0.3-0.1-0.5-0.1-0.8c0-4.6,0-9.2,0-13.8c0-0.1,0-0.3,0.1-0.4c0.5-0.5,1-0.2,1.5-0.1c5,1.2,10.1,2.3,15.2,3.1&#10;&#9;&#9;c4.7,0.8,9.3,1.5,14.1,1.9c0.7,0.1,1.5-0.1,2,0.6c0.2,0.4,0.2,0.8,0.2,1.1c0,4.2,0,8.4,0,12.6C182.3,257.7,182.4,258.3,181.8,258.6&#10;&#9;&#9;z" id="BytenBgr3y7"/>
            <path d="M181.8,258.6c0.4-0.4,0.2-0.8,0.2-1.2c0-4.7,0-9.3,0-14c1-0.5,2-0.1,3.1-0.1c3.3,0.2,6.5,0.5,9.8,0.5&#10;&#9;&#9;c2.6,0.1,5.3,0.4,7.9,0.2c0.3,0,0.6,0,0.8,0.2c0.1,0.1,0.2,0.2,0.2,0.3c0,4.7,0,9.5,0,14.3c0,0.2,0.1,0.5-0.1,0.7&#10;&#9;&#9;c-3.4,0.1-6.8,0-10.1-0.2c-3.7-0.2-7.4-0.5-11-0.7C182.3,258.7,182,258.6,181.8,258.6z" id="S1cxnBeB21Q"/>
            <path d="M149.4,237.9c0.2,0.4,0.2,0.7,0.2,1.1c0,4.4,0,8.7,0,13.1c0,0.4,0.1,0.7-0.2,1c-3.3-0.6-6.5-1.7-9.7-2.7&#10;&#9;&#9;c-2.7-0.8-5.4-1.6-8-2.8c0.2-3.4,0.1-6.8,0.1-10.2c0-1.6,0.1-3.2-0.2-4.7c0.4-0.7,0.9-0.2,1.3-0.1c3.9,1.4,7.8,2.6,11.8,3.8&#10;&#9;&#9;c1.2,0.4,2.5,0.7,3.6,1C148.7,237.5,149.2,237.5,149.4,237.9z" id="HJjl3BlH3kQ"/>
            <path d="M131.7,232.5c0.3,0.7,0.4,1.5,0.4,2.2c0,3.7,0,7.4,0,11c0,0.6-0.1,1.3-0.4,1.9c-4.7-1.6-9.2-3.6-13.5-5.8&#10;&#9;&#9;c-0.2-1-0.1-2-0.1-3c0-3.3,0-6.7,0-10c0-0.5-0.1-1.1,0.1-1.6c0.4-0.8,0.9-0.4,1.3-0.2c2.7,1.3,5.4,2.5,8.2,3.7&#10;&#9;&#9;c0.9,0.4,1.9,0.8,2.8,1.1C131.1,231.9,131.6,232,131.7,232.5z" id="BJ2g3SeH21X"/>
            <path d="M118.5,226.8c0,4.6,0,9.2,0,13.8c0,0.4,0.2,0.9-0.2,1.2c-3.8-1.8-7.4-3.9-10.9-6.3c-0.3-0.4-0.3-0.9-0.3-1.4&#10;&#9;&#9;c0-4,0-8,0-12c0-0.5,0-0.9,0.2-1.3c0.4-0.5,0.8-0.3,1.2-0.1c3.1,2,6.3,3.8,9.5,5.4C118.2,226.3,118.6,226.4,118.5,226.8z" id="BJpg3SeS3k7"/>
            <path d="M107.6,220.5c-0.2,0.4-0.2,0.9-0.2,1.3c0,4.6,0,9.1,0,13.7c-3.4-2.2-6.7-4.7-9.7-7.5&#10;&#9;&#9;c-0.2-0.4-0.3-0.8-0.3-1.3c0-4.3,0-8.5,0-12.7c0-0.2,0-0.4,0.1-0.5c0.5-1,1-0.3,1.3,0c1.2,1.1,2.4,2,3.6,3c1.4,1.2,2.9,2.2,4.4,3.2&#10;&#9;&#9;C107.1,219.8,107.6,219.9,107.6,220.5z" id="ryAe3rxHnJQ"/>
            <path d="M97.7,212.9c0,5,0,10-0.1,15c-3.3-2.9-6.2-6.2-8.5-9.9c0.1-4.1,0-8.2,0.1-12.3c0-0.6-0.1-1.1,0.2-1.6&#10;&#9;&#9;c0.6-0.6,0.9,0,1.2,0.4c1.1,1.3,2,2.6,3.2,3.9c1.1,1.2,2.3,2.3,3.4,3.6C97.4,212.2,97.8,212.4,97.7,212.9z" id="BykZ2reBhJm"/>
            <path d="M89.7,203.9c-0.4,0.3-0.2,0.7-0.2,1.1c0,4,0,7.9,0,12c0,0.4,0.2,0.9-0.4,1.1c-3.1-4.6-5.1-9.7-5.7-15.2&#10;&#9;&#9;c-0.5-5.5-0.2-11.1-0.2-16.7c0.1-0.1,0.2-0.1,0.3,0.1c0.3,0.6,0.2,1.3,0.2,2c0.8,5.3,2.7,10,5.5,14.5&#10;&#9;&#9;C89.6,202.9,90,203.3,89.7,203.9z" id="rJg-nrgS2JX"/>
            <path d="M83.4,186c-0.1,0-0.1,0-0.2,0c0-0.6,0-1.2,0-1.9c0.1,0,0.1,0,0.2,0C83.8,184.8,83.8,185.4,83.4,186z" id="SkZW2HlB31X"/>
            <path d="M203.6,222.6c0,7.3,0,14.5,0,21.8c-3.7,0.2-7.4-0.2-11-0.2c-3,0-6-0.4-9.1-0.6c-0.5-0.1-1.1-0.1-1.6-0.2&#10;&#9;&#9;c-3-0.2-6.1-0.6-9.1-1c-3.7-0.5-7.3-1.1-10.9-1.7c-4.2-0.8-8.4-1.7-12.6-2.7c-6-1.5-11.9-3.3-17.6-5.5c-4.3-1.7-8.6-3.4-12.7-5.5&#10;&#9;&#9;c-0.2-0.1-0.4-0.1-0.5-0.2c-1.9-1.1-3.9-2.1-5.7-3.2c-1.8-1-3.4-2.1-5.2-3.1c-2.6-1.9-5.3-3.7-7.8-5.9c-0.7-0.6-1.2-1.3-2.1-1.7&#10;&#9;&#9;c-1.3-1.6-2.9-2.9-4.2-4.5c-1.1-1.3-2.1-2.6-3.1-3.9c-0.2-0.2-0.4-0.5-0.6-0.6c-0.9-1.5-1.8-3-2.6-4.6c-1.9-3.6-3-7.5-3.7-11.4&#10;&#9;&#9;c-0.1-0.6-0.1-1.2-0.1-1.8s0-1.2,0-1.9c0.5,0,1-0.1,1.5-0.1c13.7,0,27.5,0,41.2,0c0.1,0.1,0.2,0.2,0.2,0.4c0.1,2.4,0.8,4.7,1.3,7.1&#10;&#9;&#9;c0.7,2.5,2.2,4.6,3.7,6.6c4.4,5.6,10.2,9.5,16.5,12.8c9.2,4.7,19,7.6,29.1,9.4C185.8,221.9,194.7,222.6,203.6,222.6z" id="HJGb2BxHhyQ"/>
            <path d="M198.8,160.9c-7.2,0.2-14.3,0.9-21.3,2.1c-0.1,0-0.2,0-0.3,0c-0.4-0.4-0.4-0.9-0.4-1.4c0-4.1,0-8.2,0-12.3&#10;&#9;&#9;c0-0.5,0-1,0.4-1.4c1.6-0.5,3.3-0.6,4.9-0.8c3.9-0.6,7.8-0.9,11.7-1.2c1.3-0.1,2.6,0,4-0.1c1.2-0.2,1.3-0.1,1.4,1.1&#10;&#9;&#9;c0.1,4.4,0.1,8.8,0,13.1C199.1,160.4,199.1,160.7,198.8,160.9z" id="HkXbhSlS3JX"/>
            <path d="M177.2,148c0,5,0,10.1,0,15.1c-3.4,0.8-6.9,1.4-10.3,2.3c-0.5,0.1-1,0.2-1.5,0.4c-0.4-0.4-0.4-0.9-0.4-1.4&#10;&#9;&#9;c0-4.1,0-8.2,0-12.3c0-0.5,0-1,0.4-1.4c3-1.1,6.2-1.6,9.3-2.3C175.5,148.2,176.4,148.1,177.2,148z" id="HJ4W2reBh1Q"/>
            <path d="M165.4,150.7c0,5,0,10,0,15.1c-3.2,1-6.3,2-9.5,3.2c-0.4-0.4-0.4-0.9-0.4-1.4c0-4.1,0-8.2,0-12.3&#10;&#9;&#9;c0-0.5,0-1,0.4-1.4c2.2-1.1,4.6-1.7,6.8-2.5C163.6,151.1,164.5,150.9,165.4,150.7z" id="B1rb2BgS21Q"/>
            <path d="M155.9,153.8c0,5,0,10,0,15.1c-2.7,1.2-5.5,2.5-8.2,3.6c-0.4-0.4-0.4-0.8-0.4-1.2c0-4.4,0-8.7,0-13.1&#10;&#9;&#9;c0-0.2,0.1-0.5,0.1-0.7C150.2,156.1,153,154.8,155.9,153.8z" id="SJLbnrxrn1Q"/>
            <path d="M147.5,157.6c0.4,0.4,0.2,0.8,0.2,1.2c0,4.6,0,9.2,0,13.8c-2.5,1.4-5,2.9-7.4,4.4c-0.4-0.4-0.4-0.8-0.4-1.2&#10;&#9;&#9;c0-4.3,0-8.6,0-12.9c0-0.3,0.1-0.6,0.1-0.9C142.4,160.3,144.9,158.8,147.5,157.6z" id="rkvZ2HlShJQ"/>
            <path d="M127.6,191.5c-0.9-1.3-1-2.9-1.3-4.4c-0.2-1-0.2-2-0.2-3c-0.1-5.2,1.9-9.7,5-13.7c0.6-0.9,1.4-1.6,2.1-2.4&#10;&#9;&#9;c0.8,0.2,0.7,0.9,0.7,1.5c0.1,2.2,0,4.5,0,6.7c0,1.6,0,3.3,0,5c0,0.5-0.1,1.1-0.4,1.5C131.2,185.3,129.1,188.2,127.6,191.5z" id="rJdb3SlrnJ7"/>
            <path d="M133.7,182.7c0-4.4,0-8.8,0-13.3c0-0.5,0.1-1.1-0.4-1.5c2-2.3,4.3-4.3,6.9-5.9c0.4,0.4,0.2,0.8,0.2,1.2&#10;&#9;&#9;c0,4.6,0,9.2,0,13.7C138,178.8,135.8,180.6,133.7,182.7z" id="rJt-hrxH21X"/>
            <path d="M198.8,160.9c0-4.7,0-9.4,0-14.1c0-0.9-0.3-1.2-1.1-1.1c0.8-0.5,1.8-0.1,2.6-0.2c1.1-0.1,2.2,0,3.3,0&#10;&#9;&#9;c0,4.7,0,9.3,0,14c0,0.4-0.1,0.8,0.1,1.2C202.2,160.9,200.5,160.9,198.8,160.9z" id="ryc-hHerhkQ"/>
        </g>
    </g>
    <g id="Hkjb2HerhJQ_rygoESnkX" data-animator-group="true" data-animator-type="2">
        <g id="Hkjb2HerhJQ">
            <path d="M178.2,25.5v109.7c-0.6,0.3-1,1-0.9,1.8c0.1,0.7,0.6,1.3,1.3,1.4c1,0.2,1.8-0.6,1.8-1.7&#10;&#9;&#9;c0-0.7-0.4-1.3-0.9-1.5V25.3L178.2,25.5z" id="Skn-2rgH3km"/>
            <rect x="174.6" y="21.7" width="8.4" height="8.4" id="HkpZhHlB3kX"/>
        </g>
    </g>
    <g id="Sk0WnHlHhkX_Byqi4rh17" data-animator-group="true" data-animator-type="2">
        <g id="Sk0WnHlHhkX">
            <path d="M138.8,286v-67.8c0.6-0.3,1-0.9,0.9-1.7c-0.1-0.6-0.6-1.2-1.3-1.3c-1-0.2-1.8,0.6-1.8,1.5&#10;&#9;&#9;c0,0.6,0.4,1.2,0.9,1.4v68L138.8,286z" id="BJyfnreS317"/>
            <rect x="133.9" y="281.8" width="8.4" height="8.4" id="BkeG2SgSnJQ"/>
        </g>
    </g>
    <g id="H1bM2Slr21m_HJ6j4Sn1m" data-animator-group="true" data-animator-type="2">
        <g id="H1bM2Slr21m">
            <path d="M243.6,380.4v-46c0.6-0.3,1-0.9,0.9-1.7c-0.1-0.6-0.6-1.2-1.3-1.3c-1-0.2-1.8,0.6-1.8,1.5&#10;&#9;&#9;c0,0.6,0.4,1.2,0.9,1.4v46.1H243.6z" id="BkzznrgHhyQ"/>
            <rect x="238.7" y="376.3" width="8.4" height="8.4" id="By7MnSlB2kX"/>
        </g>
    </g>
    <g id="BkVGnrlB2JX_Syy34H31m" data-animator-group="true" data-animator-type="2">
        <g id="BkVGnrlB2JX">
            <path d="M220.3,86.5v145.7c-0.6,0.3-1,1-0.9,1.8c0.1,0.7,0.6,1.3,1.3,1.4c1,0.2,1.8-0.6,1.8-1.7&#10;&#9;&#9;c0-0.7-0.4-1.3-0.9-1.5V86.4L220.3,86.5z" id="B1rfnrlH31Q"/>
            <rect x="216.8" y="82.7" width="8.4" height="8.4" id="BJLG3Her3y7"/>
        </g>
    </g>
   
</svg>