<svg version="1.1" xmlns="http://www.w3.org/2000/svg" xmlns:xlink="http://www.w3.org/1999/xlink" x="0px" y="0px"
	 viewBox="0 0 940 462" style="enable-background:new 0 0 940 462;" xml:space="preserve">
<style type="text/css">
	.st0{fill:#0A090A;}
	.st1{fill:#F3D500;}
	.st2{fill:#BBBBBB;}
	.st3{fill:#080708;}
	.st4{fill:#070707;}
	.st5{fill:#5D5D5D;}
	.st6{fill:#5F5F5F;}
	.st7{fill:#5C5C5C;}
	.st8{fill:#5A5A5A;}
	.st9{fill:#595959;}
	.st10{fill:#585858;}
	.st11{fill:#565656;}
	.st12{fill:#555555;}
	.st13{fill:#656565;}
	.st14{fill:#B59E00;}
	.st15{fill:#C7AE00;}
	.st16{fill:#CAB100;}
	.st17{fill:#C4AB00;}
	.st18{fill:#C1A800;}
	.st19{fill:#BEA600;}
	.st20{fill:#BBA300;}
	.st21{fill:#B8A000;}
	.st22{fill:#9B9B9B;}
	.st23{fill:#727272;}
	.st24{fill:#999999;}
	.st25{fill:#969696;}
	.st26{fill:#949494;}
	.st27{fill:#929292;}
	.st28{fill:#8F8F8F;}
	.st29{fill:#8B8B8B;}
	.st30{fill:#8D8D8D;}
	.st31{fill:#FFDD00;}
</style>
<g id="Layer_1">
	<g id="Page-1">
		<g>
			<path id="Shape" class="st0" d="M676.3,324.6c0,3.7,0.1,7.5,0.1,11.2V352c0,0.6,0.2,1.2-0.2,1.8c-0.5-0.5-0.5-1.1-0.5-1.7
				c0.1-6.7-0.3-13.4,0.3-20.1c-0.6,7.6-3.4,14.6-7.1,21.2c-3.8,6.9-8.7,13-14.3,18.5c-7.4,7.3-15.6,13.4-24.4,18.9
				c-11.1,6.9-22.9,12.4-35.1,17.2c-23.5,9.1-47.8,14.8-72.7,18.2c-10.4,1.4-20.8,2.4-31.3,3c-6.5,0.3-12.9,0.7-19.4,0.7
				c-0.9,0-1.8,0.1-2.7-0.3c-0.2-0.1-0.3-0.3-0.4-0.5c-0.2-0.5-0.2-1.1-0.2-1.6v-33.8c0-0.5,0-1.1,0.1-1.6c0.4-1,1.3-0.9,2.2-0.9
				c7-0.1,14-0.5,21-1.2c10.5-1,20.8-2.6,31-5c14.2-3.3,27.9-7.9,40.8-14.7c8-4.2,15.5-9.1,21.9-15.5c5.1-5,9.5-10.6,11.9-17.4
				c1.4-3.4,2.1-7,2.4-10.7c0.1-0.8,0-1.6,0.8-2.1c0.8-0.3,1.7-0.3,2.5-0.3h70C674.4,324,675.4,323.9,676.3,324.6z"/>
			<path id="Shape_1_" class="st1" d="M676.3,324.6h-75.8c-0.4-0.4-0.4-0.8-0.5-1.3c-0.4-6.6-2.3-12.7-6-18.3
				c-2.5-4.4-5.7-8.1-9.5-11.4c-3.2-3-6.6-5.6-10.2-8.1c-4.1-2.7-8.2-5.2-12.7-7.3c-4.8-2.5-9.8-4.6-14.9-6.5
				c-6.1-2.3-12.3-4.2-18.6-5.8c-11.6-3-23.4-4.8-35.3-6.1c-5.1-0.3-10.1-0.9-15.2-0.9c-2.4,0-4.8-0.2-7.3-0.4
				c-0.5-0.1-1.1-0.1-1.5-0.5c-0.4-0.5-0.4-1.1-0.4-1.8v-34.5c0-0.3,0-0.6,0.1-0.9c0.1-0.2,0.2-0.4,0.4-0.6
				c11.9,0.2,23.7,0.5,35.6,1.6c13.9,1.3,27.7,3.2,41.3,6c28.9,6,56.7,14.9,82.2,30.1c13,7.7,24.7,16.9,34.1,28.8
				c7.4,9.4,12.4,19.8,13.9,31.7C676.4,320.5,676.5,322.5,676.3,324.6z"/>
			<path id="Shape_2_" class="st2" d="M469,220.2c-0.1,0.2-0.1,0.3-0.2,0.5c0.1,12.3,0,24.5,0,36.8c0,0.2,0,0.4-0.2,0.6
				c-2.6,0.9-5.2,0.3-7.8,0.4c-0.8,0-1.7-0.1-2.5,0.2c-4.6,0.2-9.2,0.4-13.8,0.8c-7.2,0.6-14.4,1.7-21.6,2.8
				c-6.9,1.2-13.8,2.7-20.5,4.7c-5.6,1.4-11,3.3-16.4,5.4c-5,1.8-9.8,4.1-14.6,6.6c-4.5,2.1-8.6,4.8-12.7,7.6
				c-4.4,3-8.5,6.5-12.1,10.4c-3.3,3.8-6.4,7.7-8.5,12.3c-2,4.3-3.3,8.8-3.5,13.6c0,0.8,0.1,1.7-1,2.1c-1,0.3-1.9,0.2-2.9,0.2h-67.5
				c-0.9,0-1.8,0.1-2.7-0.2c-0.2-0.1-0.4-0.2-0.6-0.4c0-10.2,2.9-19.7,7.9-28.5c7.1-12.5,17.2-22.1,28.7-30.5
				c15.9-11.5,33.4-19.7,51.9-26.3c14.8-5.3,30.1-9.2,45.5-12.2c9.1-1.8,18.3-3.2,27.6-4.2c7.1-0.8,14.2-1.4,21.3-1.9
				c6.9-0.5,13.8-0.7,20.7-0.7C465.4,220.4,467.2,219.8,469,220.2z"/>
			<path id="Shape_3_" class="st3" d="M469.1,429.1c1.6,0,3.2-0.1,4.7,0c5,0.2,9.9-0.3,14.9-0.5c7.5-0.3,15-1,22.5-1.8
				c14-1.6,27.9-3.7,41.6-6.9c10.3-2.4,20.5-5.2,30.5-8.4c4.1-1.3,8.1-2.9,12.1-4.3c0.7,0.7,0.6,1.6,0.6,2.4V431
				c0,0.8,0,1.7-0.6,2.4c-7.2,3.1-14.7,5.4-22.3,7.7c-20.4,6-41.3,9.9-62.4,12.1c-13.1,1.4-26.3,2.1-39.5,2.2
				c-0.7,0-1.4-0.1-2.2-0.1c-0.6-0.6-0.5-1.5-0.5-2.2v-21.7C468.5,430.6,468.4,429.8,469.1,429.1z"/>
			<path id="Shape_4_" class="st4" d="M595.4,433.5v-26.2c7.4-3.1,14.9-6.2,22-9.9c10-5.3,19.6-11.2,28.4-18.4
				c8.2-6.8,15.5-14.4,21.2-23.4c4.4-6.9,8.2-17,9.2-24.7v22.9c-0.1,7.7-2.3,14.9-5.6,21.8c-6.2,12.8-15.7,22.8-26.7,31.4
				c-14.6,11.5-30.9,19.7-48.1,26.5C595.7,433.5,595.5,433.5,595.4,433.5z"/>
			<path id="Shape_5_" class="st5" d="M430.8,453.5c-5.9-0.2-11.8-1.1-17.7-1.9c-12.7-1.7-25.2-4.1-37.6-7.2
				c-0.3-0.1-0.6-0.2-0.8-0.3c-0.1-0.5-0.2-0.9-0.2-1.4v-23.9c0-0.2,0-0.5,0.1-0.7c0.8-0.9,1.7-0.3,2.5-0.1
				c8.7,2.1,17.5,3.9,26.4,5.4c8.1,1.3,16.2,2.5,24.4,3.2c1.2,0.1,2.6-0.1,3.6,1c0.3,0.6,0.3,1.3,0.3,1.9v21.9
				C431.7,452.2,432,453.2,430.8,453.5z"/>
			<path id="Shape_6_" class="st6" d="M430.8,453.5c0.7-0.6,0.4-1.4,0.4-2.1v-24.2c1.8-0.8,3.6-0.2,5.3-0.1
				c5.6,0.4,11.2,0.8,16.9,0.9c4.5,0.1,9.1,0.6,13.6,0.4c0.5,0,1,0,1.4,0.3c0.2,0.1,0.4,0.3,0.4,0.5v24.7c0,0.4,0.1,0.8-0.1,1.2
				c-5.9,0.2-11.7,0-17.6-0.3c-6.4-0.3-12.8-0.8-19.2-1.2C431.6,453.8,431.2,453.6,430.8,453.5z"/>
			<path id="Shape_7_" class="st7" d="M374.7,417.8c0.4,0.6,0.4,1.3,0.4,1.9v22.6c0,0.6,0.2,1.2-0.4,1.7c-5.7-1.2-11.2-2.9-16.8-4.6
				c-4.7-1.5-9.3-2.9-13.8-4.8c0.3-5.9,0.1-11.8,0.2-17.8c0-2.7,0.1-5.4-0.3-8.1c0.7-1.2,1.5-0.4,2.2-0.1c6.7,2.4,13.5,4.6,20.4,6.5
				c2.1,0.6,4.2,1.2,6.3,1.7C373.5,417,374.3,417.1,374.7,417.8z"/>
			<path id="Shape_8_" class="st8" d="M344.1,408.4c0.5,1.2,0.7,2.5,0.7,3.9v19.1c0,1.1-0.1,2.3-0.8,3.3c-8-2.8-15.9-6.1-23.4-10.2
				c-0.3-1.7-0.1-3.5-0.1-5.3v-17.4c0-0.9-0.1-1.8,0.2-2.7c0.6-1.3,1.5-0.6,2.3-0.3c4.7,2.4,9.5,4.4,14.3,6.4
				c1.6,0.7,3.3,1.3,4.9,1.9C342.9,407.4,343.8,407.5,344.1,408.4z"/>
			<path id="Shape_9_" class="st9" d="M321.2,398.5v23.9c0,0.7,0.3,1.5-0.4,2c-6.6-3.1-12.9-6.7-18.9-10.9c-0.5-0.7-0.5-1.6-0.5-2.4
				v-20.8c0-0.8,0-1.6,0.4-2.3c0.6-0.9,1.4-0.5,2-0.1c5.3,3.4,10.8,6.6,16.5,9.5C320.7,397.6,321.3,397.8,321.2,398.5z"/>
			<path id="Shape_10_" class="st10" d="M302.2,387.6c-0.5,0.7-0.4,1.5-0.4,2.3v23.7c-6-3.8-11.6-8.1-16.8-13.1
				c-0.3-0.7-0.5-1.5-0.5-2.3v-22.1c0-0.3,0-0.6,0.1-0.9c0.8-1.8,1.7-0.5,2.3,0c2,1.8,4.2,3.5,6.3,5.2c2.4,2,5,3.8,7.6,5.6
				C301.5,386.5,302.3,386.7,302.2,387.6z"/>
			<path id="Shape_11_" class="st11" d="M285.1,374.5c0,8.7,0,17.3-0.1,26c-5.7-5.1-10.7-10.8-14.8-17.2c0.2-7.1,0-14.2,0.1-21.2
				c0-1-0.1-1.9,0.3-2.9c1.1-1.1,1.6,0,2.1,0.6c1.8,2.3,3.6,4.6,5.5,6.8c1.9,2.2,3.9,4.1,5.9,6.2
				C284.6,373.2,285.3,373.6,285.1,374.5z"/>
			<path id="Shape_12_" class="st12" d="M271.3,358.8c-0.6,0.5-0.4,1.2-0.4,1.9v20.7c0,0.6,0.4,1.5-0.6,1.8c-5.4-8-9-16.8-9.9-26.4
				s-0.3-19.3-0.3-28.9c0.2-0.1,0.4-0.1,0.5,0.1c0.5,1.1,0.3,2.3,0.4,3.4c1.3,9.1,4.6,17.4,9.6,25.1
				C271,357.2,271.8,357.8,271.3,358.8z"/>
			<path id="Shape_13_" class="st0" d="M468.7,455.3v-26.1c0-0.2,0.1-0.2,0.3-0.1h0.1v26.2h-0.2H468.7L468.7,455.3z"/>
			<path id="Shape_14_" class="st13" d="M260.4,327.9h-0.3v-3.2h0.3C261.1,325.7,261.1,326.8,260.4,327.9z"/>
			<path id="Shape_15_" class="st14" d="M597.9,337.5c-1.5-2.7-2.9-5.3-4.4-8c-0.3-0.9-0.6-1.8-0.5-2.8v-19.6c0-0.6,0-1.2,0.2-1.8
				c0.2-0.5,0.4-1.1,1.1-0.7c3.4,4.9,5.3,10.4,6.1,16.2c0.2,1.2,0.1,2.5,0.1,3.8C600.5,329.1,599.7,333.4,597.9,337.5z"/>
			<path id="Shape_16_" class="st6" d="M468.7,391.2h0.4v37.9c-0.1,0-0.2,0.1-0.3,0.1l-0.1-0.1c-0.6-0.6-0.5-1.5-0.5-2.2v-33.2
				C468.1,392.8,468.1,391.9,468.7,391.2z"/>
			<path id="Shape_17_" class="st15" d="M527.7,291.5c-4.7-1-9.4-2-14.2-3c-7-1.4-14.1-2.2-21.2-3c-0.9-0.5-0.9-1.4-0.9-2.2
				c0-7.3-0.1-14.6,0-22c0-0.9-0.3-2.5,1.6-2c5.2,0.2,10.3,1.1,15.4,1.9c6.4,1,12.8,2.3,19.1,3.9c0.3,0.1,0.5,0.2,0.8,0.4
				c-0.3,7.7-0.1,15.3-0.2,23C528.2,289.6,528.5,290.7,527.7,291.5z"/>
			<path id="Shape_18_" class="st16" d="M493.1,259.4c-0.7,0-1.1,0.2-1.1,1v24.2c0,0.3,0.2,0.6,0.3,0.8c-7.8-0.7-15.6-1.1-23.4-1.1
				c-0.9-0.5-0.9-1.4-0.9-2.2v-22.2c0-0.7,0-1.5,0.6-2l0,0c0.1-0.2,0.1-0.2,0.2,0c7.8,0.4,15.5,0.7,23.3,1.1
				C492.6,259.1,492.8,259.3,493.1,259.4z"/>
			<path id="Shape_19_" class="st17" d="M527.7,291.5v-24.2c0-0.6-0.4-1.5,0.7-1.8c2.9,0.4,5.6,1.4,8.4,2.2c3.5,1,6.9,2.1,10.2,3.6
				c0.6,0.7,0.6,1.6,0.6,2.4v21.4c0,0.8,0.1,1.7-0.6,2.4C540.6,295.3,534.1,293.4,527.7,291.5z"/>
			<path id="Shape_20_" class="st18" d="M547,297.6v-26.2c5.2,1.7,10.2,3.8,14.9,6.5c0.6,0.7,0.6,1.6,0.6,2.4v21.3
				c0,0.8,0.1,1.7-0.6,2.4C557,301.7,552,299.6,547,297.6z"/>
			<path id="Shape_21_" class="st19" d="M561.9,304.1V278c4.6,1.9,8.7,4.5,12.7,7.3c0.2,0.7,0.2,1.4,0.2,2.2v21.1
				c0,0.9,0.2,2-0.6,2.7C570.2,308.7,566.1,306.3,561.9,304.1z"/>
			<path id="Shape_22_" class="st20" d="M574.3,311.2v-23.9c0-0.7-0.3-1.5,0.3-2.1c3.6,2.4,7.1,5,10.2,8c0.2,0.9,0.3,1.8,0.3,2.7
				v20.5c0,0.9,0.2,2-0.6,2.7C581.2,316.4,577.7,313.8,574.3,311.2z"/>
			<path id="Shape_23_" class="st21" d="M584.5,319.2v-24c0-0.6-0.2-1.3,0.3-1.9c3.8,3.2,6.9,7,9.5,11.3c-1.1,0.3-0.7,1.1-0.7,1.8
				c0,7.7-0.1,15.4-0.1,23.2C590.8,325.8,587.7,322.4,584.5,319.2z"/>
			<path id="Shape_24_" class="st22" d="M469,258h-0.2v-36.8c0-0.2,0.1-0.3,0.1-0.5c0,0.7,0.1,1.4,0.1,2.2
				C469,234.5,469,246.2,469,258z"/>
			<path id="Shape_25_" class="st23" d="M468.7,391.2V429c-6.4,0.4-12.7-0.3-19.1-0.4c-5.2,0-10.5-0.7-15.7-1
				c-0.9-0.1-1.8-0.2-2.7-0.3c-5.3-0.4-10.5-1.1-15.8-1.8c-6.3-0.8-12.6-1.8-18.9-3c-7.3-1.4-14.5-2.9-21.7-4.7
				c-10.4-2.6-20.6-5.8-30.6-9.5c-7.5-2.9-14.9-5.9-22.1-9.6c-0.3-0.1-0.6-0.2-0.9-0.3c-3.3-1.8-6.7-3.6-9.9-5.5c-3-1.7-6-3.6-9-5.4
				c-4.6-3.3-9.2-6.5-13.5-10.2c-1.2-1-2.1-2.4-3.6-3c-2.2-2.8-5-5-7.3-7.7c-1.9-2.2-3.6-4.5-5.4-6.8c-0.3-0.4-0.6-0.9-1.1-1.2
				c-1.5-2.7-3.1-5.3-4.5-8c-3.3-6.2-5.3-12.9-6.3-19.9c-0.2-1-0.1-2.1-0.1-3.1v-3.2c0.8,0,1.7-0.1,2.5-0.1h71.4
				c0.2,0.2,0.4,0.4,0.4,0.6c0.2,4.2,1.4,8.2,2.3,12.2c1.2,4.4,3.7,8,6.5,11.4c7.7,9.7,17.6,16.5,28.5,22.1
				c15.9,8.2,32.9,13.1,50.4,16.3C437.7,390.1,453.1,391.2,468.7,391.2z"/>
			<path id="Shape_26_" class="st24" d="M460.3,284.5c-12.4,0.3-24.7,1.5-37,3.7h-0.5c-0.6-0.7-0.6-1.6-0.6-2.4v-21.4
				c0-0.8,0-1.7,0.6-2.4c2.8-0.8,5.7-1,8.5-1.4c6.7-1.1,13.5-1.6,20.3-2.1c2.3-0.2,4.6,0,6.9-0.1c2-0.3,2.4-0.1,2.4,1.8
				c0.1,7.6,0.1,15.1,0,22.7C460.9,283.4,460.8,284,460.3,284.5z"/>
			<path id="Shape_27_" class="st25" d="M422.8,262v26.2c-5.9,1.3-11.9,2.4-17.8,4c-0.9,0.2-1.7,0.4-2.6,0.7
				c-0.7-0.7-0.6-1.6-0.6-2.4v-21.4c0-0.8,0-1.7,0.6-2.4c5.2-1.9,10.7-2.8,16.1-4C419.9,262.4,421.4,262.2,422.8,262z"/>
			<path id="Shape_28_" class="st26" d="M402.4,266.7v26.2c-5.5,1.7-11,3.5-16.4,5.4c-0.7-0.7-0.6-1.6-0.6-2.4v-21.4
				c0-0.8,0-1.7,0.6-2.4c3.8-1.9,7.9-3,11.9-4.3C399.3,267.3,400.9,267.1,402.4,266.7z"/>
			<path id="Shape_29_" class="st27" d="M386,272.1v26.2c-4.7,2.1-9.5,4.2-14.2,6.3c-0.6-0.6-0.6-1.3-0.6-2V280
				c0-0.4,0.1-0.8,0.2-1.2C376.1,276.1,380.9,273.7,386,272.1z"/>
			<path id="Shape_30_" class="st28" d="M371.4,278.7c0.7,0.6,0.4,1.4,0.4,2.1v23.8c-4.3,2.4-8.6,4.9-12.7,7.6
				c-0.6-0.6-0.6-1.3-0.6-2V288c0-0.6,0.1-1.1,0.2-1.6C362.6,283.3,366.8,280.7,371.4,278.7z"/>
			<path id="Shape_31_" class="st29" d="M337,337.4c-1.5-2.3-1.7-5-2.3-7.6c-0.4-1.7-0.4-3.4-0.4-5.2c-0.1-9,3.4-16.8,8.7-23.8
				c1.1-1.5,2.4-2.8,3.7-4.2c1.5,0.4,1.2,1.6,1.3,2.7c0.1,3.9,0,7.8,0,11.6v8.6c0,0.9-0.1,1.8-0.6,2.6
				C343.2,326.6,339.6,331.7,337,337.4z"/>
			<path id="Shape_32_" class="st30" d="M347.4,322.1v-23c0-0.9,0.1-1.8-0.7-2.5c3.5-4,7.5-7.4,12-10.2c0.7,0.6,0.4,1.4,0.4,2.1
				v23.8C355,315.3,351.1,318.5,347.4,322.1z"/>
			<path id="Shape_33_" class="st22" d="M460.3,284.5v-24.4c0-1.5-0.5-2-1.9-1.8c1.4-0.8,3-0.1,4.5-0.3c1.9-0.2,3.8,0,5.7,0v24.3
				c0,0.7-0.1,1.5,0.2,2.1C466.1,284.4,463.2,284.5,460.3,284.5z"/>
		</g>
		<g>
			<path id="Shape_34_" class="st31" d="M522.6,15.4v222c-0.9,0.4-1.4,1.4-1.2,2.5c0.1,1,0.9,1.8,1.8,1.9c1.4,0.3,2.6-0.9,2.6-2.3
				c0-1-0.5-1.8-1.3-2.1V15.2L522.6,15.4z"/>
			<rect id="Rectangle-path" x="517.6" y="10" class="st31" width="11.8" height="11.8"/>
		</g>
		<g>
			<path id="Shape_35_" class="st31" d="M414.2,15.4v222c-0.9,0.4-1.4,1.4-1.2,2.5c0.1,1,0.9,1.8,1.8,1.9c1.4,0.3,2.6-0.9,2.6-2.3
				c0-1-0.5-1.8-1.3-2.1V15.2L414.2,15.4z"/>
			<rect id="Rectangle-path_1_" x="409.2" y="10" class="st31" width="11.8" height="11.8"/>
		</g>
		<g>
			<path id="Shape_36_" class="st31" d="M296.4,180.6v174.3c-0.9,0.4-1.4,1.3-1.2,2.3c0.1,0.9,0.9,1.6,1.8,1.8
				c1.4,0.2,2.6-0.8,2.6-2.2c0-0.9-0.5-1.6-1.3-2V180.4L296.4,180.6z"/>
			<rect id="Rectangle-path_2_" x="291.4" y="174.5" class="st31" width="11.8" height="11.8"/>
		</g>
		<g>
			<path id="Shape_37_" class="st31" d="M639.3,180.6v174.3c-0.9,0.4-1.4,1.3-1.2,2.3c0.1,0.9,0.9,1.6,1.8,1.8
				c1.4,0.2,2.6-0.8,2.6-2.2c0-0.9-0.5-1.6-1.3-2V180.4L639.3,180.6z"/>
			<rect id="Rectangle-path_3_" x="634.3" y="174.5" class="st31" width="11.8" height="11.8"/>
		</g>
	</g>
</g>
<g id="Layer_2">
</g>
</svg>
