<?xml version="1.0" encoding="utf-8"?>
<!-- Generator: Adobe Illustrator 22.1.0, SVG Export Plug-In . SVG Version: 6.00 Build 0)  -->
<svg version="1.1" id="Icon_Set" xmlns="http://www.w3.org/2000/svg" xmlns:xlink="http://www.w3.org/1999/xlink" x="0px" y="0px"
	 viewBox="0 0 35.8 31.2" style="enable-background:new 0 0 35.8 31.2;" xml:space="preserve">
<style type="text/css">
	.st0{fill:#F0CD1E;stroke:#37474F;stroke-width:0.75;}
	.st1{fill:none;stroke:#37474F;stroke-linecap:round;stroke-linejoin:round;stroke-miterlimit:10;}
	.st2{fill:none;stroke:#BDBDBD;stroke-linecap:round;stroke-linejoin:round;stroke-miterlimit:10;}
	.st3{fill:#EEEEEE;stroke:#37474F;stroke-linecap:round;stroke-linejoin:round;stroke-miterlimit:10;}
	.st4{fill:none;stroke:#F0CD1E;stroke-width:3;}
</style>
<path class="st0" d="M5.3,28.8H4l1.9-1.9c0.3-0.3,0.3-0.8,0-1.2c-0.3-0.3-0.8-0.3-1.2,0l-1.9,1.9v-1.3c0-0.5-0.4-0.8-0.8-0.8
	s-0.8,0.4-0.8,0.8v3.3c0,0.1,0,0.2,0.1,0.3c0,0,0,0,0,0c0.1,0.2,0.2,0.4,0.4,0.4c0,0,0,0,0,0c0.1,0,0.2,0.1,0.3,0.1h3.3
	c0.4,0,0.8-0.4,0.8-0.8S5.7,28.8,5.3,28.8z"/>
<path class="st0" d="M30.8,2.7h1.3l-1.9,1.9c-0.3,0.3-0.3,0.8,0,1.2c0.3,0.3,0.8,0.3,1.2,0l1.9-1.9v1.3c0,0.5,0.4,0.8,0.8,0.8
	s0.8-0.4,0.8-0.8V1.9c0-0.1,0-0.2-0.1-0.3c0,0,0,0,0,0c-0.1-0.2-0.2-0.4-0.4-0.4c0,0,0,0,0,0c-0.1,0-0.2-0.1-0.3-0.1h-3.3
	C30.4,1,30,1.4,30,1.9S30.4,2.7,30.8,2.7z"/>
<polyline class="st1" points="33.3,8.1 33.3,28.8 8.3,28.8 "/>
<polyline class="st2" points="2.8,22.2 2.8,2.7 27.8,2.7 "/>
<rect x="1.7" y="1.6" class="st3" width="2.2" height="2.2"/>
<rect x="32.2" y="27.7" class="st3" width="2.2" height="2.2"/>
<path class="st4" d="M18.2,14.2L18.2,14.2c0.8,0.1,1.4,0.8,1.4,1.6v0c-0.1,0.8-0.8,1.4-1.6,1.4h0c-0.8-0.1-1.4-0.8-1.4-1.6v0
	C16.6,14.8,17.4,14.2,18.2,14.2z"/>
</svg>
