<?xml version="1.0" encoding="utf-8"?>
<!-- Generator: Adobe Illustrator 21.1.0, SVG Export Plug-In . SVG Version: 6.00 Build 0)  -->
<svg version="1.1" id="Layer_1" xmlns="http://www.w3.org/2000/svg" xmlns:xlink="http://www.w3.org/1999/xlink" x="0px" y="0px"
	 viewBox="0 0 36.7 37" style="enable-background:new 0 0 36.7 37;" xml:space="preserve">
<style type="text/css">
	.st0{clip-path:url(#SVGID_2_);fill:none;stroke:#37474F;stroke-linecap:round;stroke-linejoin:round;stroke-miterlimit:10;}
	.st1{clip-path:url(#SVGID_2_);fill:none;stroke:#BDBDBD;stroke-linecap:round;stroke-linejoin:round;stroke-miterlimit:10;}
	.st2{clip-path:url(#SVGID_2_);fill:#EEEEEE;}
	.st3{clip-path:url(#SVGID_2_);fill:none;stroke:#FFDD00;stroke-width:3;}
</style>
<g>
	<defs>
		<rect id="SVGID_1_" y="0" width="36.7" height="37"/>
	</defs>
	<clipPath id="SVGID_2_">
		<use xlink:href="#SVGID_1_"  style="overflow:visible;"/>
	</clipPath>
	<line class="st0" x1="0.5" y1="0.5" x2="0.5" y2="3.2"/>
	<line class="st1" x1="0.5" y1="7.8" x2="0.5" y2="10.5"/>
	<line class="st0" x1="0.5" y1="15.2" x2="0.5" y2="17.8"/>
	<line class="st1" x1="0.5" y1="22.5" x2="0.5" y2="25.2"/>
	<line class="st0" x1="0.5" y1="29.9" x2="0.5" y2="32.5"/>
	<line class="st0" x1="36.2" y1="36.5" x2="33.5" y2="36.5"/>
	<line class="st1" x1="28.8" y1="36.5" x2="26.2" y2="36.5"/>
	<line class="st0" x1="21.5" y1="36.5" x2="18.8" y2="36.5"/>
	<line class="st1" x1="14.2" y1="36.5" x2="11.5" y2="36.5"/>
	<line class="st0" x1="6.8" y1="36.5" x2="4.1" y2="36.5"/>
	<polyline class="st0" points="0.5,36.5 8.3,26.5 18.1,24.8 21.7,15.3 29.6,7.2 	"/>
	<path class="st2" d="M8.4,25.1L8.4,25.1c0.8,0.1,1.4,0.8,1.4,1.6c-0.1,0.8-0.8,1.4-1.6,1.4c-0.8-0.1-1.4-0.8-1.4-1.6
		C6.9,25.7,7.6,25.1,8.4,25.1"/>
	<path class="st0" d="M8.4,25.1L8.4,25.1c0.8,0.1,1.4,0.8,1.4,1.6c-0.1,0.8-0.8,1.4-1.6,1.4c-0.8-0.1-1.4-0.8-1.4-1.6
		C6.9,25.7,7.6,25.1,8.4,25.1z"/>
	<path class="st2" d="M18.3,23.1L18.3,23.1c0.8,0.1,1.4,0.8,1.4,1.6c-0.1,0.8-0.8,1.4-1.6,1.4c-0.8-0.1-1.4-0.8-1.4-1.6
		C16.8,23.7,17.5,23.1,18.3,23.1"/>
	<path class="st0" d="M18.3,23.1L18.3,23.1c0.8,0.1,1.4,0.8,1.4,1.6c-0.1,0.8-0.8,1.4-1.6,1.4c-0.8-0.1-1.4-0.8-1.4-1.6
		C16.8,23.7,17.5,23.1,18.3,23.1z"/>
	<path class="st2" d="M22.1,13.7L22.1,13.7c0.8,0.1,1.4,0.8,1.4,1.6c-0.1,0.8-0.8,1.4-1.6,1.4c-0.8-0.1-1.4-0.8-1.4-1.6
		C20.6,14.3,21.3,13.6,22.1,13.7"/>
	<path class="st0" d="M22.1,13.7L22.1,13.7c0.8,0.1,1.4,0.8,1.4,1.6c-0.1,0.8-0.8,1.4-1.6,1.4c-0.8-0.1-1.4-0.8-1.4-1.6
		C20.6,14.3,21.3,13.6,22.1,13.7z"/>
	<path class="st3" d="M29.7,5.8L29.7,5.8c0.8,0.1,1.4,0.8,1.4,1.6c-0.1,0.8-0.8,1.4-1.6,1.4C28.6,8.7,28,8,28.1,7.1
		C28.1,6.3,28.9,5.7,29.7,5.8z"/>
</g>
</svg>
