<svg version="1.1" xmlns="http://www.w3.org/2000/svg" xmlns:xlink="http://www.w3.org/1999/xlink" x="0px" y="0px" width="26px" height="26px" viewBox="-2 0 26 26" enable-background="new -2 0 26 26" xml:space="preserve">
	<g id="Layer_1"> 
		<g> <path class="st1" d="M0,0v24h24V0H0z M21.6,21.6H2.4V2.4h19.2V21.6z"></path> </g> 
		<g> <path class="st1" d="M5.3,6.8h2.9c1.4,0,3.1,0.6,3.1,2.9c0,2.1-1.5,2.9-3,2.9H7.1v3.3H5.3V6.8z M8.1,11c1.2,0,1.5-0.7,1.5-1.3 c0-0.6-0.4-1.3-1.5-1.3h-1V11H8.1z"></path>
		<path class="st1" d="M14.8,8.4h-2.4V6.8h6.5v1.6h-2.4v7.4h-1.8V8.4z"></path> 
	</g> 
</g> 
</svg>