<?xml version="1.0" encoding="UTF-8"?>
<svg width="24px" height="24px" viewBox="0 0 24 24" version="1.1" xmlns="http://www.w3.org/2000/svg" xmlns:xlink="http://www.w3.org/1999/xlink">
    <!-- Generator: Sketch 43.1 (39012) - http://www.bohemiancoding.com/sketch -->
    <title>pt</title>
    <desc>Created with Sketch.</desc>
    <defs></defs>
    <g id="Page-1" stroke="none" stroke-width="1" fill="none" fill-rule="evenodd">
        <g id="pt" fill-rule="nonzero" fill="#000000">
            <path d="M0,0 L0,24 L24,24 L24,0 L0,0 Z M21.6,21.6 L2.4,21.6 L2.4,2.4 L21.6,2.4 L21.6,21.6 L21.6,21.6 Z" id="Shape"></path>
            <g id="Group" transform="translate(5.000000, 6.000000)">
                <path d="M0.3,0.8 L3.2,0.8 C4.6,0.8 6.3,1.4 6.3,3.7 C6.3,5.8 4.8,6.6 3.3,6.6 L2.1,6.6 L2.1,9.9 L0.3,9.9 L0.3,0.8 Z M3.1,5 C4.3,5 4.6,4.3 4.6,3.7 C4.6,3.1 4.2,2.4 3.1,2.4 L2.1,2.4 L2.1,5 L3.1,5 Z" id="Shape"></path>
                <polygon id="Shape" points="9.8 2.4 7.4 2.4 7.4 0.8 13.9 0.8 13.9 2.4 11.5 2.4 11.5 9.8 9.7 9.8 9.7 2.4"></polygon>
            </g>
        </g>
    </g>
</svg>