<?xml version="1.0" encoding="utf-8"?>
<!-- Generator: Adobe Illustrator 15.0.0, SVG Export Plug-In . SVG Version: 6.00 Build 0)  -->
<!DOCTYPE svg PUBLIC "-//W3C//DTD SVG 1.0//EN" "http://www.w3.org/TR/2001/REC-SVG-20010904/DTD/svg10.dtd">
<svg version="1.0" id="Layer_1" xmlns="http://www.w3.org/2000/svg" xmlns:xlink="http://www.w3.org/1999/xlink" x="0px" y="0px"
	 width="30px" height="30px" viewBox="0 0 30 30" enable-background="new 0 0 30 30" xml:space="preserve">
<path fill-rule="evenodd" clip-rule="evenodd" fill="#FFFFFF" d="M14.688,26.995c-0.468,0.465-1.085,0.605-1.554,0.141
	c-0.465-0.469-0.391-1.152,0.074-1.619c0,0,9.693-9.694,11.674-11.676c1.982-1.981,2.201-5.297-0.074-7.573
	c-2.275-2.275-6.038-1.751-7.647-0.142L4.237,19.051c-0.399,0.399-0.602,0.931-0.602,1.463c0,0.532,0.202,1.629,0.602,2.031
	l1.45,1.448l0,0l-0.004,0.002c0.401,0.399,1.5,0.6,2.034,0.6c0.533,0,1.067-0.2,1.466-0.6L9.18,23.993l0,0l5.742-5.74l5.608-5.608
	l0,0c0.297-0.297,0.445-0.691,0.445-1.084s-0.148-0.785-0.446-1.082l0,0c-0.298-0.297-0.618-0.373-1.015-0.373
	c-0.393,0-0.785,0.146-1.082,0.443L8.34,20.646c-0.469,0.467-1.085,0.609-1.554,0.142c-0.465-0.468-0.394-1.155,0.071-1.622
	l9.883-9.882c1.97-1.97,4.038-1.372,5.127-0.283l0,0c0.766,0.764,1.005,1.487,1.005,2.491s-0.381,2.012-1.146,2.776l0,0
	l-5.396,5.395l-5.741,5.74l0,0h-0.003c-0.869,0.869-2.012,1.305-3.151,1.305c-1.139,0-2.282-0.436-3.15-1.305H4.278l0,0
	l-1.449-1.448c-0.869-0.868-1.304-2.014-1.304-3.157c0-1.143,0.435-2.287,1.304-3.156c0,0,10.607-10.607,12.923-12.924
	c2.316-2.316,6.929-3.395,10.465,0.142s2.394,8.203,0.136,10.46C24.096,17.576,14.688,26.995,14.688,26.995z"/>
</svg>
