<?xml version="1.0" encoding="utf-8"?>
<!-- Generator: Adobe Illustrator 15.0.0, SVG Export Plug-In . SVG Version: 6.00 Build 0)  -->
<!DOCTYPE svg PUBLIC "-//W3C//DTD SVG 1.1//EN" "http://www.w3.org/Graphics/SVG/1.1/DTD/svg11.dtd">
<svg version="1.1" id="Layer_1" xmlns="http://www.w3.org/2000/svg" xmlns:xlink="http://www.w3.org/1999/xlink" x="0px" y="0px"
	 width="30px" height="30px" viewBox="0 0 30 30" enable-background="new 0 0 30 30" xml:space="preserve">
<g>
	<path fill="#FFFFFF" d="M12.922,20.576c-1.471,0-2.534-0.931-2.534-2.05c0-1.097,1.318-2.009,2.79-1.993
		c0.343,0.004,0.663,0.059,0.953,0.152c0.798,0.557,1.371,0.87,1.533,1.503c0.031,0.128,0.048,0.259,0.048,0.396
		C15.712,19.703,14.991,20.576,12.922,20.576 M13.308,14.016c-0.986-0.03-1.926-1.105-2.096-2.401
		c-0.17-1.298,0.493-2.29,1.48-2.261c0.987,0.03,1.926,1.07,2.096,2.367C14.958,13.018,14.296,14.045,13.308,14.016 M15.356,15.937
		c-0.346-0.246-1.008-0.842-1.008-1.193c0-0.411,0.117-0.613,0.735-1.096c0.634-0.496,1.083-1.192,1.083-2.002
		c0-0.964-0.43-1.904-1.235-2.214h1.215l0.856-0.62H13.17c-1.718,0-3.336,1.302-3.336,2.809c0,1.542,1.172,2.786,2.921,2.786
		c0.121,0,0.239-0.003,0.354-0.011c-0.113,0.216-0.195,0.462-0.195,0.715c0,0.429,0.231,0.776,0.522,1.06
		c-0.219,0-0.432,0.007-0.663,0.007c-2.129,0-3.768,1.356-3.768,2.762c0,1.384,1.797,2.25,3.925,2.25
		c2.426,0,3.767-1.376,3.767-2.762C16.697,17.316,16.37,16.651,15.356,15.937 M20.934,14.128h-1.492v-1.492H18.24v1.492h-1.492
		v1.201h1.492v1.492h1.201V15.33h1.492V14.128z"/>
</g>
</svg>
