<?xml version="1.0" encoding="utf-8"?>
<!-- Generator: Adobe Illustrator 15.0.0, SVG Export Plug-In . SVG Version: 6.00 Build 0)  -->
<!DOCTYPE svg PUBLIC "-//W3C//DTD SVG 1.1//EN" "http://www.w3.org/Graphics/SVG/1.1/DTD/svg11.dtd">
<svg version="1.1" id="Layer_1" xmlns="http://www.w3.org/2000/svg" xmlns:xlink="http://www.w3.org/1999/xlink" x="0px" y="0px"
	 width="132px" height="23px" viewBox="0 0 132 23" enable-background="new 0 0 132 23" xml:space="preserve">
<path fill="#00539B" d="M112.464,2.911c0-1.311,1.068-2.384,2.393-2.384c0.632,0,1.222,0.256,1.672,0.698
	c0.449,0.458,0.688,1.057,0.688,1.687c0,0.632-0.239,1.236-0.688,1.678c-0.45,0.451-1.04,0.704-1.672,0.704
	C113.532,5.293,112.464,4.226,112.464,2.911z M112.262,2.911c0,1.427,1.163,2.587,2.595,2.587c0.691,0,1.326-0.268,1.818-0.757
	c0.496-0.493,0.756-1.137,0.756-1.831c0-0.693-0.26-1.341-0.756-1.832c-0.492-0.487-1.127-0.756-1.818-0.756
	C113.425,0.323,112.262,1.483,112.262,2.911z M113.885,4.434h0.359V3.231h0.819c0.146,0,0.251,0.013,0.324,0.048
	c0.119,0.068,0.185,0.186,0.19,0.375l0.032,0.469c0,0.107,0.003,0.182,0.003,0.219c0.018,0.036,0.03,0.068,0.034,0.091h0.458V4.369
	c-0.06-0.02-0.084-0.08-0.122-0.171c-0.017-0.05-0.017-0.128-0.019-0.235l-0.017-0.375c0-0.164-0.035-0.287-0.084-0.355
	c-0.052-0.072-0.146-0.136-0.251-0.178c0.122-0.059,0.216-0.153,0.294-0.256c0.06-0.112,0.1-0.242,0.1-0.409
	c0-0.322-0.129-0.545-0.382-0.666c-0.13-0.063-0.304-0.094-0.503-0.094h-1.237V4.434z M114.244,2.911v-0.96h0.878
	c0.126,0,0.229,0.021,0.306,0.059c0.125,0.07,0.201,0.208,0.201,0.406c0,0.19-0.051,0.32-0.152,0.394
	c-0.097,0.07-0.229,0.102-0.393,0.102H114.244z M10.638,6.474L0,22.942h7.271L17.495,7.199L10.638,6.474z M54.379,6.102V0h-20.67
	c-2.812,0.176-4.043,1.501-4.964,2.458c-0.983,1.016-1.542,3.154-1.542,3.154V0.041c0,0-10.147,0-10.974,0s-1.616,0.348-2.213,1.163
	c-0.62,0.808-3.132,4.898-3.132,4.898H54.379z M110.588,6.11V0H88.47c-2.801,0.176-4.039,1.501-4.962,2.458
	c-0.98,1.016-1.536,3.154-1.536,3.154v0.49L110.588,6.11z M61.644,0.031h-6.185v6.071h6.185V0.031z M81.924,0.031h-6.169v6.071
	h6.169V0.031z M81.924,8.297l-6.07-0.361v7.047c0,0-0.018,2.029-1.999,2.029c-1.966,0-10.435,0-10.435,0s-1.765-0.143-1.765-2.009
	c0-1.864,0-8.023,0-8.023L55.52,6.542v10.806c0.994,5.183,5.721,5.585,5.721,5.585s0.481,0.03,0.562,0.038h14.094
	c0,0,6.027-0.48,6.027-6.211S81.924,8.297,81.924,8.297z M20.93,22.945h28.909c5.035-1.002,5.56-5.522,5.56-5.522
	c0.236-1.345,0.099-2.433,0.099-2.433c-0.152-0.904-1.892-4.905-5.671-5.254c-2.253-0.208-22.306-1.784-22.306-1.784
	c0.388,1.987,1.291,2.993,1.892,3.567c1.391,1.322,3.608,1.699,3.608,1.699c0.534,0.048,15.454,1.271,15.454,1.271
	c0.477,0.022,1.376,0.143,1.366,1.311c0,0.14-0.13,1.168-1.275,1.168c-1.392,0-21.624,0-21.624,0V7.902L20.93,7.467V22.945z
	 M81.972,23h22.118c5.546-0.318,6.331-5.529,6.331-5.529c0.198-1.365,0.033-2.48,0.033-2.48c-0.158-1.23-1.932-4.936-5.717-5.294
	C102.499,9.488,82.33,8.313,82.33,8.313c0.598,2.052,1.4,2.673,2.007,3.241c1.397,1.329,3.488,1.647,3.488,1.647
	c0.522,0.043,15.611,1.29,15.611,1.29c0.486,0.022,1.458,0.074,1.458,1.237c0,0.351-0.184,0.714-0.406,0.914
	c0,0-0.535,0.292-1.03,0.292c-1.394,0-21.474,0-21.474,0L81.972,23z"/>
</svg>
