<?xml version="1.0" encoding="utf-8"?>
<!-- Generator: Adobe Illustrator 15.0.0, SVG Export Plug-In . SVG Version: 6.00 Build 0)  -->
<!DOCTYPE svg PUBLIC "-//W3C//DTD SVG 1.1//EN" "http://www.w3.org/Graphics/SVG/1.1/DTD/svg11.dtd">
<svg version="1.1" id="Layer_1" xmlns="http://www.w3.org/2000/svg" xmlns:xlink="http://www.w3.org/1999/xlink" x="0px" y="0px"
	 width="73px" height="37px" viewBox="0 0 73 37" enable-background="new 0 0 73 37" xml:space="preserve">
<g>
	<path fill-rule="evenodd" clip-rule="evenodd" d="M3.964,4.339h6.182l-0.378,2H4.166c-0.723,0-1.404,0.592-1.518,1.313L2.587,8.035
		C2.472,8.756,2.974,9.349,3.694,9.349h3.377c2.26,0,2.842,1.379,2.576,3.059l-0.142,0.892c-0.265,1.679-1.726,3.058-3.533,3.058H0
		l0.378-2h5.393c0.722,0,1.403-0.591,1.518-1.313l0.06-0.383c0.115-0.721-0.387-1.313-1.107-1.313H2.866
		c-1.675,0-2.842-1.38-2.577-3.06l0.142-0.891C0.697,5.719,2.282,4.339,3.964,4.339L3.964,4.339z M15.255,4.333
		c1.705,0,3.412,0,5.118,0c1.597,0,2.679,1.304,2.406,2.901l-1.068,6.248c-0.271,1.597-1.802,2.901-3.398,2.901
		c-1.944,0-3.889,0-5.833,0l-0.748,4.325H9.54c0.776-4.49,1.549-8.982,2.318-13.474C12.129,5.638,13.66,4.333,15.255,4.333
		L15.255,4.333z M16.103,6.393h2.718c1.318,0,1.81,0.587,1.584,1.91l-0.702,4.11c-0.217,1.268-0.96,1.953-2.237,1.911h-4.623
		l1.024-6.021C14.09,6.989,14.963,6.393,16.103,6.393L16.103,6.393z M27.73,4.333c1.705,0,3.411,0,5.119,0
		c1.595,0,2.678,1.304,2.404,2.901l-0.687,4.028c-2.909,0-5.817,0-8.726,0l-0.194,1.142c-0.227,1.324,0.264,1.91,1.583,1.91h6.838
		l-0.342,2.06h-8.049c-1.597,0-2.679-1.305-2.407-2.903c0.356-2.081,0.705-4.151,1.062-6.237C24.604,5.638,26.135,4.333,27.73,4.333
		L27.73,4.333z M32.675,9.5l0.203-1.197c0.228-1.322-0.264-1.91-1.583-1.91h-2.716c-1.141,0-2.015,0.596-2.238,1.91L26.139,9.5
		H32.675L32.675,9.5z M40.119,4.333c1.704,0,3.412,0,5.117,0c1.597,0,2.68,1.304,2.408,2.901l-0.688,4.028c-2.911,0-5.819,0-8.727,0
		l-0.196,1.142c-0.224,1.324,0.267,1.91,1.583,1.91h6.84l-0.342,2.06h-8.05c-1.595,0-2.679-1.305-2.405-2.903
		c0.354-2.081,0.704-4.151,1.063-6.237C36.993,5.638,38.523,4.333,40.119,4.333L40.119,4.333z M45.063,9.5l0.205-1.197
		c0.226-1.322-0.267-1.91-1.583-1.91h-2.72c-1.14,0-2.013,0.596-2.236,1.91L38.527,9.5H45.063L45.063,9.5z M55.523,16.375
		c-1.706,0-3.411,0-5.117,0c-1.597,0-2.681-1.305-2.407-2.903l1.068-6.246c0.273-1.597,1.804-2.902,3.399-2.902
		c1.943,0,3.888,0,5.832,0L59.048,0h2.192c-0.777,4.49-1.551,8.981-2.317,13.471C58.649,15.069,57.118,16.375,55.523,16.375
		L55.523,16.375z M54.676,14.314h-2.718c-1.316,0-1.81-0.586-1.584-1.91l0.705-4.111c0.216-1.267,0.956-1.952,2.234-1.91h4.622
		l-1.024,6.021C56.688,13.718,55.815,14.314,54.676,14.314L54.676,14.314z M67.998,16.375h-5.117c-1.597,0-2.682-1.305-2.405-2.903
		l1.072-6.237c0.275-1.597,1.805-2.901,3.399-2.901c1.706,0,3.413,0,5.118,0c1.596,0,2.681,1.304,2.406,2.901l-1.073,6.237
		C71.122,15.069,69.595,16.375,67.998,16.375L67.998,16.375z M62.849,12.404c-0.228,1.323,0.267,1.91,1.583,1.91h2.72
		c1.14,0,2.009-0.597,2.235-1.91l0.711-4.102c0.229-1.321-0.266-1.91-1.584-1.91h-2.718c-1.142,0-2.01,0.597-2.237,1.91
		L62.849,12.404L62.849,12.404z"/>
	<path fill-rule="evenodd" clip-rule="evenodd" fill="#EC1C24" d="M16.429,18.478l38.872,0.148c0.641,0,1.674,0.147,1.674,1.082
		c0,0.934-0.886,1.329-1.574,1.576L6.981,36.93C6.636,37.03,5.898,37.078,5.8,36.685c-0.097-0.491,0.443-0.985,0.886-1.23
		l24.259-12.106l-14.713-3.886c-0.245-0.05-0.541-0.295-0.441-0.542C15.838,18.674,16.133,18.478,16.429,18.478L16.429,18.478z"/>
</g>
</svg>
