<svg xmlns="http://www.w3.org/2000/svg" width="88" height="50"><linearGradient id="a" gradientUnits="userSpaceOnUse" x1="-782.757" y1="-111.18" x2="-781.757" y2="-111.18" gradientTransform="scale(-72.3158) rotate(46.114 -521.395 862.36)"><stop offset="0" stop-color="#fff" stop-opacity="0"/><stop offset=".299" stop-color="#fcfdfd" stop-opacity="0"/><stop offset=".479" stop-color="#f4f4f5"/><stop offset=".627" stop-color="#e6e7e7"/><stop offset=".757" stop-color="#d2d3d5"/><stop offset=".842" stop-color="#c0c2c4"/><stop offset="1" stop-color="#c0c2c4"/></linearGradient><path fill="url(#a)" d="M87.334 50L30.196 2.481c-.288.475-.612.953-.987 1.289C27.24 5.531 7.42 23.441.05 30.045L24.084 50h63.25z"/><path fill="#f92869" d="M1.084 3.193h28v26h-28z"/><path fill="#262626" d="M24.943 2.648V0h-2v2.648h-2.375V0h-2v2.648h-2.375V0h-2v2.648h-2.375V0h-2v2.648H7.443V0h-2v2.648H0v27.604h30.252V2.648h-5.309zm3.309 25.604H2V4.648h3.443v2.268h2V4.648h2.375v2.268h2V4.648h2.375v2.268h2V4.648h2.375v2.268h2V4.648h2.375v2.268h2V4.648h3.309v23.604z"/><path fill="#262626" d="M7.084 10.123H22.77v3.941H7.084zM7.483 16.09h3.942v3.942H7.483zM13.154 15.795h3.942v3.942h-3.942zM18.827 15.795h3.942v3.942h-3.942zM7.483 20.762h3.942v3.942H7.483zM13.154 20.762h3.942v3.943h-3.942zM18.827 20.762h3.942v3.943h-3.942z"/><path fill="#FFF" d="M23.771 15.193v10.041c0 1.934 3 1.934 3 0V15.193c0-1.935-3-1.935-3 0"/></svg>