<svg xmlns="http://www.w3.org/2000/svg" viewBox="0 0 48 48"><defs><style>.cls-1{fill:#fff;}</style></defs><title>close-button</title><g id="Layer_2" data-name="Layer 2"><g id="Layer_1-2" data-name="Layer 1"><path class="cls-1" d="M34.71,14.71,25.41,24l9.29,9.29a1,1,0,1,1-1.3,1.52l-.11-.11L24,25.41,14.71,34.7a1,1,0,0,1-1.41-1.41L22.59,24,13.3,14.71a1,1,0,0,1,1.41-1.41L24,22.59l9.29-9.29a1,1,0,0,1,1.42,1.41ZM48,24A24,24,0,1,1,24,0,24,24,0,0,1,48,24Zm-2,0A22,22,0,1,0,24,46,22,22,0,0,0,46,24Z"/></g></g></svg>