<?xml version="1.0" encoding="utf-8"?>
<!-- Generator: Adobe Illustrator 15.0.0, SVG Export Plug-In . SVG Version: 6.00 Build 0)  -->
<!DOCTYPE svg PUBLIC "-//W3C//DTD SVG 1.1//EN" "http://www.w3.org/Graphics/SVG/1.1/DTD/svg11.dtd">
<svg version="1.1" id="Layer_1" xmlns="http://www.w3.org/2000/svg" xmlns:xlink="http://www.w3.org/1999/xlink" x="0px" y="0px"
	 width="80px" height="50px" viewBox="0 0 80 50" enable-background="new 0 0 80 50" xml:space="preserve">
<g>
	<g>
		<g>
			<defs>
				<path id="SVGID_1_" d="M30.731,13.108c0.375,0.625,1,0.875,1.625,2s0.375,1.625,0.25,3s-0.125,1.625-0.5,2.75s-1,0.625-2,1.25
					s-1.75,0.5-2.75,0.75s-1.875,0.375-3.125,0.25s-1.5,0.125-2.5,1.25s-2,1-3.875,1.625c-1.037,0.347-3.37-0.109-5.567-0.566
					c-1.779-0.369-3.47-0.739-4.308-0.683c-0.055,0.004-0.119,0.007-0.189,0.01L36.73,48.857h38.875L31.235,11.882
					C30.859,12.385,30.543,12.794,30.731,13.108"/>
			</defs>
			<clipPath id="SVGID_2_">
				<use xlink:href="#SVGID_1_"  overflow="visible"/>
			</clipPath>

				<linearGradient id="SVGID_3_" gradientUnits="userSpaceOnUse" x1="-832.8291" y1="-106.2539" x2="-831.8291" y2="-106.2539" gradientTransform="matrix(-43.0731 -44.7808 44.7808 -43.0731 -31049.0664 -41816.4805)">
				<stop  offset="0" style="stop-color:#FFFFFF;stop-opacity:0"/>
				<stop  offset="0.2993" style="stop-color:#FCFDFD;stop-opacity:0"/>
				<stop  offset="0.4789" style="stop-color:#F4F4F5"/>
				<stop  offset="0.6268" style="stop-color:#E6E7E7"/>
				<stop  offset="0.7569" style="stop-color:#D2D3D5"/>
				<stop  offset="0.8416" style="stop-color:#C0C2C4"/>
				<stop  offset="1" style="stop-color:#C0C2C4"/>
			</linearGradient>
			<polygon clip-path="url(#SVGID_2_)" fill="url(#SVGID_3_)" points="40.381,82.738 -10.682,29.652 43.016,-21.999 94.08,31.089
							"/>
		</g>
	</g>
	<path fill="#FFDD15" d="M4.793,9.795c0,0-0.375,8.313,0,9.125c0.375,0.813,5,6.813,6.875,7.188s6.625,0,7.875-0.625
		c1.25-0.625,2.5-1.438,3.125-1.938s1.25-1.062,1.812-2.875c0.563-1.812,0.75-3.563,0.813-4.313c0.062-0.75-0.25-3.437,0-3.874
		c0.25-0.438,0.009-2.188,0.009-2.188L4.793,9.795z"/>
	<path fill="#262626" d="M26.927,24.115c3.717,0,6.74-3.024,6.74-6.741s-3.023-6.741-6.74-6.741h-0.774V8.869H4v8.009
		c0,5.693,4.615,10.308,10.309,10.308h1.535c2.9,0,5.516-1.201,7.389-3.127v0.057H26.927z M26.927,12.604
		c2.631,0,4.769,2.139,4.769,4.77c0,2.63-2.138,4.77-4.769,4.77h-2.231c0.919-1.542,1.457-3.339,1.457-5.266v-4.274H26.927z
		 M15.844,25.215h-1.535c-4.597,0-8.337-3.74-8.337-8.337V10.84h18.21v6.038C24.182,21.475,20.442,25.215,15.844,25.215"/>
	<path fill="#262626" d="M8.591,0.993v4.934c0,0.549,0.444,0.993,0.993,0.993s0.992-0.444,0.992-0.993V0.993
		C10.576,0.444,10.133,0,9.584,0S8.591,0.444,8.591,0.993"/>
	<path fill="#262626" d="M13.698,0.993v4.934c0,0.549,0.444,0.993,0.993,0.993c0.549,0,0.993-0.444,0.993-0.993V0.993
		C15.684,0.444,15.24,0,14.691,0C14.142,0,13.698,0.444,13.698,0.993"/>
	<path fill="#262626" d="M18.805,0.993v4.934c0,0.549,0.442,0.993,0.992,0.993c0.55,0,0.993-0.444,0.993-0.993V0.993
		C20.79,0.444,20.347,0,19.797,0C19.247,0,18.805,0.444,18.805,0.993"/>
	<path fill="#FFFFFF" d="M19.169,18.431c-0.042,1.542-1.22,2.72-2.762,2.761c-1.93,0.052-1.935,3.052,0,3
		c3.196-0.086,5.676-2.565,5.762-5.761C22.221,16.495,19.221,16.5,19.169,18.431"/>
</g>
</svg>
