<?xml version="1.0" encoding="utf-8"?>
<!-- Generator: Adobe Illustrator 15.0.0, SVG Export Plug-In . SVG Version: 6.00 Build 0)  -->
<!DOCTYPE svg PUBLIC "-//W3C//DTD SVG 1.1//EN" "http://www.w3.org/Graphics/SVG/1.1/DTD/svg11.dtd">
<svg version="1.1" id="Layer_1" xmlns="http://www.w3.org/2000/svg" xmlns:xlink="http://www.w3.org/1999/xlink" x="0px" y="0px"
	 width="74px" height="50px" viewBox="0 0 74 50" enable-background="new 0 0 74 50" xml:space="preserve">
<g>
	<g>
		<g>
			<g>
				<defs>
					<polygon id="SVGID_1_" points="0,30 24,50 74,50 29.781,13.15 					"/>
				</defs>
				<clipPath id="SVGID_2_">
					<use xlink:href="#SVGID_1_"  overflow="visible"/>
				</clipPath>

					<linearGradient id="SVGID_3_" gradientUnits="userSpaceOnUse" x1="-791.7168" y1="146.626" x2="-790.7177" y2="146.626" gradientTransform="matrix(-43.9576 -45.7004 -45.7004 43.9576 -28039.0723 -42569.4336)">
					<stop  offset="0" style="stop-color:#FFFFFF;stop-opacity:0"/>
					<stop  offset="0.2993" style="stop-color:#FCFDFD;stop-opacity:0"/>
					<stop  offset="0.4789" style="stop-color:#F4F4F5;stop-opacity:0"/>
					<stop  offset="0.6268" style="stop-color:#E6E7E7"/>
					<stop  offset="0.7569" style="stop-color:#D2D3D5"/>
					<stop  offset="0.8416" style="stop-color:#C0C2C4"/>
					<stop  offset="1" style="stop-color:#C0C2C4"/>
				</linearGradient>
				<polygon clip-path="url(#SVGID_2_)" fill="url(#SVGID_3_)" points="35.563,86.973 -18.411,30.859 38.438,-23.822 92.411,32.291
									"/>
			</g>
		</g>
	</g>
	<line fill="none" stroke="#FFFFFF" stroke-miterlimit="10" x1="24.5" y1="15" x2="24.5" y2="25"/>
	<polygon fill="#EAEAEA" points="1,1 1,29 29,29 29,13 16.202,0.203 	"/>
	<path fill="#FFFFFF" d="M23,17v8c0,1.936,3,1.936,3,0v-8C26,15.065,23,15.065,23,17"/>
	<path fill="#262626" d="M30,13.027L17.006,0H0v30h30V13.027z M28.021,28.018H1.979V1.984h14.209l0.381,0.382v11.049h11.02
		l0.434,0.434v14.168H28.021L28.021,28.018z"/>
</g>
</svg>
