<?xml version="1.0" encoding="utf-8"?>
<!-- Generator: Adobe Illustrator 15.0.0, SVG Export Plug-In . SVG Version: 6.00 Build 0)  -->
<!DOCTYPE svg PUBLIC "-//W3C//DTD SVG 1.1//EN" "http://www.w3.org/Graphics/SVG/1.1/DTD/svg11.dtd">
<svg version="1.1" id="Layer_1" xmlns="http://www.w3.org/2000/svg" xmlns:xlink="http://www.w3.org/1999/xlink" x="0px" y="0px"
	 width="40px" height="40px" viewBox="0 0 40 40" enable-background="new 0 0 40 40" xml:space="preserve">
<polygon fill="#FFFFFF" points="30.803,4.277 20.728,4.277 20.728,9.077 30.803,9.077 30.803,11.749 37.426,6.677 30.803,1.606 "/>
<path fill="none" d="M30.648,18.05c0-4.544-7.052-4.955-7.052-0.407c0-6.472-6.869-5.342-6.869-1.118V4.864
	c0-1.896-1.538-3.435-3.435-3.435S9.858,2.967,9.858,4.864v28.943c0,2.631,2.133,4.764,4.764,4.764H32.57
	c2.631,0,4.765-2.133,4.765-4.764v-14.65C37.335,15.29,31.895,14.388,30.648,18.05"/>
<path fill="#FFFFFF" d="M32.57,40H14.623c-3.415,0-6.193-2.778-6.193-6.193V4.864C8.429,2.182,10.611,0,13.293,0
	s4.864,2.182,4.864,4.864v7.218c0.631-0.284,1.319-0.438,2.008-0.438c1.484,0,2.976,0.697,3.908,2.192
	c0.791-0.541,1.772-0.834,2.813-0.834c1.606,0,3.278,0.721,4.277,2.096c0.765-0.514,1.687-0.797,2.692-0.797
	c1.25,0,2.438,0.446,3.344,1.256c1.01,0.901,1.564,2.18,1.564,3.599v14.65C38.764,37.222,35.985,40,32.57,40 M13.293,2.859
	c-1.105,0-2.005,0.899-2.005,2.005v28.943c0,1.838,1.496,3.334,3.335,3.334H32.57c1.839,0,3.335-1.496,3.335-3.334v-14.65
	c0-1.372-1.063-1.997-2.05-1.997c-0.42,0-1.439,0.131-1.854,1.351c-0.225,0.662-0.896,1.064-1.586,0.95
	c-0.69-0.114-1.196-0.711-1.196-1.41c0-1.732-1.526-2.19-2.334-2.19c-0.437,0-1.86,0.129-1.86,1.784c0,0.789-0.64,1.429-1.429,1.429
	c-0.79,0-1.429-0.64-1.429-1.429c0-1.967-0.75-3.141-2.003-3.141c-0.987,0-2.008,0.756-2.008,2.022c0,0.79-0.64,1.43-1.429,1.43
	c-0.79,0-1.429-0.64-1.429-1.43V4.864C15.298,3.758,14.398,2.859,13.293,2.859"/>
<g>
	<path fill="#FFFFFF" d="M8.521,34.041l0.146-1.146L3.231,27.23c-0.379-0.379-0.48-0.883-0.48-1.418
		c0-0.536,0.262-1.039,0.641-1.418c0.379-0.379,0.909-0.588,1.445-0.588s0.838,0.209,1.217,0.588l2.676,2.959l0.021-4.208
		l-0.661-0.772c-0.919-0.919-2.033-1.425-3.333-1.425s-2.467,0.506-3.385,1.425c-0.919,0.918-1.398,2.14-1.398,3.439
		c0,1.299,0.52,2.521,1.438,3.439l8.625,8.712C9.283,36.938,8.521,35.408,8.521,34.041z"/>
</g>
</svg>
