<?xml version="1.0" encoding="utf-8"?>
<!-- Generator: Adobe Illustrator 15.0.0, SVG Export Plug-In . SVG Version: 6.00 Build 0)  -->
<!DOCTYPE svg PUBLIC "-//W3C//DTD SVG 1.0//EN" "http://www.w3.org/TR/2001/REC-SVG-20010904/DTD/svg10.dtd">
<svg version="1.0" id="Layer_1" xmlns="http://www.w3.org/2000/svg" xmlns:xlink="http://www.w3.org/1999/xlink" x="0px" y="0px"
	 width="30px" height="30px" viewBox="0 0 30 30" enable-background="new 0 0 30 30" xml:space="preserve">
<path d="M21.81,11.189c-0.586-0.586-1.535-0.586-2.121,0l-4.689,4.689l-4.688-4.688c-0.586-0.586-1.535-0.586-2.121,0
	c-0.586,0.585-0.586,1.535,0,2.121l5.656,5.657c0.293,0.293,0.677,0.439,1.061,0.439c0.032,0,0.063-0.017,0.095-0.019
	c0.03,0.002,0.06,0.018,0.09,0.018c0.384,0,0.768-0.146,1.061-0.439l5.657-5.657C22.396,12.725,22.396,11.775,21.81,11.189z"/>
</svg>
