<svg xmlns="http://www.w3.org/2000/svg" viewBox="0 0 162 42.22"><defs><style>.cls-1{fill:#fff;}.cls-2{fill:#ffdd06;}</style></defs><title>Asset 1</title><g id="Layer_2" data-name="Layer 2"><g id="Layer_1-2" data-name="Layer 1"><path class="cls-1" d="M53.42,12.14a.55.55,0,0,1,.53-.56h7a10.32,10.32,0,1,1,0,20.64h-7a.55.55,0,0,1-.53-.56Zm7.17,16.48a6.51,6.51,0,0,0,6.63-6.75,6.5,6.5,0,0,0-6.63-6.72H57.22V28.62Z"/><path class="cls-1" d="M82.15,42.22H39.95V0h42.2V42.22Zm-39.9-2.29H79.85V2.29H42.24V39.92Z"/><path class="cls-1" d="M42.23,42.22H0V0H42.23V42.22ZM2.29,39.92H39.94V2.29H2.29V39.92Z"/><path class="cls-1" d="M14.88,12.33a.56.56,0,0,1,.56-.56h12a.56.56,0,0,1,.56.56v2.42a.56.56,0,0,1-.56.56H18.71v4.84H26a.58.58,0,0,1,.56.56v2.45a.56.56,0,0,1-.56.56H18.71v5.16h8.73a.56.56,0,0,1,.56.56v2.42a.56.56,0,0,1-.56.56h-12a.56.56,0,0,1-.56-.56Z"/><path class="cls-1" d="M122.06,42.22H79.85V0h42.21V42.22ZM82.14,39.92h37.63V2.29H82.14V39.92Z"/><path class="cls-1" d="M99.58,12.2a.58.58,0,0,1,.56-.56h2.74a.58.58,0,0,1,.56.56V31.71a.58.58,0,0,1-.56.56h-2.74a.58.58,0,0,1-.56-.56Z"/><path class="cls-1" d="M162,42.22H119.77V0H162V42.22Zm-39.94-2.29h37.64V2.29H122.06V39.92Z"/><path class="cls-1" d="M139,15h-4.51a.56.56,0,0,1-.56-.56V12a.56.56,0,0,1,.56-.56h12.88a.56.56,0,0,1,.56.56v2.42a.56.56,0,0,1-.56.56h-4.51V31.53a.58.58,0,0,1-.56.56h-2.74a.58.58,0,0,1-.56-.56Z"/><path class="cls-2" d="M151,27.52A2.48,2.48,0,0,1,153.4,30,2.43,2.43,0,1,1,151,27.52Z"/></g></g></svg>