<?xml version="1.0" encoding="utf-8"?>
<!-- Generator: Adobe Illustrator 15.0.0, SVG Export Plug-In . SVG Version: 6.00 Build 0)  -->
<!DOCTYPE svg PUBLIC "-//W3C//DTD SVG 1.1//EN" "http://www.w3.org/Graphics/SVG/1.1/DTD/svg11.dtd">
<svg version="1.1" id="Layer_1" xmlns="http://www.w3.org/2000/svg" xmlns:xlink="http://www.w3.org/1999/xlink" x="0px" y="0px"
	 width="30px" height="30px" viewBox="0 0 30 30" enable-background="new 0 0 30 30" xml:space="preserve">
<path d="M8.191,18.968c0.586,0.586,1.535,0.586,2.121,0l4.689-4.689l4.688,4.688c0.586,0.586,1.535,0.586,2.121,0
	c0.586-0.585,0.586-1.535,0-2.121l-5.656-5.657c-0.293-0.293-0.677-0.439-1.061-0.439c-0.032,0-0.063,0.017-0.095,0.019
	c-0.03-0.002-0.06-0.018-0.09-0.018c-0.384,0-0.769,0.146-1.062,0.439l-5.656,5.657C7.605,17.432,7.605,18.382,8.191,18.968z"/>
</svg>
