<?xml version="1.0" encoding="utf-8"?>
<!-- Generator: Adobe Illustrator 18.0.0, SVG Export Plug-In . SVG Version: 6.00 Build 0)  -->
<!DOCTYPE svg PUBLIC "-//W3C//DTD SVG 1.1//EN" "http://www.w3.org/Graphics/SVG/1.1/DTD/svg11.dtd">
<svg version="1.1" id="Layer_1" xmlns="http://www.w3.org/2000/svg" xmlns:xlink="http://www.w3.org/1999/xlink" x="0px" y="0px"
	 viewBox="0 0 178 37" enable-background="new 0 0 178 37" xml:space="preserve">
<path fill="#FFFFFF" enable-background="new    " d="M84,37C84,18.3,70.3,0,47,0v10c17.5,0,27,13.7,27,27H84z"/>
<path fill="#FFFFFF" enable-background="new    " d="M0,0c0,18.7,13.7,37,37,37V27C19.5,27,10,13.3,10,0H0z"/>
<path fill="#FFFFFF" enable-background="new    " d="M94,37c18.7,0,37-13.7,37-37h-10c0,17.5-13.7,27-27,27V37z"/>
<path fill="#FFFFFF" enable-background="new    " d="M178,0c-18.7,0-37,13.7-37,37h10c0-17.5,13.7-27,27-27V0z"/>
</svg>
