<?xml version="1.0" encoding="utf-8"?>
<!-- Generator: Adobe Illustrator 15.0.0, SVG Export Plug-In . SVG Version: 6.00 Build 0)  -->
<!DOCTYPE svg PUBLIC "-//W3C//DTD SVG 1.1//EN" "http://www.w3.org/Graphics/SVG/1.1/DTD/svg11.dtd">
<svg version="1.1" id="Layer_1" xmlns="http://www.w3.org/2000/svg" xmlns:xlink="http://www.w3.org/1999/xlink" x="0px" y="0px"
	 width="178px" height="37px" viewBox="0 0 178 37" enable-background="new 0 0 178 37" xml:space="preserve">
<path opacity="0.2" fill="#FFFFFF" d="M84,37C84,18.333,70.334,0,47,0v10c17.501,0,27,13.666,27,27H84z"/>
<path opacity="0.2" fill="#FFFFFF" d="M0,0c0,18.667,13.666,37,37,37V27C19.499,27,10,13.334,10,0H0z"/>
<path opacity="0.2" fill="#FFFFFF" d="M94,37c18.666,0,37-13.666,37-37h-10c0,17.501-13.666,27-27,27V37z"/>
<path opacity="0.2" fill="#FFFFFF" d="M178,0c-18.666,0-37,13.666-37,37h10c0-17.501,13.666-27,27-27V0z"/>
</svg>
