<?xml version="1.0" encoding="utf-8"?>
<!-- Generator: Adobe Illustrator 15.0.0, SVG Export Plug-In . SVG Version: 6.00 Build 0)  -->
<!DOCTYPE svg PUBLIC "-//W3C//DTD SVG 1.0//EN" "http://www.w3.org/TR/2001/REC-SVG-20010904/DTD/svg10.dtd">
<svg version="1.0" id="Layer_1" xmlns="http://www.w3.org/2000/svg" xmlns:xlink="http://www.w3.org/1999/xlink" x="0px" y="0px"
	 width="42px" height="42px" viewBox="0 0 42 42" enable-background="new 0 0 42 42" xml:space="preserve">
<g>
	<path fill="#1A171B" d="M42,42.001H0V0h42V42.001L42,42.001z M2.282,39.718h37.435V2.283H2.282V39.718L2.282,39.718z"/>
</g>
<g>
	<path fill="#1A171B" d="M19.105,14.349h-4.425c-0.318,0-0.55-0.261-0.55-0.55v-2.371c0-0.289,0.231-0.55,0.55-0.55h12.64
		c0.316,0,0.549,0.261,0.549,0.55v2.371c0,0.289-0.232,0.55-0.549,0.55h-4.426v16.225c0,0.289-0.26,0.549-0.55,0.549h-2.69
		c-0.288,0-0.549-0.26-0.549-0.549V14.349z"/>
	<path fill="#FFDD00" d="M30.865,26.496c1.301,0,2.4,1.1,2.4,2.4s-1.1,2.371-2.4,2.371c-1.303,0-2.372-1.07-2.372-2.371
		S29.563,26.496,30.865,26.496z"/>
</g>
</svg>
