<?xml version="1.0" encoding="utf-8"?>
<!-- Generator: Adobe Illustrator 15.0.0, SVG Export Plug-In . SVG Version: 6.00 Build 0)  -->
<!DOCTYPE svg PUBLIC "-//W3C//DTD SVG 1.0//EN" "http://www.w3.org/TR/2001/REC-SVG-20010904/DTD/svg10.dtd">
<svg version="1.0" id="Layer_1" xmlns="http://www.w3.org/2000/svg" xmlns:xlink="http://www.w3.org/1999/xlink" x="0px" y="0px"
	 width="42px" height="42px" viewBox="0 0 42 42" enable-background="new 0 0 42 42" xml:space="preserve">
<g>
	<path fill="#1A171B" d="M42,42.001H0V0h42V42.001L42,42.001z M2.282,39.718h37.435V2.283H2.282V39.718L2.282,39.718z"/>
</g>
<g>
	<path fill="#1A171B" d="M12.112,11.291c0-0.293,0.234-0.558,0.528-0.558h6.952c5.662,0,10.297,4.606,10.297,10.238
		c0,5.69-4.635,10.296-10.297,10.296H12.64c-0.293,0-0.528-0.264-0.528-0.558V11.291z M19.24,27.689c3.813,0,6.6-2.875,6.6-6.718
		c0-3.813-2.787-6.688-6.6-6.688h-3.344v13.405H19.24z"/>
</g>
</svg>
