<?xml version="1.0" encoding="utf-8"?>
<!-- Generator: Adobe Illustrator 15.0.0, SVG Export Plug-In . SVG Version: 6.00 Build 0)  -->
<!DOCTYPE svg PUBLIC "-//W3C//DTD SVG 1.1//EN" "http://www.w3.org/Graphics/SVG/1.1/DTD/svg11.dtd">
<svg version="1.1" xmlns="http://www.w3.org/2000/svg" xmlns:xlink="http://www.w3.org/1999/xlink" x="0px" y="0px" width="20px"
	 height="20px" viewBox="0 0 20 20" enable-background="new 0 0 20 20" xml:space="preserve">
<g id="activeLayer">
	<path fill="#FFDD15" d="M18.5,6.813c0,3.534-2.876,6.396-6.422,6.396c-3.545,0-6.419-2.863-6.419-6.396
		c0-3.532,2.874-6.396,6.419-6.396C15.624,0.417,18.5,3.281,18.5,6.813"/>
	<path fill="#FFFFFF" d="M13.727,7.477c-0.023,0.874-0.729,1.579-1.604,1.603c-1.929,0.052-1.934,3.051,0,3
		c2.553-0.07,4.535-2.052,4.604-4.604C16.779,5.541,13.779,5.545,13.727,7.477"/>
</g>
<g id="Layer_1">
	<path fill="#020202" d="M6.398,9.79C6.283,9.86,6.163,9.923,6.062,10.024L0.5,15.584c-0.613,0.615-0.671,1.553-0.129,2.098
		l0.985,0.982c0.543,0.543,1.482,0.486,2.095-0.127l5.561-5.563c0.122-0.122,0.205-0.263,0.282-0.404
		C8.056,11.975,7.038,10.999,6.398,9.79z"/>
	<path fill="#020202" d="M11.83,2c3.021,0,5.479,2.458,5.479,5.479c0,3.02-2.457,5.478-5.479,5.478
		c-3.021,0-5.479-2.458-5.479-5.478C6.352,4.458,8.81,2,11.83,2 M11.83,0C7.701,0,4.352,3.348,4.352,7.479
		c0,4.128,3.349,7.478,7.479,7.478c4.13,0,7.479-3.35,7.479-7.478C19.309,3.348,15.96,0,11.83,0"/>
</g>
</svg>
