<?xml version="1.0" encoding="utf-8"?>
<!-- Generator: Adobe Illustrator 15.0.0, SVG Export Plug-In . SVG Version: 6.00 Build 0)  -->
<!DOCTYPE svg PUBLIC "-//W3C//DTD SVG 1.1//EN" "http://www.w3.org/Graphics/SVG/1.1/DTD/svg11.dtd">
<svg version="1.1" id="Layer_1" xmlns="http://www.w3.org/2000/svg" xmlns:xlink="http://www.w3.org/1999/xlink" x="0px" y="0px"
	 width="30px" height="30px" viewBox="0 0 30 30" enable-background="new 0 0 30 30" xml:space="preserve">
<g>
	<path fill-rule="evenodd" clip-rule="evenodd" d="M1.012,30V15.703C0.937,13.65,1.226,11.719,1.87,9.9
		c0.644-1.8,1.559-3.384,2.725-4.763C5.761,3.778,7.15,2.653,8.783,1.744C10.398,0.834,12.161,0.262,14.074,0v6.3
		c-2.361,0.834-3.984,2.062-4.852,3.675c-0.877,1.622-1.296,3.619-1.296,5.962h6.148V30H1.012z"/>
	<path fill-rule="evenodd" clip-rule="evenodd" d="M15.94,30V15.703c-0.075-2.053,0.214-3.984,0.857-5.803
		c0.644-1.8,1.559-3.384,2.725-4.763c1.166-1.359,2.556-2.484,4.188-3.394C25.325,0.834,27.089,0.262,29,0v6.3
		c-2.359,0.834-3.982,2.062-4.852,3.675c-0.878,1.622-1.296,3.619-1.296,5.962H29V30H15.94z"/>
</g>
</svg>
