<?xml version="1.0" encoding="utf-8"?>
<!-- Generator: Adobe Illustrator 15.0.0, SVG Export Plug-In . SVG Version: 6.00 Build 0)  -->
<!DOCTYPE svg PUBLIC "-//W3C//DTD SVG 1.1//EN" "http://www.w3.org/Graphics/SVG/1.1/DTD/svg11.dtd">
<svg version="1.1" id="Layer_1" xmlns="http://www.w3.org/2000/svg" xmlns:xlink="http://www.w3.org/1999/xlink" x="0px" y="0px"
	 width="26px" height="26px" viewBox="0 0 26 26" enable-background="new 0 0 26 26" xml:space="preserve">
<g>
	<path fill-rule="evenodd" clip-rule="evenodd" fill="#F1EDE7" d="M2,5.5v11.25h3.26c0.55,0,1,0.45,1,1v1.68l3.12-2.469
		C9.56,16.82,9.78,16.75,10,16.75h10.25V5.5H2z M5.26,22.5c-0.15,0-0.3-0.029-0.44-0.1c-0.35-0.17-0.56-0.52-0.56-0.9v-2.75H2
		c-1.1,0-2-0.9-2-2V5.5c0-1.1,0.9-2,2-2h18.25c1.111,0,2,0.9,2,2v11.25c0,1.1-0.889,2-2,2h-9.9l-4.47,3.53
		C5.7,22.43,5.48,22.5,5.26,22.5z"/>
	<path fill="#F1EDE7" d="M17,10H5.75c-0.27,0-0.5-0.22-0.5-0.5c0-0.28,0.23-0.5,0.5-0.5H17c0.281,0,0.5,0.22,0.5,0.5
		C17.5,9.78,17.281,10,17,10z"/>
	<path fill="#F1EDE7" d="M17,13.08H5.75c-0.27,0-0.5-0.22-0.5-0.5c0-0.27,0.23-0.5,0.5-0.5H17c0.281,0,0.5,0.23,0.5,0.5
		C17.5,12.86,17.281,13.08,17,13.08z"/>
</g>
</svg>
