<?xml version="1.0" encoding="utf-8"?>
<!-- Generator: Adobe Illustrator 15.0.0, SVG Export Plug-In . SVG Version: 6.00 Build 0)  -->
<!DOCTYPE svg PUBLIC "-//W3C//DTD SVG 1.1//EN" "http://www.w3.org/Graphics/SVG/1.1/DTD/svg11.dtd">
<svg version="1.1" id="Layer_1" xmlns="http://www.w3.org/2000/svg" xmlns:xlink="http://www.w3.org/1999/xlink" x="0px" y="0px"
	 width="80px" height="50px" viewBox="0 0 80 50" enable-background="new 0 0 80 50" xml:space="preserve">
<g>
	<g>
		<defs>
			<path id="SVGID_1_" d="M19.875,4.993c0,0-2.25,13.125-13,21c-2.22,1.627-4.258,2.902-6.116,3.924L25,50.118h53.375L21.015,2.319
				L19.875,4.993z"/>
		</defs>
		<clipPath id="SVGID_2_">
			<use xlink:href="#SVGID_1_"  overflow="visible"/>
		</clipPath>
		
			<linearGradient id="SVGID_3_" gradientUnits="userSpaceOnUse" x1="-860.6353" y1="135.1602" x2="-859.6353" y2="135.1602" gradientTransform="matrix(-49.6436 -51.6118 -51.6118 49.6436 -35681.1758 -51072.8945)">
			<stop  offset="0" style="stop-color:#FFFFFF"/>
			<stop  offset="0.2993" style="stop-color:#FCFDFD"/>
			<stop  offset="0.4789" style="stop-color:#F4F4F5"/>
			<stop  offset="0.6268" style="stop-color:#E6E7E7"/>
			<stop  offset="0.7569" style="stop-color:#D2D3D5"/>
			<stop  offset="0.8416" style="stop-color:#C0C2C4"/>
			<stop  offset="1" style="stop-color:#C0C2C4"/>
		</linearGradient>
		<polygon clip-path="url(#SVGID_2_)" fill="url(#SVGID_3_)" points="38.058,88.896 -23.123,25.29 41.074,-36.459 102.256,27.147 		
			"/>
	</g>
	<path fill="#FFDD15" d="M11.772,1.576L8.796,4.027c0,0-1.749,2.362-1.662,2.887c0.087,0.525,0.169,3.413-0.003,4.026
		c-0.172,0.613,0.878,2.713,1.053,2.975c0.175,0.263,0.7,1.225,0.7,1.576c0,0.35-1.225,1.4-2.188,2.1
		c-0.963,0.7-2.45,1.838-2.975,2.625c-0.525,0.788-1.137,1.925-1.575,3.238s-1.313,2.889-1.313,3.326s0.438,1.313,0.962,1.225
		c0.525-0.088,19.953,0.438,20.391,0.525s3.675,0.174,4.463,0c0.788-0.176,2.713-0.176,2.801-0.438c0.087-0.263,0.35-2.188,0-2.801
		c-0.351-0.612-0.788-2.538-0.963-2.8c-0.175-0.263-0.613-1.489-1.313-2.364c-0.7-0.874-1.312-2.275-2.188-2.537
		c-0.875-0.263-2.625-1.576-2.887-1.663c-0.263-0.087-0.963-0.437-0.963-0.437s0.787-0.788,1.137-1.313
		c0.351-0.525,0.613-1.838,0.788-2.101c0.175-0.262,0.263-1.837,0.263-2.1c0-0.262-0.263-2.713-0.351-3.063
		c-0.087-0.35-0.7-2.1-1.05-2.45l-1.575-1.576l-2.8-1.312c0,0-2.046-0.525-2.248-0.525C15.097,1.051,11.772,1.576,11.772,1.576"/>
	<path fill="#FFDD15" d="M18.583,20.478c0.155,0.052,3.248,0.876,4.743,4.64"/>
	<path fill="#FFFFFF" d="M18.184,21.924c0.144,0.045,0.286,0.094,0.427,0.148c-0.413-0.158,0.105,0.053,0.181,0.091
		c0.235,0.115,0.459,0.249,0.68,0.388c1.081,0.68,1.92,1.793,2.408,2.966c0.314,0.754,0.981,1.284,1.845,1.047
		c0.713-0.196,1.362-1.089,1.047-1.845c-1.092-2.627-3.019-4.816-5.79-5.688C17.131,18.449,16.345,21.346,18.184,21.924"/>
	<path fill="#262626" d="M0,27.956c0,0.289,0.022,0.57,0.043,0.854l0.01,0.125C0.1,29.57,0.612,30.06,1.227,30.06h27.515
		c0.616,0,1.128-0.489,1.177-1.125l0.009-0.125c0.02-0.283,0.042-0.564,0.042-0.854c0-5.273-3.048-9.985-7.899-12.421
		c1.256-1.677,1.954-3.746,1.954-5.894C24.025,4.325,19.843,0,14.701,0C9.56,0,5.377,4.325,5.377,9.641
		c0,2.253,0.753,4.399,2.107,6.107C2.887,18.248,0,22.877,0,27.956 M9.94,17.266c0.389-0.158,0.669-0.516,0.734-0.943
		c0.067-0.426-0.089-0.857-0.412-1.133c-1.605-1.372-2.526-3.395-2.526-5.549c0-3.971,3.125-7.202,6.965-7.202
		c3.84,0,6.966,3.231,6.966,7.202c0,2.073-0.873,4.048-2.391,5.421c-0.315,0.285-0.46,0.72-0.382,1.145
		c0.078,0.426,0.369,0.776,0.762,0.92c4.72,1.743,7.81,5.837,7.951,10.495H2.364C2.503,23.121,5.446,19.082,9.94,17.266"/>
</g>
</svg>
