<?xml version="1.0" encoding="utf-8"?>
<!-- Generator: Adobe Illustrator 15.0.0, SVG Export Plug-In . SVG Version: 6.00 Build 0)  -->
<!DOCTYPE svg PUBLIC "-//W3C//DTD SVG 1.1//EN" "http://www.w3.org/Graphics/SVG/1.1/DTD/svg11.dtd">
<svg version="1.1" id="Layer_1" xmlns="http://www.w3.org/2000/svg" xmlns:xlink="http://www.w3.org/1999/xlink" x="0px" y="0px"
	 width="30px" height="30px" viewBox="0 0 30 30" enable-background="new 0 0 30 30" xml:space="preserve">
<path fill="#FFFFFF" d="M21.133,6.691c-1.198-0.57-2.626-0.066-3.199,1.125l-4.433,9.233l-1.905-1.896
	c-0.936-0.933-2.456-0.933-3.393,0c-0.938,0.932-0.938,2.444,0,3.377l4.251,4.229c0.469,0.467,1.082,0.697,1.697,0.697
	c0.158,0,0.307-0.059,0.462-0.09c0.121-0.019,0.241-0.035,0.358-0.068c0.059-0.021,0.114-0.049,0.171-0.077
	c0.535-0.216,1.003-0.604,1.271-1.161l5.853-12.188C22.837,8.684,22.328,7.26,21.133,6.691z"/>
</svg>
