<?xml version="1.0" encoding="utf-8"?>
<!-- Generator: Adobe Illustrator 15.0.0, SVG Export Plug-In . SVG Version: 6.00 Build 0)  -->
<!DOCTYPE svg PUBLIC "-//W3C//DTD SVG 1.1//EN" "http://www.w3.org/Graphics/SVG/1.1/DTD/svg11.dtd">
<svg version="1.1" id="Layer_1" xmlns="http://www.w3.org/2000/svg" xmlns:xlink="http://www.w3.org/1999/xlink" x="0px" y="0px"
	 width="110px" height="30px" viewBox="0 0 110 30" enable-background="new 0 0 110 30" xml:space="preserve">
<path d="M18.897,13.803l-5.656-5.656c-0.586-0.586-1.536-0.586-2.121,0c-0.586,0.586-0.586,1.536,0,2.121L15.854,15l-4.734,4.734
	c-0.586,0.586-0.586,1.534,0,2.12c0.293,0.293,0.677,0.438,1.061,0.438c0.384,0,0.768-0.146,1.061-0.438l5.657-5.655
	c0.328-0.33,0.452-0.77,0.412-1.199C19.351,14.572,19.227,14.132,18.897,13.803z"/>
<path d="M58.834,9.896c-0.749-0.358-1.643-0.041-2,0.707l-2.771,5.801l-1.191-1.191c-0.585-0.586-1.535-0.586-2.121,0
	c-0.586,0.585-0.586,1.535,0,2.121l2.657,2.657c0.293,0.293,0.677,0.439,1.061,0.439c0.099,0,0.192-0.037,0.289-0.057
	c0.076-0.012,0.151-0.021,0.224-0.043c0.037-0.014,0.071-0.031,0.107-0.048c0.335-0.135,0.627-0.379,0.795-0.73l3.657-7.657
	C59.898,11.148,59.581,10.253,58.834,9.896z"/>
<g>
	<g>
		<path d="M95,19c-0.828,0-1.5-0.672-1.5-1.5v-10C93.5,6.671,94.172,6,95,6s1.5,0.671,1.5,1.5v10C96.5,18.328,95.828,19,95,19z"/>
	</g>
	<g>
		<path d="M95,24c-0.4,0-0.78-0.16-1.061-0.44C93.66,23.28,93.5,22.899,93.5,22.5c0-0.4,0.16-0.78,0.439-1.061
			c0.561-0.56,1.561-0.56,2.12,0c0.28,0.28,0.44,0.66,0.44,1.061c0,0.399-0.16,0.78-0.44,1.06C95.78,23.84,95.399,24,95,24z"/>
	</g>
</g>
</svg>
