<?xml version="1.0" encoding="utf-8"?>
<!-- Generator: Adobe Illustrator 15.0.0, SVG Export Plug-In . SVG Version: 6.00 Build 0)  -->
<!DOCTYPE svg PUBLIC "-//W3C//DTD SVG 1.1//EN" "http://www.w3.org/Graphics/SVG/1.1/DTD/svg11.dtd">
<svg version="1.1" id="Layer_1" xmlns="http://www.w3.org/2000/svg" xmlns:xlink="http://www.w3.org/1999/xlink" x="0px" y="0px"
	 width="34px" height="34px" viewBox="0 0 34 34" enable-background="new 0 0 34 34" xml:space="preserve">
<path fill-rule="evenodd" clip-rule="evenodd" fill="#FFFFFF" d="M25.5,24.65h-3.76v-5.38c0-1.41-0.58-2.37-1.881-2.37
	c-0.989,0-1.539,0.649-1.789,1.28c-0.1,0.22-0.08,0.529-0.08,0.85v5.62h-3.73c0,0,0.05-9.53,0-10.391h3.73v1.63
	c0.22-0.72,1.41-1.729,3.31-1.729c2.351,0,4.2,1.49,4.2,4.71V24.65z M10.5,12.96h-0.02c-1.2,0-1.98-0.8-1.98-1.81
	c0-1.021,0.8-1.801,2.02-1.801c1.23,0,1.98,0.78,2,1.801C12.52,12.16,11.75,12.96,10.5,12.96z M12.24,24.65H8.93V14.26h3.31V24.65z"
	/>
</svg>
