<?xml version="1.0" encoding="utf-8"?>
<!-- Generator: Adobe Illustrator 15.0.0, SVG Export Plug-In . SVG Version: 6.00 Build 0)  -->
<!DOCTYPE svg PUBLIC "-//W3C//DTD SVG 1.1//EN" "http://www.w3.org/Graphics/SVG/1.1/DTD/svg11.dtd">
<svg version="1.1" id="Layer_1" xmlns="http://www.w3.org/2000/svg" xmlns:xlink="http://www.w3.org/1999/xlink" x="0px" y="0px"
	 width="34px" height="34px" viewBox="0 0 34 34" enable-background="new 0 0 34 34" xml:space="preserve">
<path fill="#FFFFFF" d="M17,8.5c-4.69,0-8.5,3.8-8.5,8.5c0,3.479,2.09,6.47,5.09,7.78c-0.03-0.59-0.01-1.311,0.15-1.95l1.09-4.63
	c0,0-0.27-0.551-0.27-1.35c0-1.26,0.73-2.2,1.64-2.2c0.77,0,1.14,0.58,1.14,1.28c0,0.78-0.49,1.94-0.75,3.01
	c-0.21,0.91,0.46,1.64,1.35,1.64c1.61,0,2.69-2.069,2.69-4.52c0-1.86-1.25-3.25-3.54-3.25c-2.57,0-4.18,1.92-4.18,4.06
	c0,0.75,0.22,1.27,0.56,1.67c0.16,0.189,0.18,0.26,0.12,0.48l-0.17,0.68c-0.06,0.21-0.23,0.29-0.43,0.21
	c-1.18-0.479-1.74-1.78-1.74-3.25c0-2.41,2.04-5.31,6.08-5.31c3.24,0,5.38,2.35,5.38,4.87c0,3.339-1.86,5.83-4.59,5.83
	c-0.92,0-1.78-0.5-2.07-1.06c0,0-0.5,1.96-0.6,2.34c-0.18,0.649-0.54,1.31-0.86,1.819C15.36,25.37,16.16,25.5,17,25.5
	c4.689,0,8.5-3.81,8.5-8.5C25.5,12.3,21.689,8.5,17,8.5z"/>
</svg>
