<?xml version="1.0" encoding="utf-8"?>
<!-- Generator: Adobe Illustrator 15.0.0, SVG Export Plug-In . SVG Version: 6.00 Build 0)  -->
<!DOCTYPE svg PUBLIC "-//W3C//DTD SVG 1.1//EN" "http://www.w3.org/Graphics/SVG/1.1/DTD/svg11.dtd">
<svg version="1.1" id="Layer_1" xmlns="http://www.w3.org/2000/svg" xmlns:xlink="http://www.w3.org/1999/xlink" x="0px" y="0px"
	 width="34px" height="34px" viewBox="0 0 34 34" enable-background="new 0 0 34 34" xml:space="preserve">
<path fill="#FFFFFF" d="M25.5,11.81c-0.629,0.27-1.301,0.46-2,0.54c0.721-0.42,1.27-1.1,1.529-1.9c-0.67,0.4-1.42,0.68-2.219,0.83
	c-0.631-0.66-1.541-1.08-2.541-1.08c-1.93,0-3.49,1.54-3.49,3.43c0,0.27,0.03,0.53,0.09,0.79c-2.9-0.15-5.47-1.51-7.19-3.59
	c-0.3,0.51-0.47,1.1-0.47,1.73c0,1.18,0.62,2.24,1.55,2.85c-0.57-0.01-1.11-0.17-1.58-0.43v0.05c0,1.66,1.2,3.05,2.8,3.361
	c-0.29,0.08-0.6,0.119-0.92,0.119c-0.22,0-0.44-0.02-0.65-0.06c0.44,1.36,1.73,2.36,3.25,2.39c-1.19,0.92-2.69,1.46-4.33,1.46
	c-0.28,0-0.56-0.01-0.83-0.04c1.54,0.971,3.38,1.54,5.35,1.54c6.41,0,9.919-5.229,9.919-9.77l-0.01-0.44
	C24.439,13.1,25.029,12.5,25.5,11.81z"/>
</svg>
