<?xml version="1.0" encoding="utf-8"?>
<!-- Generator: Adobe Illustrator 15.0.0, SVG Export Plug-In . SVG Version: 6.00 Build 0)  -->
<!DOCTYPE svg PUBLIC "-//W3C//DTD SVG 1.1//EN" "http://www.w3.org/Graphics/SVG/1.1/DTD/svg11.dtd">
<svg version="1.1" id="Layer_1" xmlns="http://www.w3.org/2000/svg" xmlns:xlink="http://www.w3.org/1999/xlink" x="0px" y="0px"
	 width="34px" height="34px" viewBox="0 0 34 34" enable-background="new 0 0 34 34" xml:space="preserve">
<path fill-rule="evenodd" clip-rule="evenodd" fill="#FFFFFF" d="M24.222,13.651c-0.069,1.4-1.049,3.32-2.949,5.76
	c-1.971,2.55-3.63,3.83-4.991,3.83c-0.84,0-1.56-0.78-2.14-2.34l-1.17-4.27c-0.43-1.56-0.89-2.34-1.39-2.34
	c-0.11,0-0.48,0.23-1.13,0.68l-0.68-0.87c0.71-0.63,1.41-1.25,2.1-1.88c0.95-0.82,1.67-1.25,2.14-1.3c1.12-0.1,1.82,0.66,2.08,2.3
	c0.27,1.78,0.47,2.88,0.58,3.31c0.32,1.471,0.68,2.2,1.07,2.2c0.3,0,0.75-0.47,1.361-1.42c0.6-0.95,0.93-1.68,0.97-2.17
	c0.091-0.82-0.239-1.23-0.97-1.23c-0.35,0-0.7,0.07-1.07,0.22c0.71-2.31,2.07-3.43,4.08-3.37
	C23.603,10.812,24.302,11.771,24.222,13.651z"/>
</svg>
