<?xml version="1.0" encoding="utf-8"?>
<!-- Generator: Adobe Illustrator 15.0.0, SVG Export Plug-In . SVG Version: 6.00 Build 0)  -->
<!DOCTYPE svg PUBLIC "-//W3C//DTD SVG 1.1//EN" "http://www.w3.org/Graphics/SVG/1.1/DTD/svg11.dtd">
<svg version="1.1" id="Layer_1" xmlns="http://www.w3.org/2000/svg" xmlns:xlink="http://www.w3.org/1999/xlink" x="0px" y="0px"
	 width="125px" height="85px" viewBox="0 0 125 85" enable-background="new 0 0 125 85" xml:space="preserve">
<g>
	<path fill="#AFAFAF" d="M36.582,36.776H30v-6.02h20.393v6.02h-6.58v17.467h-7.231V36.776z"/>
	<path fill="#AFAFAF" d="M51.517,30.757h19.795v6.02h-12.56v2.927h12.562v5.594H58.753v2.929h12.563v6.019H51.517V30.757z"/>
	<path fill="#AFAFAF" d="M72.531,30.757h11.875c7.828,0,10.594,5.79,10.594,11.709c0,7.206-3.816,11.777-12.007,11.777H72.531
		V30.757z M79.768,48.225h2.83c4.508,0,5.166-3.652,5.166-5.858c0-1.478-0.463-5.589-5.693-5.589h-2.303V48.225z"/>
</g>
</svg>
