<svg class="asset" width="76" height="339" viewBox="0 0 76 339" fill="none" xmlns="http://www.w3.org/2000/svg">
<path d="M-17.9239 17.7017L-94.0655 0C-103.684 0 -113.141 0.808297 -122.356 2.42489L6.16335 32.4127C-1.35382 26.8354 -9.43678 21.9857 -17.9239 17.7017Z" fill="black"/>
<path d="M-126.398 16.4084L-125.913 16.4893L15.0543 49.387L15.5393 49.4678L16.0243 49.5486L29.3612 52.6202C25.7239 48.7403 21.9248 45.103 17.8834 41.6273C17.7217 41.4657 17.56 41.3848 17.4792 41.2232C17.2367 41.0615 17.0751 40.8999 16.8326 40.7382L-123.973 8.00212L-124.458 7.92129L-124.943 7.84046L-135.612 5.25391C-141.19 6.70884 -146.686 8.40627 -152.102 10.427L-126.883 16.3276L-126.398 16.4084Z" fill="black"/>
<path d="M-159.538 158.427L-159.053 158.507L-18.005 191.405L-17.5201 191.486L-17.0351 191.567L70.5844 212.017C71.3119 209.188 71.9585 206.359 72.5243 203.53L-15.0144 183.08L-15.4993 182.999L-15.9843 182.918L-157.032 150.02L-157.517 149.939L-158.002 149.859L-257.504 126.58C-258.231 129.409 -258.878 132.238 -259.524 135.067L-160.023 158.265L-159.538 158.427Z" fill="black"/>
<path d="M-152.91 129.974L-152.425 130.055L-11.3773 162.953L-10.8923 163.034L-10.4073 163.114L75.5147 183.16C75.7572 180.169 75.9189 177.26 75.9997 174.269L-8.38658 154.708L-8.87156 154.627L-9.35655 154.546L-150.404 121.649L-150.889 121.568L-151.374 121.487L-247.724 98.9355C-248.936 101.603 -250.068 104.351 -251.199 107.099L-153.395 129.893L-152.91 129.974Z" fill="black"/>
<path d="M-146.282 101.603L-145.797 101.684L-4.74862 134.581L-4.26364 134.662L-3.77865 134.743L75.2728 153.172C74.9495 150.101 74.6262 146.948 74.1412 143.958L-1.75791 126.256L-2.24289 126.175L-2.72788 126.094L-143.776 93.1966L-144.261 93.1157L-144.746 93.0349L-232.527 72.5042C-234.305 75.0099 -236.003 77.6773 -237.619 80.2638L-146.766 101.441L-146.282 101.603Z" fill="black"/>
<path d="M-139.653 73.2317L-139.168 73.3125L1.87951 106.21L2.36447 106.291L2.84946 106.372L69.2915 121.81C68.3216 118.496 67.2708 115.263 66.1392 112.111L4.8702 97.804L4.38522 97.7231L3.90026 97.6423L-137.148 64.8254L-137.633 64.7446L-138.118 64.6637L-211.188 47.5278C-213.613 49.8719 -216.038 52.2968 -218.301 54.8833L-140.138 73.07L-139.653 73.2317Z" fill="black"/>
<path d="M-133.026 44.7797L-132.541 44.8605L8.50698 77.7582L8.99196 77.8391L9.47695 77.9199L55.6307 88.6703C53.6908 85.1138 51.6701 81.6381 49.4877 78.2432L11.4977 69.352L11.0127 69.2711L10.5277 69.1903L-130.601 36.3734L-131.086 36.2926L-131.571 36.2118L-181.362 24.5723C-184.838 26.6738 -188.152 28.8562 -191.466 31.2003L-133.511 44.6989L-133.026 44.7797Z" fill="black"/>
<path d="M-156.224 144.2L-155.739 144.281L-14.6909 177.179L-14.206 177.26L-13.721 177.341L73.656 197.71C74.1409 194.8 74.5451 191.971 74.8684 188.98L-11.7811 168.773L-12.2661 168.692L-12.751 168.611L-153.799 135.713L-154.284 135.632L-154.769 135.552L-253.22 112.596C-254.19 115.344 -255.079 118.092 -255.968 120.921L-156.709 144.039L-156.224 144.2Z" fill="black"/>
<path d="M-149.596 115.829L-149.111 115.91L-8.0633 148.808L-7.57832 148.888L-7.09333 148.969L75.9997 168.368C75.9997 165.297 75.9188 162.306 75.6763 159.315L-5.15342 140.482L-5.63841 140.401L-6.12339 140.32L-147.171 107.423L-147.656 107.342L-148.141 107.261L-240.772 85.5986C-242.227 88.1852 -243.682 90.8526 -245.056 93.6008L-150.081 115.748L-149.596 115.829Z" fill="black"/>
<path d="M-142.968 87.3769L-142.483 87.4577L-1.43496 120.355L-0.949976 120.436L-0.465017 120.517L73.0901 137.653C72.4434 134.501 71.7968 131.348 70.9885 128.196L1.55573 112.03L1.07077 111.949L0.585784 111.868L-140.462 78.9706L-140.947 78.8898L-141.432 78.8089L-222.747 59.814C-224.848 62.2389 -226.869 64.8254 -228.809 67.412L-143.453 87.2961L-142.968 87.3769Z" fill="black"/>
<path d="M-136.339 59.0058L-135.854 59.0866L5.19348 91.9844L5.67847 92.0652L6.16345 92.146L63.5526 105.564C62.1785 102.169 60.7235 98.8549 59.1069 95.5409L8.18419 83.6589L7.69921 83.5781L7.21423 83.4972L-133.915 50.5995L-134.399 50.5187L-134.884 50.4378L-197.608 35.7268C-200.518 37.99 -203.266 40.3341 -206.015 42.759L-136.824 58.8441L-136.339 59.0058Z" fill="black"/>
<path d="M-129.711 30.6345L-129.226 30.7153L11.8215 63.613L12.3065 63.6939L12.7914 63.7747L44.7192 71.211C42.0518 67.412 39.2228 63.7747 36.2321 60.2182L14.8122 55.2067L14.3272 55.1259L13.8422 55.0451L-127.287 22.2282L-127.771 22.1474L-128.256 22.0665L-161.558 14.3069C-165.761 16.166 -169.884 18.1867 -173.925 20.3691L-130.196 30.5537L-129.711 30.6345Z" fill="black"/>
<path d="M-185.969 271.992L-185.484 272.073L-44.4363 304.971L-43.9513 305.051L-43.4663 305.132L-5.07216 314.104C-1.67731 312.003 1.71754 309.82 4.95073 307.476L-41.5264 296.726L-42.0114 296.645L-42.4964 296.564L-183.544 263.586L-184.029 263.505L-184.514 263.424L-242.792 249.764C-240.853 253.32 -238.913 256.796 -236.73 260.191L-186.454 271.911L-185.969 271.992Z" fill="black"/>
<path d="M-179.341 243.621L-178.856 243.702L-37.8084 276.599L-37.3234 276.68L-36.8385 276.761L24.5921 291.068C27.017 288.724 29.4419 286.218 31.7052 283.712L-34.8986 268.193L-35.3835 268.112L-35.8685 268.031L-176.916 235.134L-177.401 235.053L-177.886 234.972L-256.372 216.705C-255.402 220.019 -254.351 223.252 -253.22 226.404L-179.907 243.459L-179.341 243.621Z" fill="black"/>
<path d="M-172.794 215.169L-172.309 215.25L-31.261 248.147L-30.776 248.228L-30.291 248.309L45.7698 266.011C47.548 263.424 49.2454 260.838 50.862 258.251L-28.3511 239.822L-28.8361 239.741L-29.3211 239.66L-170.369 206.763L-170.854 206.682L-171.339 206.601L-262.272 185.343C-261.949 188.414 -261.626 191.567 -261.141 194.557L-173.279 215.088L-172.794 215.169Z" fill="black"/>
<path d="M-166.166 186.797L-165.681 186.878L-24.6328 219.776L-24.1479 219.857L-23.6629 219.938L60.885 239.66C62.0975 236.993 63.2291 234.245 64.3607 231.496L-21.6421 211.451L-22.1271 211.37L-22.6121 211.289L-163.66 178.391L-164.145 178.31L-164.63 178.23L-262.434 155.436C-262.434 155.597 -262.434 155.678 -262.434 155.84C-262.676 158.669 -262.838 161.498 -262.919 164.327L-166.57 186.797H-166.166Z" fill="black"/>
<path d="M-182.655 257.766L-182.17 257.847L-41.1223 290.745L-40.6374 290.825L-40.1524 290.906L11.0937 302.869C14.0035 300.606 16.7518 298.262 19.5 295.837L-38.2125 282.5L-38.6975 282.419L-39.1824 282.338L-180.23 249.36L-180.715 249.279L-181.2 249.198L-250.714 233.032C-249.34 236.427 -247.885 239.741 -246.268 243.055L-183.14 257.766H-182.655Z" fill="black"/>
<path d="M-176.108 229.395L-175.623 229.476L-34.5748 262.373L-34.0898 262.454L-33.6049 262.535L35.9895 278.782C38.0911 276.276 40.1119 273.77 42.0518 271.184L-31.6649 254.048L-32.1499 253.967L-32.6349 253.886L-173.683 220.988L-174.168 220.908L-174.653 220.827L-260.09 200.862C-259.524 204.014 -258.797 207.167 -257.988 210.319L-176.512 229.314L-176.108 229.395Z" fill="black"/>
<path d="M-169.48 201.024L-168.995 201.104L-27.9471 234.002L-27.4621 234.083L-26.9771 234.164L54.0143 253.078C55.4693 250.491 56.9242 247.824 58.2983 245.076L-24.9564 225.677L-25.4413 225.596L-25.9263 225.515L-166.974 192.617L-167.459 192.537L-167.944 192.456L-263 170.228C-263 173.299 -262.919 176.29 -262.758 179.28L-169.965 200.862L-169.48 201.024Z" fill="black"/>
<path d="M-162.852 172.572L-162.367 172.652L-21.3191 205.55L-20.8341 205.631L-20.3491 205.712L66.3812 225.919C67.3512 223.171 68.2403 220.423 69.1294 217.594L-18.3284 197.225L-18.8134 197.144L-19.2983 197.063L-160.346 164.165L-160.831 164.084L-161.316 164.004L-260.575 140.805C-261.06 143.715 -261.464 146.544 -261.788 149.535L-163.256 172.491L-162.852 172.572Z" fill="black"/>
</svg>


<svg class="asset1" width="149" height="100" viewBox="0 0 149 100" fill="none" xmlns="http://www.w3.org/2000/svg">
<path d="M146.617 31.3227C143.617 34.6227 137.317 35.5227 134.117 32.0227C129.717 27.3227 127.617 23.9227 123.317 20.0227C122.817 22.8227 122.617 25.7227 121.817 28.4227C118.617 38.9227 108.617 44.4227 98.1175 41.0227C92.6175 39.2227 88.3175 35.4227 84.1175 31.6227C82.6175 30.2227 81.1175 28.7227 79.3175 27.6227C79.3175 27.6227 77.4175 26.1227 76.3175 26.5227C75.9175 26.7227 75.3175 30.2227 75.1175 31.3227C74.6175 34.7227 74.6175 38.7227 74.2175 42.5227C73.2175 51.6227 68.3175 60.8227 58.4175 62.1227C48.1175 63.4227 40.3175 56.0227 35.7175 47.6227C34.0175 44.6227 32.6175 41.1227 30.4175 38.5227C29.5175 37.4227 28.9175 36.8227 27.0175 37.8227C20.5175 41.2227 18.2175 51.0227 17.7175 57.6227C16.8175 68.6227 19.1175 79.9227 21.2175 90.6227C22.1175 95.3227 17.1175 99.7227 12.8175 99.9227C7.61746 100.223 4.41746 96.2227 3.51746 91.5227C1.01746 78.3227 -1.18254 65.0227 0.717458 51.6227C2.41746 39.6227 8.91746 26.7227 20.4175 21.5227C30.1175 17.1227 40.0175 21.2227 45.9175 29.5227C48.3175 32.8227 49.8175 36.7227 51.9175 40.2227C53.3175 42.4227 54.4175 43.3227 55.9175 44.3227C55.9175 44.2227 56.0175 44.1227 56.0175 44.0227C56.0175 43.8227 56.1175 43.5227 56.2175 43.1227C56.6175 41.5227 56.9175 39.1227 57.0175 37.9227C57.3175 33.8227 57.3175 29.6227 58.1175 25.6227C60.2175 14.7227 69.0175 6.82268 80.5175 9.22268C86.5175 10.4227 91.4175 14.5227 95.9175 18.5227C97.7175 20.1227 99.4175 21.9227 101.417 23.2227C102.117 23.7227 103.617 24.2227 104.017 24.5227C104.117 24.6227 104.317 24.7227 104.417 24.7227C104.717 23.9227 104.817 23.6227 105.117 22.7227C105.817 20.1227 105.817 17.4227 106.417 14.7227C107.317 10.5227 108.917 6.22271 112.317 3.32271C119.117 -2.67729 127.417 0.322689 133.717 5.42269C136.417 7.62269 138.717 10.2227 140.917 12.8227C142.117 14.2227 143.417 15.7227 144.617 17.1227C144.917 17.5227 145.217 17.8227 145.517 18.2227C145.717 18.4227 146.017 18.8227 146.217 18.9227C149.217 22.3227 150.017 27.5227 146.617 31.3227Z" fill="#6D2BFA"/>
</svg>


<svg class="asset2" width="206" height="76" viewBox="0 0 206 76" fill="none" xmlns="http://www.w3.org/2000/svg">
<path d="M205.253 76L181.121 44.2862L145.137 61.7853L120.845 29.8293L84.8612 47.3553L60.5694 15.3992L24.6121 32.9253L0 0.592281L0.747438 0L24.8791 31.7407L60.8363 14.2147L85.1549 46.1707L121.112 28.6447L145.431 60.6008L181.388 43.1017L206 75.4346L205.253 76Z" fill="white"/>
</svg>


<svg class="asset3" width="55" height="56" viewBox="0 0 55 56" fill="none" xmlns="http://www.w3.org/2000/svg">
<path d="M23.6484 55.7523L8.12865 43.42C7.76089 43.1264 7.61378 42.7593 7.68733 42.3189C7.76089 41.8785 8.0551 41.5114 8.42286 41.3646L37.7706 28.8855C38.2119 28.7387 38.6532 28.7387 39.021 29.0323L54.5407 41.3646C54.9084 41.6583 55.0555 42.0253 54.982 42.4657C54.9084 42.9062 54.6142 43.2732 54.2464 43.42L24.8988 55.8991C24.7517 55.9725 24.6045 55.9725 24.3839 55.9725C24.1632 56.0459 23.869 55.9725 23.6484 55.7523ZM38.0648 31.4547L11.2914 42.8328L24.6045 53.4033L51.3779 42.0253L38.0648 31.4547Z" fill="white"/>
<path d="M52.9225 43.1263L37.4763 31.0143C37.2556 30.8675 37.1085 30.6472 37.035 30.3536L29.459 1.87198C29.3119 1.35813 29.5325 0.844299 29.9738 0.550674C30.4152 0.257049 31.0036 0.257054 31.4449 0.624085L46.8911 12.7361C47.1118 12.8829 47.2589 13.1031 47.3324 13.3968L54.9084 41.8784C55.0555 42.3922 54.8349 42.9061 54.3935 43.1997C54.1729 43.3465 53.9522 43.4199 53.7316 43.4199C53.3638 43.4199 53.1431 43.2731 52.9225 43.1263ZM32.7689 4.80823L39.3151 29.3259L51.525 38.9421L44.9787 14.4245L32.7689 4.80823Z" fill="white"/>
<path d="M8.34899 43.6403C8.05478 43.4934 7.76056 43.1998 7.68701 42.8328L0.0374877 14.0574C-0.109619 13.4701 0.184594 12.8829 0.773019 12.5892L30.1207 0.11011C30.4149 -0.0367033 30.8562 -0.0367033 31.1505 0.11011C31.4447 0.256923 31.7389 0.550555 31.8124 0.917588L39.5355 29.693C39.6826 30.2802 39.3884 30.8675 38.8 31.1611L9.45229 43.6403C9.30518 43.7137 9.15807 43.7137 8.93741 43.7137C8.71676 43.7871 8.56965 43.7137 8.34899 43.6403ZM29.6794 2.97297L2.6854 14.4978L9.7465 40.8508L36.7405 29.326L29.6794 2.97297Z" fill="white"/>
</svg>

<svg class="asset4" width="29" height="29" viewBox="0 0 29 29" fill="none" xmlns="http://www.w3.org/2000/svg">
<path d="M14.6001 27.6C14.0001 27.6 13.6001 27.2 13.6001 26.6V2C13.6001 1.4 14.0001 1 14.6001 1C15.2001 1 15.6001 1.4 15.6001 2V26.5C15.6001 27.1 15.1001 27.6 14.6001 27.6Z" fill="black" stroke="black" stroke-miterlimit="10"/>
<path d="M27.3 16.2H2C1.4 16.2 1 15.8 1 15.2C1 14.6 1.4 14.2 2 14.2H27.3C27.9 14.2 28.3 14.6 28.3 15.2C28.3 15.8 27.9 16.2 27.3 16.2Z" fill="black" stroke="black" stroke-miterlimit="10"/>
</svg>


<svg class="asset5" width="32" height="33" viewBox="0 0 32 33" fill="none" xmlns="http://www.w3.org/2000/svg">
<path d="M17.7883 33.0002C17.7028 33.0002 17.6173 33.0002 17.4891 32.9569L0.435688 25.5995C0.221986 25.513 0.051024 25.2966 0.0082836 25.0369C-0.0344568 24.7772 0.093767 24.5176 0.264729 24.3877L9.28296 17.1169C9.49666 16.9438 9.75309 16.9005 10.0095 17.0303L27.063 24.3877C27.2767 24.4743 27.4476 24.6907 27.4904 24.9503C27.5331 25.21 27.4049 25.4697 27.2339 25.5995L18.2157 32.8704C18.1302 32.9569 17.9593 33.0002 17.7883 33.0002ZM2.1453 24.7339L17.7028 31.4422L25.4388 25.21L9.88132 18.5018L2.1453 24.7339Z" fill="white"/>
<path d="M0.82008 25.5561C0.691858 25.5561 0.563638 25.5128 0.435415 25.4263C0.17897 25.2532 0.0507555 24.9502 0.136237 24.6473L4.53854 7.85512C4.58128 7.72528 4.66676 7.55218 4.79499 7.46562L13.7706 0.324636C14.027 0.151521 14.3689 0.108226 14.6254 0.281341C14.8818 0.454456 15.01 0.757428 14.9246 1.06038L10.5223 17.8525C10.4795 17.9824 10.394 18.1555 10.2658 18.242L1.29023 25.383C1.11927 25.4696 0.991043 25.5561 0.82008 25.5561ZM5.86351 8.46103L2.05957 22.9161L9.15454 17.2466L12.9585 2.79153L5.86351 8.46103Z" fill="white"/>
<path d="M26.8063 25.7725C26.7209 25.7725 26.6354 25.7725 26.5071 25.7292L9.45359 18.3718C9.11166 18.242 8.9407 17.8525 9.02618 17.5062L13.514 0.540999C13.5567 0.324606 13.6849 0.151475 13.8986 0.064918C14.0696 -0.0216393 14.2833 -0.0216393 14.497 0.064918L31.5506 7.42229C31.8925 7.55213 32.0635 7.94164 31.978 8.28787L27.4902 25.2531C27.4475 25.4695 27.3192 25.6426 27.1055 25.7292C27.02 25.7292 26.9346 25.7725 26.8063 25.7725ZM10.6076 17.2466L26.3362 24.0413L30.4393 8.50426L14.7107 1.70953L10.6076 17.2466Z" fill="white"/>
</svg>


<svg class="asset6" width="29" height="29" viewBox="0 0 29 29" fill="none" xmlns="http://www.w3.org/2000/svg">
<path d="M14.6001 27.6C14.0001 27.6 13.6001 27.2 13.6001 26.6V2C13.6001 1.4 14.0001 1 14.6001 1C15.2001 1 15.6001 1.4 15.6001 2V26.5C15.6001 27.1 15.1001 27.6 14.6001 27.6Z" fill="black" stroke="black" stroke-miterlimit="10"/>
<path d="M27.2999 16.1999H2C1.4 16.1999 1 15.7999 1 15.1999C1 14.5999 1.4 14.2 2 14.2H27.2999C27.8999 14.2 28.2999 14.5999 28.2999 15.1999C28.2999 15.7999 27.8999 16.1999 27.2999 16.1999Z" fill="black" stroke="black" stroke-miterlimit="10"/>
</svg>

<svg class="asset7" width="191" height="114" viewBox="0 0 191 114" fill="none" xmlns="http://www.w3.org/2000/svg">
<path d="M13.7378 89.8379C12.0378 92.4379 11.1378 95.3379 10.3378 98.1379C8.63783 103.438 7.13783 108.338 0.637829 111.638C0.0378293 111.938 -0.162171 112.638 0.137829 113.238C0.437829 113.838 1.13783 114.038 1.73783 113.738C9.13783 110.038 10.9378 104.338 12.7378 98.8379C14.4378 93.5379 15.9378 88.6379 22.4378 85.3379C28.9378 82.1379 33.8378 83.8378 39.0378 85.7378C44.4378 87.7378 50.1378 89.7379 57.5378 86.0379C64.9378 82.3379 66.7378 76.6379 68.5378 71.1379C70.2378 65.8379 71.7378 60.9379 78.2378 57.6378C84.7378 54.4378 89.6378 56.1379 94.8378 58.0379C100.238 60.0379 105.938 62.0379 113.338 58.3379C120.738 54.6379 122.538 48.9378 124.338 43.4378C126.038 38.1378 127.538 33.2378 134.038 29.9378C140.538 26.7378 145.438 28.4379 150.638 30.3379C156.038 32.3379 161.738 34.3378 169.138 30.6378C176.638 26.9378 178.338 21.2378 180.138 15.7378C181.838 10.4378 183.338 5.53784 189.838 2.23784C190.438 1.93784 190.638 1.23783 190.338 0.63783C190.038 0.0378294 189.338 -0.162171 188.738 0.137829C181.238 3.83783 179.538 9.53783 177.738 15.0378C176.038 20.3378 174.538 25.2379 168.038 28.5379C161.538 31.7379 156.638 30.0378 151.438 28.1378C146.038 26.1378 140.338 24.1378 132.938 27.8379C125.538 31.5379 123.738 37.2378 121.938 42.7378C120.238 48.0378 118.738 52.9378 112.238 56.2378C105.738 59.4378 100.838 57.7379 95.6378 55.8379C90.2378 53.8379 84.5378 51.8379 77.1378 55.5379C69.7378 59.2379 67.9378 64.9378 66.1378 70.4378C64.4378 75.7378 62.9378 80.6378 56.4378 83.9379C49.9378 87.1379 45.0378 85.4379 39.8378 83.5379C34.4378 81.5379 28.7378 79.5378 21.3378 83.2378C17.5378 85.0378 15.2378 87.3379 13.7378 89.8379Z" fill="#090200"/>
</svg>

<svg class="asset8" width="59" height="155" viewBox="0 0 59 155" fill="none" xmlns="http://www.w3.org/2000/svg">

<path class="asset8-path" d="M0.0163924 26.885L1.73193 28.6162L28.3733 1.73128L26.6578 5.95476e-05L0.0163924 26.885Z" fill="black"/>
<path class="asset8-path2" d="M21.252 76.2325L21.252 78.6809L59.0001 78.6809L59.0001 76.2325L21.252 76.2325Z" fill="black"/>
<path class="asset8-path3" d="M-0.000166532 128.115L26.6411 155L28.3566 153.269L1.71537 126.384L-0.000166532 128.115Z" fill="black"/>

</svg>

<svg class="asset9" width="28" height="28" viewBox="0 0 28 28" fill="none" xmlns="http://www.w3.org/2000/svg">
<path d="M14.0001 28C21.7405 28 28.0001 21.7404 28.0001 14C28.0001 6.25962 21.7405 0 14.0001 0C6.25964 0 0 6.25962 0 14C0 21.7404 6.25964 28 14.0001 28ZM14.0001 20.3269C10.5 20.3269 7.67313 17.5 7.67313 14C7.67313 10.5 10.5 7.67308 14.0001 7.67308C17.5001 7.67308 20.327 10.5 20.327 14C20.327 17.5 17.5001 20.3269 14.0001 20.3269Z" fill="#6D2BFA"/>
</svg>


<svg class="asset10" width="82" height="339" viewBox="0 0 82 339" fill="none" xmlns="http://www.w3.org/2000/svg">
<path d="M214.361 325.016L213.876 324.936L72.8279 292.038L72.3429 291.957L71.8579 291.876L46.0732 285.733C49.9531 289.855 54.1562 293.816 58.4402 297.615L69.8372 300.283L70.3221 300.363L70.8071 300.444L211.855 333.423L212.34 333.504H212.421C212.582 333.504 212.744 333.423 212.825 333.423C218.24 331.968 223.575 330.27 228.748 328.33L214.765 325.097L214.361 325.016Z" fill="black"/>
<path d="M217.675 310.79L217.19 310.71L76.1418 277.812L75.6568 277.731L75.1719 277.65L30.958 267.385C33.6254 271.184 36.4544 274.821 39.3643 278.297L73.1511 286.137L73.6361 286.218L74.1211 286.299L215.169 319.197L215.654 319.278L216.139 319.358L238.125 324.451C242.328 322.592 246.45 320.49 250.411 318.308L218.079 310.79H217.675Z" fill="black"/>
<path d="M69.0288 306.102C69.1905 306.264 69.3521 306.345 69.433 306.426C76.6268 311.68 84.2248 316.368 92.227 320.49L171.763 339C181.059 338.919 190.274 338.03 199.165 336.413L69.5946 306.183L69.0288 306.102Z" fill="black"/>
<path d="M103.462 158.426L103.947 158.507L244.995 191.405L245.48 191.486L245.965 191.567L333.584 212.017C334.312 209.188 334.958 206.359 335.524 203.529L247.986 183.08L247.501 182.999L247.016 182.918L105.968 150.02L105.483 149.939L104.998 149.859L5.49633 126.58C4.76886 129.409 4.12222 132.238 3.47559 135.067L102.977 158.265L103.462 158.426Z" fill="black"/>
<path d="M110.09 129.974L110.575 130.055L251.623 162.953L252.108 163.033L252.593 163.114L338.515 183.16C338.757 180.169 338.919 177.26 339 174.269L254.613 154.708L254.128 154.627L253.643 154.546L112.595 121.649L112.11 121.568L111.626 121.487L15.2765 98.9355C14.064 101.603 12.9324 104.351 11.8008 107.099L109.605 129.893L110.09 129.974Z" fill="black"/>
<path d="M116.718 101.603L117.203 101.684L258.251 134.581L258.736 134.662L259.221 134.743L338.273 153.172C337.95 150.101 337.626 146.948 337.141 143.958L261.242 126.256L260.757 126.175L260.272 126.094L119.224 93.1966L118.739 93.1157L118.254 93.0349L30.4731 72.5042C28.6949 75.0099 26.9975 77.6773 25.3809 80.2638L116.234 101.441L116.718 101.603Z" fill="black"/>
<path d="M123.347 73.2317L123.832 73.3125L264.879 106.21L265.364 106.291L265.849 106.372L332.292 121.81C331.322 118.496 330.271 115.263 329.139 112.111L267.87 97.8039L267.385 97.7231L266.9 97.6423L125.852 64.8254L125.367 64.7446L124.882 64.6637L51.8122 47.5278C49.3873 49.8719 46.9625 52.2968 44.6992 54.8833L122.862 73.07L123.347 73.2317Z" fill="black"/>
<path d="M129.975 44.7797L130.46 44.8605L271.507 77.7582L271.992 77.839L272.477 77.9199L318.631 88.6702C316.691 85.1137 314.67 81.638 312.488 78.2432L274.498 69.3519L274.013 69.2711L273.528 69.1903L132.399 36.3734L131.914 36.2926L131.429 36.2117L81.6384 24.5723C78.1627 26.6738 74.8487 28.8562 71.5347 31.2003L129.49 44.6989L129.975 44.7797Z" fill="black"/>
<path d="M106.776 144.2L107.261 144.281L248.309 177.179L248.794 177.26L249.279 177.341L336.656 197.71C337.141 194.8 337.545 191.971 337.869 188.98L251.219 168.773L250.734 168.692L250.249 168.611L109.201 135.713L108.716 135.632L108.231 135.552L9.78044 112.596C8.81048 115.344 7.92135 118.092 7.03223 120.921L106.291 144.039L106.776 144.2Z" fill="black"/>
<path d="M113.404 115.829L113.889 115.91L254.937 148.807L255.422 148.888L255.907 148.969L339 168.368C339 165.297 338.919 162.306 338.677 159.315L257.847 140.482L257.362 140.401L256.877 140.32L115.829 107.423L115.344 107.342L114.859 107.261L22.2283 85.5986C20.7734 88.1852 19.3184 90.8526 17.9443 93.6008L112.919 115.748L113.404 115.829Z" fill="black"/>
<path d="M120.033 87.3769L120.518 87.4577L261.565 120.355L262.05 120.436L262.535 120.517L336.09 137.653C335.444 134.501 334.797 131.348 333.989 128.196L264.556 112.03L264.071 111.949L263.586 111.868L122.538 78.9706L122.053 78.8898L121.568 78.809L40.2536 59.814C38.1521 62.2389 36.1313 64.8254 34.1914 67.412L119.548 87.2961L120.033 87.3769Z" fill="black"/>
<path d="M126.661 59.0058L127.146 59.0866L268.194 91.9843L268.679 92.0651L269.164 92.146L326.553 105.564C325.179 102.169 323.724 98.8548 322.107 95.5408L271.184 83.6588L270.699 83.578L270.214 83.4972L129.086 50.5995L128.601 50.5187L128.116 50.4378L65.3917 35.7268C62.4818 37.99 59.7336 40.3341 56.9854 42.759L126.176 58.8441L126.661 59.0058Z" fill="black"/>
<path d="M77.0309 271.992L77.5158 272.073L218.564 304.971L219.049 305.051L219.534 305.132L257.928 314.104C261.323 312.003 264.718 309.82 267.951 307.476L221.474 296.726L220.989 296.645L220.504 296.564L79.4558 263.586L78.9708 263.505L78.4858 263.424L20.2075 249.764C22.1474 253.32 24.0873 256.796 26.2698 260.191L76.5459 271.911L77.0309 271.992Z" fill="black"/>
<path d="M83.6592 243.621L84.1442 243.702L225.192 276.599L225.677 276.68L226.162 276.761L287.593 291.068C290.018 288.724 292.442 286.218 294.706 283.712L228.102 268.193L227.617 268.112L227.132 268.031L86.0841 235.134L85.5991 235.053L85.1141 234.972L6.62842 216.705C7.59838 220.019 8.64916 223.252 9.78078 226.404L83.0934 243.459L83.6592 243.621Z" fill="black"/>
<path d="M90.2061 215.169L90.6911 215.25L231.739 248.147L232.224 248.228L232.709 248.309L308.77 266.011C310.548 263.424 312.245 260.838 313.862 258.251L234.649 239.822L234.164 239.741L233.679 239.66L92.631 206.763L92.146 206.682L91.661 206.601L0.727539 185.343C1.05086 188.414 1.37418 191.567 1.85916 194.557L89.7211 215.088L90.2061 215.169Z" fill="black"/>
<path d="M96.8343 186.798L97.3193 186.878L238.367 219.776L238.852 219.857L239.337 219.938L323.885 239.66C325.098 236.993 326.229 234.245 327.361 231.496L241.358 211.451L240.873 211.37L240.388 211.289L99.34 178.391L98.8551 178.31L98.3701 178.23L0.566033 155.436C0.566033 155.597 0.566033 155.678 0.566033 155.84C0.323544 158.669 0.161884 161.498 0.0810547 164.327L96.4302 186.798H96.8343Z" fill="black"/>
<path d="M80.3448 257.766L80.8298 257.847L221.878 290.745L222.363 290.825L222.848 290.906L274.094 302.869C277.004 300.606 279.752 298.262 282.5 295.837L224.788 282.5L224.303 282.419L223.818 282.338L82.7697 249.36L82.2847 249.279L81.7998 249.198L12.2861 233.032C13.6602 236.427 15.1152 239.741 16.7318 243.055L79.8598 257.766H80.3448Z" fill="black"/>
<path d="M86.8923 229.395L87.3772 229.476L228.425 262.373L228.91 262.454L229.395 262.535L298.99 278.782C301.091 276.276 303.112 273.77 305.052 271.184L231.335 254.048L230.85 253.967L230.365 253.886L89.3172 220.988L88.8322 220.908L88.3472 220.827L2.91016 200.862C3.47596 204.014 4.20343 207.167 5.01173 210.319L86.4881 229.314L86.8923 229.395Z" fill="black"/>
<path d="M93.5201 201.024L94.0051 201.104L235.053 234.002L235.538 234.083L236.023 234.164L317.015 253.078C318.47 250.491 319.924 247.824 321.299 245.076L238.044 225.677L237.559 225.596L237.074 225.515L96.0258 192.617L95.5409 192.537L95.0559 192.456L0 170.228C0 173.299 0.0808298 176.29 0.24249 179.28L93.0351 200.862L93.5201 201.024Z" fill="black"/>
<path d="M100.148 172.572L100.633 172.652L241.681 205.55L242.166 205.631L242.651 205.712L329.382 225.919C330.352 223.171 331.241 220.423 332.13 217.594L244.672 197.225L244.187 197.144L243.702 197.063L102.654 164.165L102.169 164.084L101.684 164.004L2.42534 140.805C1.94036 143.715 1.53621 146.544 1.21289 149.535L99.7443 172.491L100.148 172.572Z" fill="black"/>
</svg>





