<?xml version="1.0" encoding="utf-8"?>
<!-- Generator: Adobe Illustrator 15.0.0, SVG Export Plug-In . SVG Version: 6.00 Build 0)  -->
<!DOCTYPE svg PUBLIC "-//W3C//DTD SVG 1.0//EN" "http://www.w3.org/TR/2001/REC-SVG-20010904/DTD/svg10.dtd">
<svg version="1.0" id="Layer_1" xmlns="http://www.w3.org/2000/svg" xmlns:xlink="http://www.w3.org/1999/xlink" x="0px" y="0px"
	 width="60px" height="60px" viewBox="0 0 60 60" enable-background="new 0 0 60 60" xml:space="preserve">
<g>
	<defs>
		<rect id="SVGID_1_" y="0.372" width="55" height="59.256"/>
	</defs>
	<clipPath id="SVGID_2_">
		<use xlink:href="#SVGID_1_"  overflow="visible"/>
	</clipPath>
	<path clip-path="url(#SVGID_2_)" d="M34.7,45.313c-0.677,0-1.354-0.258-1.872-0.775c-1.034-1.034-1.034-2.712,0-3.743L45.937,27.69
		c5.03-5.034,5.03-13.219,0-18.253c-5.032-5.028-13.222-5.028-18.253,0.002L4.52,32.604c-1.035,1.033-2.71,1.033-3.743,0
		c-1.036-1.034-1.036-2.708,0-3.744L23.941,5.695C31.034-1.402,42.58-1.4,49.679,5.693c7.095,7.097,7.095,18.645,0,25.74
		L36.571,44.537C36.055,45.055,35.378,45.313,34.7,45.313"/>
	<path clip-path="url(#SVGID_2_)" d="M15.905,59.628c-3.443,0-6.889-1.313-9.515-3.936c-2.544-2.541-3.938-5.92-3.938-9.517
		c0-3.593,1.395-6.973,3.938-9.514l10.606-10.608c1.035-1.032,2.71-1.032,3.744,0c1.034,1.032,1.034,2.71,0,3.744L10.133,40.405
		c-1.541,1.544-2.387,3.592-2.387,5.771c0,2.183,0.847,4.229,2.387,5.771c3.18,3.183,8.364,3.185,11.543,0.002l10.607-10.61
		c1.036-1.033,2.711-1.033,3.746,0c1.034,1.034,1.034,2.71,0,3.744l-10.61,10.609C22.798,58.314,19.354,59.628,15.905,59.628"/>
	<path clip-path="url(#SVGID_2_)" d="M22.782,45.065c-0.677,0-1.356-0.259-1.872-0.776c-1.036-1.034-1.036-2.707,0-3.741
		l17.704-17.704c1.504-1.506,1.504-3.958,0-5.464c-1.458-1.453-4.002-1.453-5.46,0.002L19.819,30.719
		c-1.034,1.037-2.71,1.037-3.743,0c-1.034-1.032-1.034-2.707,0-3.742L29.41,13.639c1.727-1.728,4.028-2.678,6.474-2.681
		c2.451,0,4.747,0.953,6.477,2.681c3.565,3.569,3.565,9.377,0.002,12.949L24.654,44.289C24.138,44.807,23.459,45.065,22.782,45.065"
		/>
</g>
</svg>
