<?xml version="1.0" encoding="utf-8"?>
<!-- Generator: Adobe Illustrator 16.0.0, SVG Export Plug-In . SVG Version: 6.00 Build 0)  -->
<!DOCTYPE svg PUBLIC "-//W3C//DTD SVG 1.1//EN" "http://www.w3.org/Graphics/SVG/1.1/DTD/svg11.dtd">
<svg version="1.1" id="Layer_1" xmlns="http://www.w3.org/2000/svg" xmlns:xlink="http://www.w3.org/1999/xlink" x="0px" y="0px"
	 width="200px" height="137.128px" viewBox="0 0 200 137.128" enable-background="new 0 0 200 137.128" xml:space="preserve">
<rect width="200" height="137.128"/>
<path fill="#FFFFFF" d="M29.384,58.137c-6.159,22.987,7.245,47.294,30.143,53.604l22.699-84.236
	C59.237,21.52,35.542,35.159,29.384,58.137 M88.396,4.598l-35.044,130.05c-35.82-9.145-57.02-46.096-47.389-82.05
	C16.085,14.815,51.943-4.889,88.396,4.598z"/>
<path fill="#FFFFFF" d="M82.227,27.505l-22.699,84.236c22.983,5.984,46.677-7.654,52.837-30.633
	C118.522,58.126,105.122,33.818,82.227,27.505"/>
<polyline fill="#FFFFFF" stroke="#FFFFFF" stroke-miterlimit="10" points="134.802,87.442 139.582,87.442 139.582,88.276 
	135.768,88.276 135.768,91.74 139.388,91.74 139.388,92.574 135.768,92.574 135.768,96.316 139.751,96.316 139.751,97.154 
	134.802,97.154 134.802,87.442 "/>
<polyline fill="#FFFFFF" stroke="#FFFFFF" stroke-miterlimit="10" points="142.213,87.442 143.43,87.442 148.397,95.982 
	148.422,95.982 148.422,87.442 149.389,87.442 149.389,97.154 148.09,97.154 143.209,88.776 143.177,88.776 143.177,97.154 
	142.213,97.154 142.213,87.442 "/>
<polyline fill="#FFFFFF" stroke="#FFFFFF" stroke-miterlimit="10" points="154.03,88.276 151.152,88.276 151.152,87.442 
	157.876,87.442 157.876,88.276 154.997,88.276 154.997,97.154 154.03,97.154 154.03,88.276 "/>
<rect x="159.622" y="87.442" fill="#FFFFFF" stroke="#FFFFFF" stroke-miterlimit="10" width="0.966" height="9.712"/>
<path fill="#FFFFFF" stroke="#FFFFFF" stroke-miterlimit="10" d="M164.278,96.316h0.798c2.771,0,4.573-1.112,4.573-4.09
	c0-2.96-1.776-3.95-3.958-3.95h-1.413V96.316 M163.315,87.442h2.418c3.495,0,4.88,2.001,4.88,4.843c0,3.516-2.364,4.869-5.595,4.869
	h-1.703V87.442z"/>
<path fill="#FFFFFF" stroke="#FFFFFF" stroke-miterlimit="10" d="M176.725,88.361l-2.128,5.351h4.236L176.725,88.361
	 M176.249,87.442h1.091l3.872,9.712h-1.004l-1.049-2.606h-4.925l-1.047,2.606h-0.937L176.249,87.442z"/>
<path fill="#FFFFFF" stroke="#FFFFFF" stroke-miterlimit="10" d="M184.023,96.316h0.797c2.77,0,4.571-1.112,4.571-4.09
	c0-2.96-1.773-3.95-3.956-3.95h-1.413V96.316 M183.056,87.442h2.422c3.496,0,4.88,2.001,4.88,4.843c0,3.516-2.364,4.869-5.595,4.869
	h-1.707V87.442z"/>
<polyline fill="#FFFFFF" stroke="#FFFFFF" stroke-miterlimit="10" points="193.015,87.442 197.8,87.442 197.8,88.276 
	193.978,88.276 193.978,91.74 197.599,91.74 197.599,92.574 193.978,92.574 193.978,96.316 197.963,96.316 197.963,97.154 
	193.015,97.154 193.015,87.442 "/>
<polyline fill="#FFFFFF" stroke="#FFFFFF" stroke-miterlimit="10" points="113.156,103.249 117.799,103.249 117.799,104.087 
	114.122,104.087 114.122,107.551 117.63,107.551 117.63,108.382 114.122,108.382 114.122,112.96 113.156,112.96 113.156,103.249 "/>
<path fill="#FFFFFF" stroke="#FFFFFF" stroke-miterlimit="10" d="M120.552,108.104c0,2.063,1.036,4.186,3.331,4.186
	c2.292,0,3.326-2.122,3.326-4.186c0-2.058-1.034-4.188-3.326-4.188C121.588,103.916,120.552,106.047,120.552,108.104
	 M123.883,103.083c2.938,0,4.319,2.396,4.293,5.021c-0.029,2.982-1.479,5.023-4.293,5.023c-2.81,0-4.265-2.041-4.294-5.023
	C119.561,105.479,120.944,103.083,123.883,103.083z"/>
<path fill="#FFFFFF" stroke="#FFFFFF" stroke-miterlimit="10" d="M131.671,107.551h1.022c1.131,0,2.43-0.433,2.43-1.781
	c0-1.591-1.131-1.683-2.46-1.683h-0.992V107.551 M130.705,103.249h2.518c1.735,0,2.867,0.734,2.867,2.521
	c0,1.252-0.966,2.084-2.166,2.24v0.027c0.783,0.097,0.948,0.516,1.256,1.167l1.667,3.756h-1.065l-1.41-3.283
	c-0.562-1.252-0.979-1.295-1.901-1.295h-0.798v4.578h-0.967V103.249z"/>
<polyline fill="#FFFFFF" stroke="#FFFFFF" stroke-miterlimit="10" points="138.999,103.249 140.492,103.249 144.062,111.792 
	147.64,103.249 149.024,103.249 149.024,112.96 148.059,112.96 148.059,104.212 148.033,104.212 144.482,112.96 143.653,112.96 
	139.991,104.212 139.965,104.212 139.965,112.96 138.999,112.96 138.999,103.249 "/>
<path fill="#FFFFFF" stroke="#FFFFFF" stroke-miterlimit="10" d="M155.431,104.167l-2.127,5.357h4.235L155.431,104.167
	 M154.955,103.249h1.091l3.872,9.711h-1.005l-1.053-2.602h-4.92l-1.046,2.602h-0.941L154.955,103.249z"/>
<path fill="#FFFFFF" stroke="#FFFFFF" stroke-miterlimit="10" d="M162.728,112.122h0.797c2.766,0,4.572-1.111,4.572-4.085
	c0-2.967-1.774-3.95-3.957-3.95h-1.413V112.122 M161.762,103.249h2.421c3.496,0,4.881,2.005,4.881,4.842
	c0,3.522-2.365,4.869-5.596,4.869h-1.706V103.249z"/>
<path fill="#FFFFFF" stroke="#FFFFFF" stroke-miterlimit="10" d="M172.238,108.104c0,2.063,1.032,4.186,3.327,4.186
	c2.296,0,3.326-2.122,3.326-4.186c0-2.058-1.03-4.188-3.326-4.188C173.27,103.916,172.238,106.047,172.238,108.104 M175.564,103.083
	c2.938,0,4.322,2.396,4.292,5.021c-0.027,2.982-1.482,5.023-4.292,5.023c-2.811,0-4.265-2.041-4.291-5.023
	C171.242,105.479,172.629,103.083,175.564,103.083z"/>
<path fill="#FFFFFF" stroke="#FFFFFF" stroke-miterlimit="10" d="M183.351,107.551h1.023c1.134,0,2.435-0.433,2.435-1.781
	c0-1.591-1.136-1.683-2.461-1.683h-0.996V107.551 M182.391,103.249h2.516c1.732,0,2.866,0.734,2.866,2.521
	c0,1.252-0.964,2.084-2.17,2.24v0.027c0.784,0.097,0.953,0.516,1.26,1.167l1.664,3.756h-1.061l-1.413-3.283
	c-0.562-1.252-0.981-1.295-1.906-1.295h-0.796v4.578h-0.96V103.249z"/>
<path fill="#FFFFFF" stroke="#FFFFFF" stroke-miterlimit="10" d="M194.135,104.167l-2.127,5.357h4.236L194.135,104.167
	 M193.659,103.249h1.091l3.873,9.711h-1.005l-1.049-2.602h-4.925l-1.047,2.602h-0.937L193.659,103.249z"/>
<polyline fill="#FFFFFF" points="62.155,119.176 71.276,119.176 71.276,121.608 65.258,121.608 65.258,125.416 70.767,125.416 
	70.767,127.852 65.258,127.852 65.258,132.189 71.321,132.189 71.321,134.623 62.155,134.623 62.155,119.176 "/>
<path fill="#FFFFFF" d="M79.069,125.77h1.016c1.525,0,3.273-0.22,3.273-2.148c0-1.855-1.728-2.013-3.273-2.013h-1.016V125.77
	 M75.967,119.176h3.343c3.317,0,7.281-0.114,7.281,4.183c0,1.815-1.217,3.316-3.188,3.588v0.042
	c0.839,0.063,1.328,0.905,1.637,1.594l2.48,6.041h-3.455l-1.858-4.827c-0.44-1.149-0.84-1.591-2.147-1.591h-0.991v6.418h-3.103
	V119.176z"/>
<polyline fill="#FFFFFF" points="93.939,121.608 89.513,121.608 89.513,119.176 101.464,119.176 101.464,121.608 97.037,121.608 
	97.037,134.623 93.939,134.623 93.939,121.608 "/>
<rect x="104.94" y="119.176" fill="#FFFFFF" width="3.1" height="15.447"/>
<polyline fill="#FFFFFF" points="113.13,119.176 121.714,119.176 121.714,121.608 116.228,121.608 116.228,125.416 121.45,125.416 
	121.45,127.852 116.228,127.852 116.228,134.623 113.13,134.623 113.13,119.176 "/>
<rect x="125.698" y="119.176" fill="#FFFFFF" width="3.1" height="15.447"/>
<path fill="#FFFFFF" d="M145.131,134.403c-1.132,0.262-2.347,0.486-3.517,0.486c-5.003,0-8.48-2.501-8.48-7.724
	c0-5.291,3.231-8.26,8.48-8.26c1.017,0,2.365,0.197,3.495,0.646l-0.222,2.61c-1.173-0.668-2.235-0.815-3.343-0.815
	c-3.187,0-5.179,2.431-5.179,5.6c0,3.137,1.948,5.505,5.249,5.505c1.216,0,2.654-0.262,3.381-0.639L145.131,134.403"/>
<path fill="#FFFFFF" d="M155.314,122.272h-0.045l-2.235,6.374h4.513L155.314,122.272 M153.606,119.176h3.5l6.063,15.447h-3.431
	l-1.33-3.541h-6.262l-1.351,3.541h-3.21L153.606,119.176z"/>
<path fill="#FFFFFF" d="M170.03,132.189h1.728c2.59,0,5.088-1.927,5.088-5.295c0-3.361-2.498-5.286-5.088-5.286h-1.728V132.189
	 M166.932,119.176h4.227c4.739,0,8.918,1.591,8.918,7.719c0,6.133-4.179,7.729-8.918,7.729h-4.227V119.176z"/>
<path fill="#FFFFFF" d="M190.813,122.272h-0.042l-2.239,6.374h4.517L190.813,122.272 M189.107,119.176h3.499l6.063,15.447h-3.43
	l-1.33-3.541h-6.262l-1.351,3.541h-3.208L189.107,119.176z"/>
<polyline fill="#FFFFFF" points="62.155,119.176 71.276,119.176 71.276,121.613 65.258,121.613 65.258,125.423 70.767,125.423 
	70.767,127.867 65.258,127.867 65.258,132.212 71.321,132.212 71.321,134.647 58.782,134.634 62.155,119.176 "/>
<path fill="#FFFFFF" d="M64.069,89.062l0.284-1.048c0.423-1.573-0.338-3.404-2.378-3.955c-2.043-0.549-3.621,0.656-4.046,2.225
	l-0.281,1.049L64.069,89.062 M55.663,88.814l0.693-2.563c0.776-2.877,2.426-5.151,6.146-4.154c3.719,1.004,4,3.803,3.231,6.68
	l-0.693,2.563L55.663,88.814z"/>
<path fill="#FFFFFF" d="M62.242,71.612c-0.532,0.63-0.942,1.53-1.147,2.283c-0.588,2.191,0.564,3.798,2.482,4.315
	c1.91,0.511,3.666-0.284,4.207-2.285c0.133-0.511,0.19-0.926,0.194-1.272l-2.442-0.659l-0.537,1.987l-1.479-0.395l1.024-3.788
	l5.05,1.362c0,1.062-0.066,2.157-0.335,3.163c-0.818,3.036-2.905,4.737-6.076,3.884c-3.209-0.863-4.482-3.312-3.626-6.494
	c0.297-1.086,0.677-1.906,1.136-2.65L62.242,71.612"/>
<polyline fill="#FFFFFF" points="61.25,68.072 62.741,62.54 64.217,62.938 63.234,66.594 65.548,67.214 66.444,63.868 
	67.924,64.266 67.023,67.613 69.656,68.323 70.644,64.64 72.126,65.04 70.627,70.598 61.25,68.072 "/>
<path fill="#FFFFFF" d="M67.907,59.293l0.169-0.623c0.248-0.925,0.397-2.021-0.772-2.339c-1.125-0.301-1.501,0.719-1.753,1.662
	l-0.169,0.619L67.907,59.293 M63.399,60.091l0.546-2.025c0.545-2.013,1.127-4.437,3.729-3.733c1.105,0.296,1.82,1.282,1.656,2.521
	l0.029,0.004c0.178-0.5,0.768-0.656,1.235-0.732l4.071-0.521l-0.562,2.098l-3.235,0.343c-0.772,0.076-1.104,0.249-1.318,1.04
	l-0.161,0.604l3.896,1.049l-0.508,1.878L63.399,60.091z"/>
<polyline fill="#FFFFFF" points="67.709,49.987 66.981,52.674 65.503,52.275 67.457,45.022 68.937,45.421 68.21,48.11 76.11,50.238 
	75.603,52.116 67.709,49.987 "/>
</svg>
