<svg width="48" height="50" xmlns="http://www.w3.org/2000/svg" xmlns:xlink="http://www.w3.org/1999/xlink"><defs><path id="a" d="M0 17l24 20h50L29.781.15z"/><linearGradient x1="72.255%" y1="73.326%" x2="32.59%" y2="32.078%" id="b"><stop stop-color="#FFF" stop-opacity="0" offset="0%"/><stop stop-color="#FCFDFD" stop-opacity="0" offset="29.9%"/><stop stop-color="#F4F4F5" stop-opacity="0" offset="47.9%"/><stop stop-color="#E6E7E7" offset="62.7%"/><stop stop-color="#D2D3D5" offset="75.7%"/><stop stop-color="#C0C2C4" offset="84.2%"/><stop stop-color="#C0C2C4" offset="100%"/></linearGradient></defs><g fill="none" fill-rule="evenodd"><g transform="translate(0 13)"><mask id="c" fill="#fff"><use xlink:href="#a"/></mask><path fill="url(#b)" mask="url(#c)" d="M35.563 73.973l-53.974-56.114 56.849-54.681 53.973 56.113z"/></g><path d="M24.5 15v10" stroke="#FFF"/><path fill="#009EFF" d="M1 1v28h28V13L16.202.203z"/><path d="M23 17v8c0 1.936 3 1.936 3 0v-8c0-1.935-3-1.935-3 0" fill="#FFF"/><path d="M30 13.027L17.006 0H0v30h30V13.027zm-1.979 14.991H1.979V1.984h14.209l.381.382v11.049h11.02l.434.434v14.168h-.002v.001z" fill="#262626" fill-rule="nonzero"/></g></svg>