<svg xmlns="http://www.w3.org/2000/svg" xmlns:xlink="http://www.w3.org/1999/xlink" width="74" height="50"><defs><path id="a" d="M0 30l24 20h50L29.781 13.15z"/></defs><clipPath id="b"><use xlink:href="#a" overflow="visible"/></clipPath><linearGradient id="c" gradientUnits="userSpaceOnUse" x1="-801.878" y1="-99.759" x2="-800.878" y2="-99.759" gradientTransform="scale(-63.4098) rotate(46.114 -517.546 890.472)"><stop offset="0" stop-color="#fff" stop-opacity="0"/><stop offset=".299" stop-color="#fcfdfd" stop-opacity="0"/><stop offset=".479" stop-color="#f4f4f5" stop-opacity="0"/><stop offset=".627" stop-color="#e6e7e7"/><stop offset=".757" stop-color="#d2d3d5"/><stop offset=".842" stop-color="#c0c2c4"/><stop offset="1" stop-color="#c0c2c4"/></linearGradient><path clip-path="url(#b)" fill="url(#c)" d="M35.563 86.973l-53.974-56.114 56.849-54.681 53.973 56.113z"/><path fill="none" stroke="#FFF" stroke-miterlimit="10" d="M24.5 15v10"/><path fill="#FFDD15" d="M1 1v28h28V13L16.202.203z"/><path fill="#FFF" d="M23 17v8c0 1.936 3 1.936 3 0v-8c0-1.935-3-1.935-3 0"/><path fill="#262626" d="M30 13.027L17.006 0H0v30h30V13.027zm-1.979 14.991H1.979V1.984h14.209l.381.382v11.049h11.02l.434.434v14.168h-.002z"/></svg>