<?xml version="1.0" encoding="utf-8"?>
<!-- Generator: Adobe Illustrator 21.1.0, SVG Export Plug-In . SVG Version: 6.00 Build 0)  -->
<svg version="1.1" xmlns="http://www.w3.org/2000/svg" xmlns:xlink="http://www.w3.org/1999/xlink" x="0px" y="0px"
	 viewBox="0 0 74 50" style="enable-background:new 0 0 74 50;" xml:space="preserve">
<style type="text/css">
	.st0{display:none;}
	.st1{display:inline;}
	.st2{clip-path:url(#SVGID_2_);fill:url(#SVGID_3_);}
	.st3{fill:none;stroke:#FFFFFF;stroke-miterlimit:10;}
	.st4{fill:#f92869;}
	.st5{fill:#FFFFFF;}
	.st6{fill:#262626;}
	.st7{clip-path:url(#SVGID_5_);fill:url(#SVGID_6_);}
	.st8{clip-path:url(#SVGID_8_);fill:url(#SVGID_9_);}
</style>
<g id="Layer_1" class="st0">
	<g class="st1">
		<g>
			<g>
				<g>
					<defs>
						<polygon id="SVGID_1_" points="0,30 24,50 74,50 29.8,13.1 						"/>
					</defs>
					<clipPath id="SVGID_2_">
						<use xlink:href="#SVGID_1_"  style="overflow:visible;"/>
					</clipPath>
					
						<linearGradient id="SVGID_3_" gradientUnits="userSpaceOnUse" x1="-1077.0133" y1="522.7579" x2="-1076.0138" y2="522.7579" gradientTransform="matrix(-43.9576 -45.7004 -45.7004 43.9576 -23390.5977 -72141.4766)">
						<stop  offset="0" style="stop-color:#FFFFFF;stop-opacity:0"/>
						<stop  offset="0.2993" style="stop-color:#FCFDFD;stop-opacity:0"/>
						<stop  offset="0.4789" style="stop-color:#F4F4F5;stop-opacity:0"/>
						<stop  offset="0.6268" style="stop-color:#E6E7E7"/>
						<stop  offset="0.7569" style="stop-color:#D2D3D5"/>
						<stop  offset="0.8416" style="stop-color:#C0C2C4"/>
						<stop  offset="1" style="stop-color:#C0C2C4"/>
					</linearGradient>
					<polygon class="st2" points="35.6,87 -18.4,30.9 38.4,-23.8 92.4,32.3 					"/>
				</g>
			</g>
		</g>
		<line class="st3" x1="24.5" y1="15" x2="24.5" y2="25"/>
		<polygon class="st4" points="1,1 1,29 29,29 29,13 16.2,0.2 		"/>
		<path class="st5" d="M23,17v8c0,1.9,3,1.9,3,0v-8C26,15.1,23,15.1,23,17"/>
		<path class="st6" d="M30,13L17,0H0v30h30V13z M28,28H2V2h14.2l0.4,0.4v11h11l0.4,0.4L28,28L28,28L28,28z"/>
	</g>
</g>
<g id="Layer_2">
	<g class="st0">
		<g class="st1">
			<g>
				<defs>
					<polygon id="SVGID_4_" points="3.8,24.2 24.3,41.4 67.2,41.4 29.3,9.8 					"/>
				</defs>
				<clipPath id="SVGID_5_">
					<use xlink:href="#SVGID_4_"  style="overflow:visible;"/>
				</clipPath>
				
					<linearGradient id="SVGID_6_" gradientUnits="userSpaceOnUse" x1="-1076.8469" y1="522.7097" x2="-1075.9901" y2="522.7097" gradientTransform="matrix(-43.9576 -45.7004 -45.7004 43.9576 -23390.5977 -72141.4766)">
					<stop  offset="0" style="stop-color:#FFFFFF;stop-opacity:0"/>
					<stop  offset="0.2993" style="stop-color:#FCFDFD;stop-opacity:0"/>
					<stop  offset="0.4789" style="stop-color:#F4F4F5;stop-opacity:0"/>
					<stop  offset="0.6268" style="stop-color:#E6E7E7"/>
					<stop  offset="0.7569" style="stop-color:#D2D3D5"/>
					<stop  offset="0.8416" style="stop-color:#C0C2C4"/>
					<stop  offset="1" style="stop-color:#C0C2C4"/>
				</linearGradient>
				<polygon class="st7" points="34.2,73.1 -12,25 36.7,-21.9 83,26.2 				"/>
			</g>
		</g>
	</g>
	<g>
		<g>
			<g>
				<defs>
					<path id="SVGID_7_" d="M20.5,4.3c-2.1,1.6-10.1,12-11.7,13.2c-1.5,1.1-0.9,6-1.4,9.8l21.8,18.1h44.4L22.1,2.7
						C21.9,3,21.5,3.5,20.5,4.3"/>
				</defs>
				<clipPath id="SVGID_8_">
					<use xlink:href="#SVGID_7_"  style="overflow:visible;"/>
				</clipPath>
				
					<linearGradient id="SVGID_9_" gradientUnits="userSpaceOnUse" x1="-1058.4893" y1="532.2968" x2="-1057.6013" y2="532.2968" gradientTransform="matrix(-50.1008 -52.0872 -52.0872 50.1008 -25240.207 -81752.4922)">
					<stop  offset="0" style="stop-color:#FFFFFF;stop-opacity:0"/>
					<stop  offset="0.2993" style="stop-color:#FCFDFD;stop-opacity:0"/>
					<stop  offset="0.4789" style="stop-color:#F4F4F5"/>
					<stop  offset="0.6268" style="stop-color:#E6E7E7"/>
					<stop  offset="0.7569" style="stop-color:#D2D3D5"/>
					<stop  offset="0.8416" style="stop-color:#C0C2C4"/>
					<stop  offset="1" style="stop-color:#C0C2C4"/>
				</linearGradient>
				<polygon class="st8" points="39.1,78.6 -14.1,23.3 41.7,-30.4 94.9,24.9 				"/>
			</g>
		</g>
	</g>
	<g>
		<path class="st4" d="M15.9,30.4C8,30.4,1.5,24,1.5,16S8,1.6,15.9,1.6S30.3,8.1,30.3,16S23.9,30.4,15.9,30.4z"/>
		<g>
			<g>
				<path class="st6" d="M16,30.6C7.9,30.6,1.4,24,1.4,16C1.4,7.9,7.9,1.4,16,1.4C24,1.4,30.6,7.9,30.6,16C30.6,24,24,30.6,16,30.6z
					 M16,3C8.8,3,3,8.8,3,16c0,7.2,5.8,13,13,13c7.2,0,13-5.8,13-13C29,8.8,23.2,3,16,3z"/>
			</g>
			<g>
				<path class="st6" d="M16,30.6c-1.2,0-2.9-0.8-4.3-4.6c-1-2.7-1.5-6.3-1.5-10c0-3.8,0.5-7.3,1.5-10c1.4-3.8,3.1-4.6,4.3-4.6
					s2.9,0.8,4.3,4.6c1,2.7,1.5,6.3,1.5,10c0,3.8-0.5,7.3-1.5,10C18.9,29.8,17.2,30.6,16,30.6z M16,3c-1.7,0-4.2,4.6-4.2,13
					c0,8.4,2.5,13,4.2,13c1.7,0,4.2-4.6,4.2-13C20.2,7.6,17.7,3,16,3z"/>
			</g>
			<g>
				<path class="st6" d="M3,12.4c-0.4,0-0.8-0.4-0.8-0.8s0.4-0.8,0.8-0.8h25.8c0.4,0,0.8,0.4,0.8,0.8s-0.4,0.8-0.8,0.8H3z"/>
			</g>
			<g>
				<path class="st6" d="M3,21.2c-0.4,0-0.8-0.4-0.8-0.8s0.4-0.8,0.8-0.8h25.8c0.4,0,0.8,0.4,0.8,0.8s-0.4,0.8-0.8,0.8H3z"/>
			</g>
		</g>
	</g>
</g>
</svg>
