<?xml version="1.0" encoding="utf-8"?>
<!-- Generator: Adobe Illustrator 15.0.0, SVG Export Plug-In . SVG Version: 6.00 Build 0)  -->
<!DOCTYPE svg PUBLIC "-//W3C//DTD SVG 1.1//EN" "http://www.w3.org/Graphics/SVG/1.1/DTD/svg11.dtd">
<svg version="1.1" id="Layer_1" xmlns="http://www.w3.org/2000/svg" xmlns:xlink="http://www.w3.org/1999/xlink" x="0px" y="0px"
	 width="80px" height="50px" viewBox="0 0 80 50" enable-background="new 0 0 80 50" xml:space="preserve">
<g>
	<g>
		<g>
			<defs>
				<path id="SVGID_1_" d="M17.303,17.599c1.463,2.219-7.313,2.187-13.5,10c-0.936,1.18-2.094,1.445-1.141,2.092L26.553,49.6h43.917
					l-43.792-38C21.303,14.849,16.818,16.865,17.303,17.599"/>
			</defs>
			<clipPath id="SVGID_2_">
				<use xlink:href="#SVGID_1_"  overflow="visible"/>
			</clipPath>

				<linearGradient id="SVGID_3_" gradientUnits="userSpaceOnUse" x1="-822.981" y1="-116.8428" x2="-821.981" y2="-116.8428" gradientTransform="matrix(-41.6523 -43.3037 43.3037 -41.6523 -29159.0332 -40449.0664)">
				<stop  offset="0" style="stop-color:#FFFFFF;stop-opacity:0"/>
				<stop  offset="0.2993" style="stop-color:#FCFDFD;stop-opacity:0"/>
				<stop  offset="0.4789" style="stop-color:#F4F4F5;stop-opacity:0"/>
				<stop  offset="0.6268" style="stop-color:#E6E7E7"/>
				<stop  offset="0.7569" style="stop-color:#D2D3D5"/>
				<stop  offset="0.8416" style="stop-color:#C0C2C4"/>
				<stop  offset="1" style="stop-color:#C0C2C4"/>
			</linearGradient>
			<polygon clip-path="url(#SVGID_2_)" fill="url(#SVGID_3_)" points="34.753,83.953 -17.277,29.859 37.426,-22.756 89.455,31.337
							"/>
		</g>
	</g>
	<path fill="#FFDD15" d="M2.553,13.099c0,0-1,5.125-0.875,5.625s-0.125,7.5-0.125,7.5s0.5,1.375,1.25,1.625s4.75,0.25,5.25,0.375
		s11.375,0.5,11.875,0.5s5.25-0.125,5.25-0.125s1.25-1.875,1.375-2.375s0.75-5.75,0.75-5.75l-0.375-5.375l-0.75-1.875l-4.25-0.5
		L2.553,13.099z"/>
	<path fill="#262626" d="M25.467,29.461H3.446C2.099,29.461,1,28.364,1,27.014V13.965c0-1.35,1.099-2.447,2.446-2.447h22.021
		c1.35,0,2.446,1.097,2.446,2.447v13.049C27.913,28.364,26.816,29.461,25.467,29.461 M3.446,13.965v13.049h22.022l-0.002-13.049
		H3.446z"/>
	<path fill="#262626" d="M14.457,16.316c-1.407,0-2.55,1.141-2.55,2.548c0,0.962,0.54,1.79,1.325,2.223v2.87h2.447v-2.869
		c0.787-0.433,1.326-1.261,1.326-2.224C17.006,17.458,15.864,16.316,14.457,16.316"/>
	<path fill="#262626" d="M20.797,7.155h2.523C22.438,3.071,18.802,0,14.457,0C9.454,0,5.384,4.07,5.384,9.073v3.368h2.447V9.073
		c0-3.653,2.973-6.626,6.626-6.626C17.443,2.447,19.972,4.434,20.797,7.155"/>
	<path fill="#FFFFFF" d="M21.11,17.289c-0.001,2.01,0.083,4.017,0,6.027c-0.08,1.935,2.921,1.927,3,0
		c0.083-2.01-0.001-4.017,0-6.027C24.111,15.354,21.111,15.354,21.11,17.289"/>
</g>
</svg>
