<?xml version="1.0" encoding="utf-8"?>
<!-- Generator: Adobe Illustrator 15.0.0, SVG Export Plug-In . SVG Version: 6.00 Build 0)  -->
<!DOCTYPE svg PUBLIC "-//W3C//DTD SVG 1.0//EN" "http://www.w3.org/TR/2001/REC-SVG-20010904/DTD/svg10.dtd">
<svg version="1.0" id="Layer_1" xmlns="http://www.w3.org/2000/svg" xmlns:xlink="http://www.w3.org/1999/xlink" x="0px" y="0px"
	 width="42px" height="42px" viewBox="0 0 42 42" enable-background="new 0 0 42 42" xml:space="preserve">
<g>
	<path fill="#1A171B" d="M42,42.001H0V0h42V42.001L42,42.001z M2.282,39.718h37.435V2.283H2.282V39.718L2.282,39.718z"/>
</g>
<g>
	<path fill="#1A171B" d="M14.473,11.291c0-0.293,0.235-0.558,0.558-0.558h11.938c0.324,0,0.559,0.265,0.559,0.558v2.406
		c0,0.293-0.234,0.557-0.559,0.557h-8.682v4.812h7.244c0.293,0,0.559,0.264,0.559,0.557v2.435c0,0.323-0.266,0.558-0.559,0.558
		h-7.244v5.134h8.682c0.324,0,0.559,0.264,0.559,0.557v2.405c0,0.294-0.234,0.558-0.559,0.558H15.031
		c-0.323,0-0.558-0.264-0.558-0.558V11.291z"/>
</g>
</svg>
