<?xml version="1.0" encoding="utf-8"?>
<!-- Generator: Adobe Illustrator 15.0.0, SVG Export Plug-In . SVG Version: 6.00 Build 0)  -->
<!DOCTYPE svg PUBLIC "-//W3C//DTD SVG 1.1//EN" "http://www.w3.org/Graphics/SVG/1.1/DTD/svg11.dtd">
<svg version="1.1" id="Layer_1" xmlns="http://www.w3.org/2000/svg" xmlns:xlink="http://www.w3.org/1999/xlink" x="0px" y="0px"
	 width="99.215px" height="18.881px" viewBox="0 0 99.215 18.881" enable-background="new 0 0 99.215 18.881" xml:space="preserve">
<g>
	<defs>
		<rect id="SVGID_1_" width="99.215" height="18.881"/>
	</defs>
	<clipPath id="SVGID_2_">
		<use xlink:href="#SVGID_1_"  overflow="visible"/>
	</clipPath>
	<path clip-path="url(#SVGID_2_)" fill="#FFFFFF" d="M37.834,17.947c1.72,0.264,3.16,0.934,5.217,0.934
		c3.683,0,6.673-2.178,6.771-5.863c0.07-3.063-1.914-4.738-4.738-6.006c-1.485-0.669-1.821-1.052-1.793-1.531
		c0-0.455,0.381-0.767,1.027-0.767c1.195,0,3.158,0.91,4.524,2.011l-0.334-6.031C46.902,0.478,45.945,0,43.912,0
		c-3.709,0-6.559,2.297-6.652,5.814c-0.073,2.92,1.841,4.524,4.689,5.863c1.578,0.74,1.865,1.148,1.865,1.65
		c-0.021,0.479-0.404,0.814-1.053,0.814c-1.505,0-3.9-1.412-5.263-2.824L37.834,17.947z M62.625,0.31
		c0.217,1.485,0.357,3.231,0.357,5.721v6.818c0,2.49-0.141,4.211-0.357,5.695h6.75c-0.24-1.484-0.387-3.23-0.387-5.695V6.031
		c0-2.49,0.146-4.236,0.387-5.721H62.625z M29.025,11.414h-1.482l0.742-2.369L29.025,11.414z M79.688,18.545
		c0.502-1.412,1.053-2.824,1.627-4.188L87.131,0.31h-6.176c-0.143,1.172-0.406,2.369-0.789,3.471L78.42,8.424l-1.676-4.547
		c-0.385-1.053-0.742-2.369-0.861-3.567H68.92l5.885,14.071c0.551,1.316,1.125,2.775,1.58,4.164H79.688z M86.699,0.31
		c0.238,1.485,0.383,3.231,0.383,5.721v6.818c0,2.49-0.145,4.211-0.383,5.695h12.082l0.434-5.359
		c-1.461,0.502-3.018,0.621-4.454,0.621h-1.673v-2.105h4.092c0.045-1.58,0.094-3.158,0.165-4.738h-4.257V5.002h1.1
		c1.578,0,3.133,0.191,4.475,0.644L98.209,0.31H86.699z M13.638,0.31c-0.214,1.172-0.693,2.561-1.171,3.686l-2.108,4.738
		L8.277,3.996C7.801,2.871,7.32,1.482,7.082,0.31H1.386c0.143,1.987,0.073,3.854-0.072,5.696l-0.504,6.82
		C0.621,15.314,0.357,17.037,0,18.545h6.316c-0.142-1.389-0.097-2.703-0.023-4.045l0.142-1.746l1.102,2.393
		c0.525,1.148,1.006,2.25,1.461,3.398h2.222c0.432-1.125,0.934-2.297,1.438-3.398l1.053-2.393l0.119,1.699
		c0.07,1.316,0.121,2.656-0.026,4.092h6.776c-0.383-1.508-0.623-3.23-0.815-5.719l-0.502-6.82c-0.144-1.842-0.214-3.709-0.095-5.696
		H13.638z M25.748,18.545c0.072-0.789,0.168-1.557,0.383-2.322l0.189-0.598h3.975l0.189,0.576c0.24,0.766,0.313,1.578,0.385,2.344
		h7.012c-0.743-1.484-1.604-3.445-2.276-5.145l-3.779-9.381c-0.551-1.293-0.908-2.201-1.342-3.709h-3.779
		c-0.432,1.508-0.789,2.416-1.34,3.709L21.584,13.4c-0.67,1.699-1.555,3.66-2.274,5.145H25.748z M50.49,17.947
		c1.725,0.264,3.16,0.934,5.221,0.934c3.682,0,6.675-2.178,6.77-5.863c0.072-3.063-1.914-4.738-4.736-6.006
		c-1.484-0.669-1.818-1.052-1.797-1.531c0-0.455,0.385-0.767,1.029-0.767c1.199,0,3.159,0.91,4.523,2.011l-0.334-6.031
		C59.561,0.478,58.604,0,56.57,0c-3.709,0-6.557,2.297-6.652,5.814c-0.073,2.92,1.843,4.524,4.689,5.863
		c1.58,0.74,1.867,1.148,1.867,1.65c-0.023,0.479-0.406,0.814-1.053,0.814c-1.508,0-3.9-1.412-5.266-2.824L50.49,17.947z"/>
</g>
</svg>
