<?xml version="1.0" encoding="utf-8"?>
<!-- Generator: Adobe Illustrator 15.0.0, SVG Export Plug-In . SVG Version: 6.00 Build 0)  -->
<!DOCTYPE svg PUBLIC "-//W3C//DTD SVG 1.1//EN" "http://www.w3.org/Graphics/SVG/1.1/DTD/svg11.dtd">
<svg version="1.1" id="Layer_1" xmlns="http://www.w3.org/2000/svg" xmlns:xlink="http://www.w3.org/1999/xlink" x="0px" y="0px"
	 width="80px" height="50px" viewBox="0 0 80 50" enable-background="new 0 0 80 50" xml:space="preserve">
<g>
	<g>
		<g>
			<defs>
				<path id="SVGID_1_" d="M17.162,17.417c1.463,2.219-7.313,2.187-13.5,10c-0.936,1.181-2.094,1.446-1.141,2.092l23.891,19.908
					h43.917l-43.792-38C21.162,14.667,16.678,16.683,17.162,17.417"/>
			</defs>
			<clipPath id="SVGID_2_">
				<use xlink:href="#SVGID_1_"  overflow="visible"/>
			</clipPath>

				<linearGradient id="SVGID_3_" gradientUnits="userSpaceOnUse" x1="-822.043" y1="-117.8135" x2="-821.043" y2="-117.8135" gradientTransform="matrix(-41.6523 -43.3037 43.3037 -41.6523 -29078.0332 -40449.0664)">
				<stop  offset="0" style="stop-color:#FFFFFF;stop-opacity:0"/>
				<stop  offset="0.2993" style="stop-color:#FCFDFD;stop-opacity:0"/>
				<stop  offset="0.4789" style="stop-color:#F4F4F5"/>
				<stop  offset="0.6268" style="stop-color:#E6E7E7"/>
				<stop  offset="0.7569" style="stop-color:#D2D3D5"/>
				<stop  offset="0.8416" style="stop-color:#C0C2C4"/>
				<stop  offset="1" style="stop-color:#C0C2C4"/>
			</linearGradient>
			<polygon clip-path="url(#SVGID_2_)" fill="url(#SVGID_3_)" points="34.612,83.771 -17.418,29.68 37.285,-22.938 89.314,31.154
							"/>
		</g>
	</g>
	<g>
		<path fill="#FFDD15" d="M3.412,12.917c0,0-1,5.125-0.875,5.625s-0.125,7.5-0.125,7.5s0.5,1.375,1.25,1.625s4.75,0.25,5.25,0.375
			s11.375,0.5,11.875,0.5s5.25-0.125,5.25-0.125s1.25-1.875,1.375-2.375s0.75-5.75,0.75-5.75l-0.375-5.375l-0.75-1.875l-4.25-0.5
			L3.412,12.917z"/>
		<path fill="#FFFFFF" d="M21.97,17.107c-0.001,2.01,0.083,4.017,0,6.027c-0.08,1.935,2.921,1.927,3,0
			c0.083-2.01-0.001-4.017,0-6.027C24.971,15.172,21.971,15.172,21.97,17.107"/>
		<path fill="#262626" d="M25.775,29.833H3.477C2.11,29.833,1,28.723,1,27.355V14.142c0-1.367,1.11-2.478,2.477-2.478h22.299
			c1.365,0,2.478,1.111,2.478,2.478v13.213C28.253,28.723,27.141,29.833,25.775,29.833 M3.477,27.355h22.299V14.141H3.477V27.355z"
			/>
		<path fill="#262626" d="M22.574,13.837c-0.686,0-1.238-0.555-1.238-1.239v-3.41c0-3.7-3.01-6.71-6.71-6.71
			c-3.701,0-6.711,3.01-6.711,6.71v3.41c0,0.684-0.555,1.239-1.239,1.239c-0.684,0-1.238-0.555-1.238-1.239v-3.41
			C5.438,4.122,9.56,0,14.626,0c5.064,0,9.187,4.122,9.187,9.188v3.41C23.813,13.282,23.259,13.837,22.574,13.837"/>
		<path fill="#262626" d="M14.626,16.522c-1.427,0-2.581,1.155-2.581,2.58c0,0.974,0.544,1.813,1.34,2.252v2.905h2.478v-2.904
			c0.799-0.439,1.343-1.278,1.343-2.253C17.205,17.678,16.051,16.522,14.626,16.522"/>
	</g>
</g>
</svg>
