<?xml version="1.0" encoding="utf-8"?>
<!-- Generator: Adobe Illustrator 15.0.0, SVG Export Plug-In . SVG Version: 6.00 Build 0)  -->
<!DOCTYPE svg PUBLIC "-//W3C//DTD SVG 1.1//EN" "http://www.w3.org/Graphics/SVG/1.1/DTD/svg11.dtd">
<svg version="1.1" id="Layer_1" xmlns="http://www.w3.org/2000/svg" xmlns:xlink="http://www.w3.org/1999/xlink" x="0px" y="0px"
	 width="80px" height="50px" viewBox="0 0 80 50" enable-background="new 0 0 80 50" xml:space="preserve">
<g>
	<g>
		<g>
			<defs>
				<path id="SVGID_1_" d="M25.138,9.584c1.463,2.219-10.563,1.938-16.75,9.75c-0.321,0.404,0.124-0.432,0.505-1.268
					c0.732-1.61,1.229-3.221-4.421,4.018l33.416,27.833h39.417l-48.833-42C26.722,8.334,24.652,8.85,25.138,9.584"/>
			</defs>
			<clipPath id="SVGID_2_">
				<use xlink:href="#SVGID_1_"  overflow="visible"/>
			</clipPath>

				<linearGradient id="SVGID_3_" gradientUnits="userSpaceOnUse" x1="-824.0454" y1="-114.3955" x2="-823.0454" y2="-114.3955" gradientTransform="matrix(-47.6557 -49.5451 49.5451 -47.6557 -33535.8594 -46223.1719)">
				<stop  offset="0" style="stop-color:#FFFFFF;stop-opacity:0"/>
				<stop  offset="0.2993" style="stop-color:#FCFDFD;stop-opacity:0"/>
				<stop  offset="0.4789" style="stop-color:#F4F4F5"/>
				<stop  offset="0.6268" style="stop-color:#E6E7E7"/>
				<stop  offset="0.7569" style="stop-color:#D2D3D5"/>
				<stop  offset="0.8416" style="stop-color:#C0C2C4"/>
				<stop  offset="1" style="stop-color:#C0C2C4"/>
			</linearGradient>
			<polygon clip-path="url(#SVGID_2_)" fill="url(#SVGID_3_)" points="39.473,86.307 -16.513,28.102 42.305,-28.472 98.289,29.732
							"/>
		</g>
	</g>
	<g>
		<path fill="#FFDD15" d="M1.68,2.042L1.201,15.396c0,0,1.26,1.219,1.51,1.302c0.25,0.084,2.339,0.277,2.339,0.277l0.169,2.846
			l1.918-0.077c0,0,2.417-2.163,2.667-2.163s1.751-1.165,2.001-1.165s1.75,0.5,1.75,0.5l0.083,3.334c0,0-0.167,3.167,0.25,3.25
			c0.417,0.084,4,0.334,4.25,0.417s1.751,0.75,2.084,1.083c0.333,0.334,3.25,2.667,3.25,2.667L24.388,26l0.25-1.833l2.417-0.083
			l1.5-2.667l-0.25-6.083l-0.083-4.5L27.68,8.917L15.555,8.5V1.917l-0.917-0.5C14.638,1.417,2.472-0.416,1.68,2.042"/>
	</g>
	<g>
		<path fill="#262626" d="M5.235,22.32c-0.181,0-0.36-0.038-0.528-0.116c-0.422-0.197-0.688-0.607-0.688-1.059v-3.23H2.936
			c-1.342,0-2.436-1.054-2.436-2.349V2.35C0.5,1.055,1.594,0,2.936,0h11.726c1.343,0,2.435,1.055,2.435,2.35v13.216
			c0,1.295-1.092,2.349-2.435,2.349h-3.228l-5.441,4.152C5.773,22.235,5.504,22.32,5.235,22.32 M2.936,2.35v13.216h2.3
			c0.673,0,1.217,0.526,1.217,1.174v1.979l3.804-2.9c0.215-0.164,0.48-0.253,0.754-0.253h3.651V2.35H2.936z"/>
		<path fill="#262626" d="M24.431,29.468c-0.27,0-0.534-0.086-0.754-0.253l-5.445-4.152h-3.229c-1.341,0-2.435-1.054-2.435-2.35
			v-5.972c0-0.649,0.545-1.175,1.218-1.175h0.875V8.323c0-0.65,0.544-1.175,1.217-1.175H26.73c1.344,0,2.436,1.054,2.436,2.349
			v13.216c0,1.296-1.092,2.35-2.436,2.35h-1.082v3.23c0,0.451-0.267,0.861-0.688,1.059C24.794,29.43,24.611,29.468,24.431,29.468
			 M15.003,17.893v4.82h3.651c0.272,0,0.539,0.09,0.756,0.254l3.804,2.902v-1.981c0-0.65,0.544-1.175,1.217-1.175h2.3V9.497h-9.635
			v6.069C17.096,16.75,16.184,17.73,15.003,17.893"/>
	</g>
	<path fill="#FFFFFF" d="M9.862,6.607c-0.001,2.01,0.083,4.017,0,6.027c-0.08,1.935,2.921,1.927,3,0c0.083-2.01-0.001-4.017,0-6.027
		C12.863,4.672,9.863,4.672,9.862,6.607"/>
	<path fill="#FFFFFF" d="M21.862,13.607c-0.001,2.01,0.083,4.017,0,6.027c-0.08,1.935,2.921,1.927,3,0
		c0.083-2.01-0.001-4.017,0-6.027C24.863,11.672,21.863,11.672,21.862,13.607"/>
</g>
</svg>
