<?xml version="1.0" encoding="utf-8"?>
<!-- Generator: Adobe Illustrator 18.0.0, SVG Export Plug-In . SVG Version: 6.00 Build 0)  -->
<!DOCTYPE svg PUBLIC "-//W3C//DTD SVG 1.1//EN" "http://www.w3.org/Graphics/SVG/1.1/DTD/svg11.dtd">
<svg version="1.1" id="Camada_1" xmlns="http://www.w3.org/2000/svg" xmlns:xlink="http://www.w3.org/1999/xlink" x="0px" y="0px"
	 viewBox="0 0 185 180" enable-background="new 0 0 185 180" xml:space="preserve">
<polygon fill="#FEDF00" points="38.3,10 38.3,13 182,13 182,177 18,177 18,39.3 15,39.3 15,180 185,180 185,10 "/>
<g>
	<path fill="#010101" d="M0,30V15.7c-0.1-2.1,0.2-4,0.9-5.8c0.6-1.8,1.6-3.4,2.7-4.8c1.2-1.4,2.6-2.5,4.2-3.4
		c1.6-0.9,3.4-1.5,5.3-1.7v6.3c-2.4,0.8-4,2.1-4.9,3.7c-0.9,1.6-1.3,3.6-1.3,6h6.1V30H0z"/>
	<path fill="#010101" d="M14.9,30V15.7c-0.1-2.1,0.2-4,0.9-5.8c0.6-1.8,1.6-3.4,2.7-4.8c1.2-1.4,2.6-2.5,4.2-3.4
		C24.3,0.8,26.1,0.3,28,0v6.3c-2.4,0.8-4,2.1-4.9,3.7c-0.9,1.6-1.3,3.6-1.3,6H28V30H14.9z"/>
</g>
</svg>
