<svg width="67" height="50" xmlns="http://www.w3.org/2000/svg" xmlns:xlink="http://www.w3.org/1999/xlink"><defs><path d="M15.28 2.186C12.935 3.982 3.935 15.732 2.06 17.107.424 18.306 1.071 23.88.433 28.188l24.502 20.42h50L17.048.367c-.205.402-.626.946-1.768 1.819" id="a"/><linearGradient x1="72.578%" y1="73.68%" x2="31.752%" y2="31.227%" id="b"><stop stop-color="#FFF" stop-opacity="0" offset="0%"/><stop stop-color="#FCFDFD" stop-opacity="0" offset="29.9%"/><stop stop-color="#F4F4F5" offset="47.9%"/><stop stop-color="#E6E7E7" offset="62.7%"/><stop stop-color="#D2D3D5" offset="75.7%"/><stop stop-color="#C0C2C4" offset="84.2%"/><stop stop-color="#C0C2C4" offset="100%"/></linearGradient></defs><g fill="none" fill-rule="evenodd"><g transform="translate(11 1)"><mask id="c" fill="#fff"><use xlink:href="#a"/></mask><path fill="url(#b)" mask="url(#c)" d="M36.232 85.834l-59.91-62.284 62.806-60.41 59.909 62.284z"/></g><path fill="#009EFF" d="M17.748.982L1.248 17.63l10.063 10.477L28.186 11.42l-.938-9.063z"/><path d="M11.576 29.469l17.893-17.892-.053-.052-1.414-10.058L17.943.051 17.891 0 0 17.891l11.576 11.578zM26.281 3.186l1.09 7.742-15.795 15.793-8.83-8.83L18.54 2.097l7.741 1.089z" fill="#262626" fill-rule="nonzero"/><path d="M6.063 18.022l9.6-9.708 1.423 1.407-9.599 9.709-1.424-1.408zm16.425-8.357a2.343 2.343 0 1 0 .001-4.687 2.343 2.343 0 0 0-.001 4.687z" fill="#262626" fill-rule="nonzero"/><path d="M20.125 11.809l-5.508 5.34c-1.391 1.349.732 3.468 2.121 2.121l5.508-5.34c1.391-1.349-.732-3.468-2.121-2.121m2.363-3.426a1.063 1.063 0 1 0 .064-2.125 1.063 1.063 0 0 0-.064 2.125" fill="#FFF" fill-rule="nonzero"/></g></svg>