<svg xmlns="http://www.w3.org/2000/svg" xmlns:xlink="http://www.w3.org/1999/xlink" width="88" height="50"><defs><path id="a" d="M26.28 3.186c-2.345 1.796-11.345 13.546-13.22 14.921-1.636 1.199-.989 6.773-1.627 11.081l24.502 20.42h50L28.048 1.367c-.205.402-.626.946-1.768 1.819"/></defs><clipPath id="b"><use xlink:href="#a" overflow="visible"/></clipPath><linearGradient id="c" gradientUnits="userSpaceOnUse" x1="-784.384" y1="-109.351" x2="-783.384" y2="-109.351" gradientTransform="rotate(-133.886 -26612.558 -16005.203) scale(72.2715)"><stop offset="0" stop-color="#fff" stop-opacity="0"/><stop offset=".299" stop-color="#fcfdfd" stop-opacity="0"/><stop offset=".479" stop-color="#f4f4f5"/><stop offset=".627" stop-color="#e6e7e7"/><stop offset=".757" stop-color="#d2d3d5"/><stop offset=".842" stop-color="#c0c2c4"/><stop offset="1" stop-color="#c0c2c4"/></linearGradient><path clip-path="url(#b)" fill="url(#c)" d="M47.232 86.834l-59.91-62.284 62.806-60.41 59.909 62.284z"/><path fill="#f92869" d="M17.748.982L1.248 17.63l10.063 10.477L28.186 11.42l-.938-9.063z"/><path fill="#262626" d="M11.576 29.469l17.893-17.892-.053-.052-1.414-10.058L17.943.051 17.891 0 0 17.891l11.576 11.578zM26.281 3.186l1.09 7.742-15.795 15.793-8.83-8.83L18.54 2.097l7.741 1.089z"/><path fill="#262626" d="M6.063 18.022l9.6-9.708 1.423 1.407-9.599 9.709zM22.488 9.665a2.343 2.343 0 1 0 .001-4.687 2.343 2.343 0 0 0-.001 4.687"/><path fill="#FFF" d="M20.125 11.809l-5.508 5.34c-1.391 1.349.732 3.468 2.121 2.121l5.508-5.34c1.391-1.349-.732-3.468-2.121-2.121M22.488 8.383a1.063 1.063 0 1 0-.001-2.125 1.063 1.063 0 0 0 .001 2.125"/></svg>