<?xml version="1.0" encoding="utf-8"?>
<!-- Generator: Adobe Illustrator 15.0.0, SVG Export Plug-In . SVG Version: 6.00 Build 0)  -->
<!DOCTYPE svg PUBLIC "-//W3C//DTD SVG 1.1//EN" "http://www.w3.org/Graphics/SVG/1.1/DTD/svg11.dtd">
<svg version="1.1" id="Layer_1" xmlns="http://www.w3.org/2000/svg" xmlns:xlink="http://www.w3.org/1999/xlink" x="0px" y="0px"
	 width="80px" height="50px" viewBox="0 0 80 50" enable-background="new 0 0 80 50" xml:space="preserve">
<g>
	<g>
		<g>
			<g>
				<defs>
					<path id="SVGID_1_" d="M17.662,3.875c-0.25,0.75-0.5,4.625-0.375,6.375s-3.875,6.625-3.875,6.625l-6.098-6.606
						c0,0-1.277,3.106-1.277,3.731s0.25,1.625,0.375,2.5s1.125,2.125,1.625,2.875s2.25,2.25,4.25,3s2.25,0.75,1.75,2.25
						S14.287,29,14.287,29s-2.125-0.125-6.875,0c-1.046,0.027-1.433,0.061-2.144,0.332L29.412,50h46.875L18.369,1.734
						C18.049,2.695,17.764,3.571,17.662,3.875"/>
				</defs>
				<clipPath id="SVGID_2_">
					<use xlink:href="#SVGID_1_"  overflow="visible"/>
				</clipPath>

					<linearGradient id="SVGID_3_" gradientUnits="userSpaceOnUse" x1="-832.9009" y1="-104.46" x2="-831.9008" y2="-104.46" gradientTransform="matrix(-51.2754 -53.3083 53.3083 -51.2754 -37071.2109 -49702.7734)">
					<stop  offset="0" style="stop-color:#FFFFFF;stop-opacity:0"/>
					<stop  offset="0.2993" style="stop-color:#FCFDFD;stop-opacity:0"/>
					<stop  offset="0.4789" style="stop-color:#F4F4F5"/>
					<stop  offset="0.6268" style="stop-color:#E6E7E7"/>
					<stop  offset="0.7569" style="stop-color:#D2D3D5"/>
					<stop  offset="0.8416" style="stop-color:#C0C2C4"/>
					<stop  offset="1" style="stop-color:#C0C2C4"/>
				</linearGradient>
				<polygon clip-path="url(#SVGID_2_)" fill="url(#SVGID_3_)" points="39.154,85.717 -19.315,24.929 41.934,-33.982 100.4,26.805
									"/>
			</g>
		</g>
		<path fill="#FFDD15" d="M10.655,2.176l7.655-0.258c0,0,0.371,10.492,0.427,10.612c0.055,0.12-0.974,4.718-0.974,4.718
			s-1.589,1.94-1.645,1.988C16.063,19.284,13.899,20,13.806,20h-1.075c0,0-0.686-2.185-0.779-2.305
			c-0.092-0.121-0.685-2.641-0.704-2.737c-0.018-0.097-0.13-2.58-0.148-2.725c-0.019-0.144-0.593-4.742-0.593-4.742l-0.111-2.425
			L10.655,2.176z"/>
		<path fill="#262626" d="M6.249,28.063c-0.542,0-0.981,0.435-0.981,0.97C5.268,29.566,5.707,30,6.249,30h16.519
			c0.542,0,0.981-0.434,0.981-0.969s-0.439-0.969-0.981-0.969H15.52v-3.938c4.629-0.485,8.248-4.358,8.248-9.052v-4.805h-2v4.805
			c0,3.932-3.242,7.131-7.227,7.131s-7.227-3.199-7.227-7.131v-4.805h-2v4.805c0,4.694,3.62,8.568,8.247,9.052v3.938H6.249
			L6.249,28.063z"/>
		<path fill="#262626" d="M14.517,20.729c2.593,0,4.705-1.991,4.901-4.502h0.039V5.021c0-2.688-2.217-4.874-4.94-4.874
			c-2.724,0-4.939,2.186-4.939,4.874v11.205h0.039C9.812,18.737,11.922,20.729,14.517,20.729 M11.997,2.561h5.039
			c0.028,0.149,0.048,0.304,0.048,0.461v1.832h-5.133V3.021C11.951,2.864,11.968,2.709,11.997,2.561 M17.083,7.146l0.037,7.946
			h-5.133L11.95,7.146H17.083z"/>
		<path fill="#FFDD15" d="M17.121,15.11c0,1.427-1.157,2.583-2.584,2.583c-1.427,0-2.584-1.156-2.584-2.583
			c0-1.427,1.157-2.584,2.584-2.584C15.963,12.526,17.121,13.684,17.121,15.11"/>
		<path fill="#FFFFFF" d="M13.611,9.582v3.731c0,1.935,3,1.935,3,0V9.582C16.611,7.646,13.611,7.646,13.611,9.582"/>
	</g>
</g>
</svg>
