<?xml version="1.0" encoding="utf-8"?>
<!-- Generator: Adobe Illustrator 21.1.0, SVG Export Plug-In . SVG Version: 6.00 Build 0)  -->
<svg version="1.1" id="Layer_1" xmlns="http://www.w3.org/2000/svg" xmlns:xlink="http://www.w3.org/1999/xlink" x="0px" y="0px"
	 viewBox="0 0 49.3 36.7" style="enable-background:new 0 0 49.3 36.7;" xml:space="preserve">
<style type="text/css">
	.st0{clip-path:url(#SVGID_2_);fill:#BDBDBD;}
	.st1{clip-path:url(#SVGID_2_);fill:#1D384D;}
	.st2{clip-path:url(#SVGID_2_);fill:none;stroke:#FFDD00;stroke-width:3;}
</style>
<g>
	<defs>
		<rect id="SVGID_1_" y="0" width="49.3" height="36.7"/>
	</defs>
	<clipPath id="SVGID_2_">
		<use xlink:href="#SVGID_1_"  style="overflow:visible;"/>
	</clipPath>
	<path class="st0" d="M5.7,18.4c-3.2,0-5.7-2.6-5.7-5.7s2.6-5.7,5.7-5.7s5.7,2.6,5.7,5.7S8.9,18.4,5.7,18.4 M5.7,7.5
		c-2.8,0-5.2,2.3-5.2,5.2s2.3,5.2,5.2,5.2s5.2-2.3,5.2-5.2S8.6,7.5,5.7,7.5"/>
	<path class="st1" d="M7.5,14.6c-0.4,0.3-1,0.5-1.5,0.5c-1.2,0-2.2-0.9-2.4-2.1h3.1v-0.7H3.6c0.2-1.2,1.2-2.1,2.4-2.1
		c0.5,0,0.9,0.1,1.3,0.4l0.4-0.5C7.2,9.8,6.6,9.6,6,9.6c-1.6,0-2.9,1.2-3,2.7H2.1V13h0.8c0.2,1.5,1.5,2.7,3,2.7
		c0.7,0,1.4-0.2,1.9-0.7L7.5,14.6z"/>
	<path class="st0" d="M43.6,18.4c-3.2,0-5.7-2.6-5.7-5.7s2.6-5.7,5.7-5.7c3.2,0,5.7,2.6,5.7,5.7S46.7,18.4,43.6,18.4 M43.6,7.5
		c-2.8,0-5.2,2.3-5.2,5.2s2.3,5.2,5.2,5.2c2.8,0,5.2-2.3,5.2-5.2S46.4,7.5,43.6,7.5"/>
	<path class="st1" d="M45.3,14.6c-0.4,0.3-1,0.5-1.5,0.5c-1.2,0-2.2-0.9-2.4-2.1h3.1v-0.7h-3.1c0.2-1.2,1.2-2.1,2.4-2.1
		c0.5,0,0.9,0.1,1.3,0.4l0.4-0.5c-0.5-0.3-1.1-0.5-1.7-0.5c-1.6,0-2.9,1.2-3,2.7h-0.8V13h0.8c0.2,1.5,1.5,2.7,3,2.7
		c0.7,0,1.4-0.2,1.9-0.7L45.3,14.6z"/>
	<path class="st1" d="M24.3,11.1c-3.1,0-5.6-2.5-5.6-5.6c0-3.1,2.5-5.6,5.6-5.6s5.6,2.5,5.6,5.6C29.8,8.6,27.3,11.1,24.3,11.1
		 M24.3,0.9c-2.6,0-4.7,2.1-4.7,4.7c0,2.6,2.1,4.7,4.7,4.7c2.6,0,4.7-2.1,4.7-4.7C29,3,26.9,0.9,24.3,0.9"/>
	<path class="st1" d="M45.2,22.6h-3.1v0l-3.2,0l-3.2-6.1l-0.3-0.5l0,0c-1.2-2-3.4-3.3-5.8-3.3H19.4l-0.4,0v0
		c-2.5,0.2-4.6,1.6-5.7,3.8l-3.2,6.1l-3.2,0v0H3.8c-1.7,0-3,1.3-3,3c0,1.7,1.3,3,3,3h0.1h10.2l3.6-6.5v11.7c0,0,0,0,0,0v2.8h13.5
		V22.2l3.6,6.4h10.2h0.1c1.7,0,3-1.3,3-3C48.2,23.9,46.9,22.6,45.2,22.6 M3.8,27.8L3.8,27.8c-1.2,0-2.2-1-2.2-2.1
		c0-1.2,1-2.1,2.1-2.1h0L3.8,27.8L3.8,27.8z M6,27.7l-1.3,0l0-4.3l1.3,0V27.7z M42.2,27.8h-6.8l-3.6-6.4l0,0l-1.4-2.5v17H18.6v-1.9
		c0,0,0,0,0-0.1v-15l-0.8,1.4l-0.6,1.1l-3.6,6.4H6.9v-4.3l3.8,0l3.4-6.6c1-2.1,3.1-3.4,5.4-3.4l2.1,0l6.2,0l1.8,0
		c2.3,0,4.3,1.3,5.4,3.3l0.3,0.6l0,0l3.2,6.1l3.8,0V27.8z M44.3,27.8l-1.3,0v-4.3l1.3,0L44.3,27.8z M45.2,27.8L45.2,27.8L45.2,27.8
		l0-4.3h0c1.2,0,2.1,1,2.1,2.1C47.4,26.8,46.4,27.8,45.2,27.8"/>
	<path class="st2" d="M24.4,4.1L24.4,4.1c0.8,0.1,1.4,0.8,1.4,1.6c-0.1,0.8-0.8,1.4-1.6,1.4c-0.8-0.1-1.4-0.8-1.4-1.6
		C22.8,4.6,23.6,4,24.4,4.1z"/>
</g>
</svg>
